<?xml version="1.0" encoding="utf-8" standalone="no"?>
<!DOCTYPE svg PUBLIC "-//W3C//DTD SVG 1.1//EN"
  "http://www.w3.org/Graphics/SVG/1.1/DTD/svg11.dtd">
<svg xmlns:xlink="http://www.w3.org/1999/xlink" width="376.18625pt" height="225.322398pt" viewBox="0 0 376.18625 225.322398" xmlns="http://www.w3.org/2000/svg" version="1.1">
 <metadata>
  <rdf:RDF xmlns:dc="http://purl.org/dc/elements/1.1/" xmlns:cc="http://creativecommons.org/ns#" xmlns:rdf="http://www.w3.org/1999/02/22-rdf-syntax-ns#">
   <cc:Work>
    <dc:type rdf:resource="http://purl.org/dc/dcmitype/StillImage"/>
    <dc:date>2022-01-05T19:12:16.211392</dc:date>
    <dc:format>image/svg+xml</dc:format>
    <dc:creator>
     <cc:Agent>
      <dc:title>Matplotlib v3.5.0, https://matplotlib.org/</dc:title>
     </cc:Agent>
    </dc:creator>
   </cc:Work>
  </rdf:RDF>
 </metadata>
 <defs>
  <style type="text/css">*{stroke-linejoin: round; stroke-linecap: butt}</style>
 </defs>
 <g id="figure_1">
  <g id="patch_1">
   <path d="M 0 225.322398 
L 376.18625 225.322398 
L 376.18625 0 
L 0 0 
z
" style="fill: #ffffff"/>
  </g>
  <g id="axes_1">
   <g id="patch_2">
    <path d="M 56.50625 187.766148 
L 368.98625 187.766148 
L 368.98625 10.358148 
L 56.50625 10.358148 
z
" style="fill: #ffffff"/>
   </g>
   <g id="matplotlib.axis_1">
    <g id="xtick_1">
     <g id="line2d_1">
      <defs>
       <path id="m8cfffa6b12" d="M 0 0 
L 0 3.5 
" style="stroke: #000000; stroke-width: 0.8"/>
      </defs>
      <g>
       <use xlink:href="#m8cfffa6b12" x="84.464987" y="187.766148" style="stroke: #000000; stroke-width: 0.8"/>
      </g>
     </g>
     <g id="text_1">
      <!-- 200 -->
      <g transform="translate(74.921237 202.364585)scale(0.1 -0.1)">
       <defs>
        <path id="DejaVuSans-32" d="M 1228 531 
L 3431 531 
L 3431 0 
L 469 0 
L 469 531 
Q 828 903 1448 1529 
Q 2069 2156 2228 2338 
Q 2531 2678 2651 2914 
Q 2772 3150 2772 3378 
Q 2772 3750 2511 3984 
Q 2250 4219 1831 4219 
Q 1534 4219 1204 4116 
Q 875 4013 500 3803 
L 500 4441 
Q 881 4594 1212 4672 
Q 1544 4750 1819 4750 
Q 2544 4750 2975 4387 
Q 3406 4025 3406 3419 
Q 3406 3131 3298 2873 
Q 3191 2616 2906 2266 
Q 2828 2175 2409 1742 
Q 1991 1309 1228 531 
z
" transform="scale(0.015625)"/>
        <path id="DejaVuSans-30" d="M 2034 4250 
Q 1547 4250 1301 3770 
Q 1056 3291 1056 2328 
Q 1056 1369 1301 889 
Q 1547 409 2034 409 
Q 2525 409 2770 889 
Q 3016 1369 3016 2328 
Q 3016 3291 2770 3770 
Q 2525 4250 2034 4250 
z
M 2034 4750 
Q 2819 4750 3233 4129 
Q 3647 3509 3647 2328 
Q 3647 1150 3233 529 
Q 2819 -91 2034 -91 
Q 1250 -91 836 529 
Q 422 1150 422 2328 
Q 422 3509 836 4129 
Q 1250 4750 2034 4750 
z
" transform="scale(0.015625)"/>
       </defs>
       <use xlink:href="#DejaVuSans-32"/>
       <use xlink:href="#DejaVuSans-30" x="63.623047"/>
       <use xlink:href="#DejaVuSans-30" x="127.246094"/>
      </g>
     </g>
    </g>
    <g id="xtick_2">
     <g id="line2d_2">
      <g>
       <use xlink:href="#m8cfffa6b12" x="125.580776" y="187.766148" style="stroke: #000000; stroke-width: 0.8"/>
      </g>
     </g>
     <g id="text_2">
      <!-- 250 -->
      <g transform="translate(116.037026 202.364585)scale(0.1 -0.1)">
       <defs>
        <path id="DejaVuSans-35" d="M 691 4666 
L 3169 4666 
L 3169 4134 
L 1269 4134 
L 1269 2991 
Q 1406 3038 1543 3061 
Q 1681 3084 1819 3084 
Q 2600 3084 3056 2656 
Q 3513 2228 3513 1497 
Q 3513 744 3044 326 
Q 2575 -91 1722 -91 
Q 1428 -91 1123 -41 
Q 819 9 494 109 
L 494 744 
Q 775 591 1075 516 
Q 1375 441 1709 441 
Q 2250 441 2565 725 
Q 2881 1009 2881 1497 
Q 2881 1984 2565 2268 
Q 2250 2553 1709 2553 
Q 1456 2553 1204 2497 
Q 953 2441 691 2322 
L 691 4666 
z
" transform="scale(0.015625)"/>
       </defs>
       <use xlink:href="#DejaVuSans-32"/>
       <use xlink:href="#DejaVuSans-35" x="63.623047"/>
       <use xlink:href="#DejaVuSans-30" x="127.246094"/>
      </g>
     </g>
    </g>
    <g id="xtick_3">
     <g id="line2d_3">
      <g>
       <use xlink:href="#m8cfffa6b12" x="166.696566" y="187.766148" style="stroke: #000000; stroke-width: 0.8"/>
      </g>
     </g>
     <g id="text_3">
      <!-- 300 -->
      <g transform="translate(157.152816 202.364585)scale(0.1 -0.1)">
       <defs>
        <path id="DejaVuSans-33" d="M 2597 2516 
Q 3050 2419 3304 2112 
Q 3559 1806 3559 1356 
Q 3559 666 3084 287 
Q 2609 -91 1734 -91 
Q 1441 -91 1130 -33 
Q 819 25 488 141 
L 488 750 
Q 750 597 1062 519 
Q 1375 441 1716 441 
Q 2309 441 2620 675 
Q 2931 909 2931 1356 
Q 2931 1769 2642 2001 
Q 2353 2234 1838 2234 
L 1294 2234 
L 1294 2753 
L 1863 2753 
Q 2328 2753 2575 2939 
Q 2822 3125 2822 3475 
Q 2822 3834 2567 4026 
Q 2313 4219 1838 4219 
Q 1578 4219 1281 4162 
Q 984 4106 628 3988 
L 628 4550 
Q 988 4650 1302 4700 
Q 1616 4750 1894 4750 
Q 2613 4750 3031 4423 
Q 3450 4097 3450 3541 
Q 3450 3153 3228 2886 
Q 3006 2619 2597 2516 
z
" transform="scale(0.015625)"/>
       </defs>
       <use xlink:href="#DejaVuSans-33"/>
       <use xlink:href="#DejaVuSans-30" x="63.623047"/>
       <use xlink:href="#DejaVuSans-30" x="127.246094"/>
      </g>
     </g>
    </g>
    <g id="xtick_4">
     <g id="line2d_4">
      <g>
       <use xlink:href="#m8cfffa6b12" x="207.812355" y="187.766148" style="stroke: #000000; stroke-width: 0.8"/>
      </g>
     </g>
     <g id="text_4">
      <!-- 350 -->
      <g transform="translate(198.268605 202.364585)scale(0.1 -0.1)">
       <use xlink:href="#DejaVuSans-33"/>
       <use xlink:href="#DejaVuSans-35" x="63.623047"/>
       <use xlink:href="#DejaVuSans-30" x="127.246094"/>
      </g>
     </g>
    </g>
    <g id="xtick_5">
     <g id="line2d_5">
      <g>
       <use xlink:href="#m8cfffa6b12" x="248.928145" y="187.766148" style="stroke: #000000; stroke-width: 0.8"/>
      </g>
     </g>
     <g id="text_5">
      <!-- 400 -->
      <g transform="translate(239.384395 202.364585)scale(0.1 -0.1)">
       <defs>
        <path id="DejaVuSans-34" d="M 2419 4116 
L 825 1625 
L 2419 1625 
L 2419 4116 
z
M 2253 4666 
L 3047 4666 
L 3047 1625 
L 3713 1625 
L 3713 1100 
L 3047 1100 
L 3047 0 
L 2419 0 
L 2419 1100 
L 313 1100 
L 313 1709 
L 2253 4666 
z
" transform="scale(0.015625)"/>
       </defs>
       <use xlink:href="#DejaVuSans-34"/>
       <use xlink:href="#DejaVuSans-30" x="63.623047"/>
       <use xlink:href="#DejaVuSans-30" x="127.246094"/>
      </g>
     </g>
    </g>
    <g id="xtick_6">
     <g id="line2d_6">
      <g>
       <use xlink:href="#m8cfffa6b12" x="290.043934" y="187.766148" style="stroke: #000000; stroke-width: 0.8"/>
      </g>
     </g>
     <g id="text_6">
      <!-- 450 -->
      <g transform="translate(280.500184 202.364585)scale(0.1 -0.1)">
       <use xlink:href="#DejaVuSans-34"/>
       <use xlink:href="#DejaVuSans-35" x="63.623047"/>
       <use xlink:href="#DejaVuSans-30" x="127.246094"/>
      </g>
     </g>
    </g>
    <g id="xtick_7">
     <g id="line2d_7">
      <g>
       <use xlink:href="#m8cfffa6b12" x="331.159724" y="187.766148" style="stroke: #000000; stroke-width: 0.8"/>
      </g>
     </g>
     <g id="text_7">
      <!-- 500 -->
      <g transform="translate(321.615974 202.364585)scale(0.1 -0.1)">
       <use xlink:href="#DejaVuSans-35"/>
       <use xlink:href="#DejaVuSans-30" x="63.623047"/>
       <use xlink:href="#DejaVuSans-30" x="127.246094"/>
      </g>
     </g>
    </g>
    <g id="text_8">
     <!-- k -->
     <g transform="translate(209.850938 216.04271)scale(0.1 -0.1)">
      <defs>
       <path id="DejaVuSans-6b" d="M 581 4863 
L 1159 4863 
L 1159 1991 
L 2875 3500 
L 3609 3500 
L 1753 1863 
L 3688 0 
L 2938 0 
L 1159 1709 
L 1159 0 
L 581 0 
L 581 4863 
z
" transform="scale(0.015625)"/>
      </defs>
      <use xlink:href="#DejaVuSans-6b"/>
     </g>
    </g>
   </g>
   <g id="matplotlib.axis_2">
    <g id="ytick_1">
     <g id="line2d_8">
      <defs>
       <path id="mc1f7f744b2" d="M 0 0 
L -3.5 0 
" style="stroke: #000000; stroke-width: 0.8"/>
      </defs>
      <g>
       <use xlink:href="#mc1f7f744b2" x="56.50625" y="179.702148" style="stroke: #000000; stroke-width: 0.8"/>
      </g>
     </g>
     <g id="text_9">
      <!-- 0.000 -->
      <g transform="translate(20.878125 183.501366)scale(0.1 -0.1)">
       <defs>
        <path id="DejaVuSans-2e" d="M 684 794 
L 1344 794 
L 1344 0 
L 684 0 
L 684 794 
z
" transform="scale(0.015625)"/>
       </defs>
       <use xlink:href="#DejaVuSans-30"/>
       <use xlink:href="#DejaVuSans-2e" x="63.623047"/>
       <use xlink:href="#DejaVuSans-30" x="95.410156"/>
       <use xlink:href="#DejaVuSans-30" x="159.033203"/>
       <use xlink:href="#DejaVuSans-30" x="222.65625"/>
      </g>
     </g>
    </g>
    <g id="ytick_2">
     <g id="line2d_9">
      <g>
       <use xlink:href="#mc1f7f744b2" x="56.50625" y="145.961562" style="stroke: #000000; stroke-width: 0.8"/>
      </g>
     </g>
     <g id="text_10">
      <!-- 0.005 -->
      <g transform="translate(20.878125 149.760781)scale(0.1 -0.1)">
       <use xlink:href="#DejaVuSans-30"/>
       <use xlink:href="#DejaVuSans-2e" x="63.623047"/>
       <use xlink:href="#DejaVuSans-30" x="95.410156"/>
       <use xlink:href="#DejaVuSans-30" x="159.033203"/>
       <use xlink:href="#DejaVuSans-35" x="222.65625"/>
      </g>
     </g>
    </g>
    <g id="ytick_3">
     <g id="line2d_10">
      <g>
       <use xlink:href="#mc1f7f744b2" x="56.50625" y="112.220976" style="stroke: #000000; stroke-width: 0.8"/>
      </g>
     </g>
     <g id="text_11">
      <!-- 0.010 -->
      <g transform="translate(20.878125 116.020195)scale(0.1 -0.1)">
       <defs>
        <path id="DejaVuSans-31" d="M 794 531 
L 1825 531 
L 1825 4091 
L 703 3866 
L 703 4441 
L 1819 4666 
L 2450 4666 
L 2450 531 
L 3481 531 
L 3481 0 
L 794 0 
L 794 531 
z
" transform="scale(0.015625)"/>
       </defs>
       <use xlink:href="#DejaVuSans-30"/>
       <use xlink:href="#DejaVuSans-2e" x="63.623047"/>
       <use xlink:href="#DejaVuSans-30" x="95.410156"/>
       <use xlink:href="#DejaVuSans-31" x="159.033203"/>
       <use xlink:href="#DejaVuSans-30" x="222.65625"/>
      </g>
     </g>
    </g>
    <g id="ytick_4">
     <g id="line2d_11">
      <g>
       <use xlink:href="#mc1f7f744b2" x="56.50625" y="78.48039" style="stroke: #000000; stroke-width: 0.8"/>
      </g>
     </g>
     <g id="text_12">
      <!-- 0.015 -->
      <g transform="translate(20.878125 82.279609)scale(0.1 -0.1)">
       <use xlink:href="#DejaVuSans-30"/>
       <use xlink:href="#DejaVuSans-2e" x="63.623047"/>
       <use xlink:href="#DejaVuSans-30" x="95.410156"/>
       <use xlink:href="#DejaVuSans-31" x="159.033203"/>
       <use xlink:href="#DejaVuSans-35" x="222.65625"/>
      </g>
     </g>
    </g>
    <g id="ytick_5">
     <g id="line2d_12">
      <g>
       <use xlink:href="#mc1f7f744b2" x="56.50625" y="44.739805" style="stroke: #000000; stroke-width: 0.8"/>
      </g>
     </g>
     <g id="text_13">
      <!-- 0.020 -->
      <g transform="translate(20.878125 48.539023)scale(0.1 -0.1)">
       <use xlink:href="#DejaVuSans-30"/>
       <use xlink:href="#DejaVuSans-2e" x="63.623047"/>
       <use xlink:href="#DejaVuSans-30" x="95.410156"/>
       <use xlink:href="#DejaVuSans-32" x="159.033203"/>
       <use xlink:href="#DejaVuSans-30" x="222.65625"/>
      </g>
     </g>
    </g>
    <g id="ytick_6">
     <g id="line2d_13">
      <g>
       <use xlink:href="#mc1f7f744b2" x="56.50625" y="10.999219" style="stroke: #000000; stroke-width: 0.8"/>
      </g>
     </g>
     <g id="text_14">
      <!-- 0.025 -->
      <g transform="translate(20.878125 14.798438)scale(0.1 -0.1)">
       <use xlink:href="#DejaVuSans-30"/>
       <use xlink:href="#DejaVuSans-2e" x="63.623047"/>
       <use xlink:href="#DejaVuSans-30" x="95.410156"/>
       <use xlink:href="#DejaVuSans-32" x="159.033203"/>
       <use xlink:href="#DejaVuSans-35" x="222.65625"/>
      </g>
     </g>
    </g>
    <g id="text_15">
     <!-- PMF -->
     <g transform="translate(14.798438 109.266835)rotate(-90)scale(0.1 -0.1)">
      <defs>
       <path id="DejaVuSans-50" d="M 1259 4147 
L 1259 2394 
L 2053 2394 
Q 2494 2394 2734 2622 
Q 2975 2850 2975 3272 
Q 2975 3691 2734 3919 
Q 2494 4147 2053 4147 
L 1259 4147 
z
M 628 4666 
L 2053 4666 
Q 2838 4666 3239 4311 
Q 3641 3956 3641 3272 
Q 3641 2581 3239 2228 
Q 2838 1875 2053 1875 
L 1259 1875 
L 1259 0 
L 628 0 
L 628 4666 
z
" transform="scale(0.015625)"/>
       <path id="DejaVuSans-4d" d="M 628 4666 
L 1569 4666 
L 2759 1491 
L 3956 4666 
L 4897 4666 
L 4897 0 
L 4281 0 
L 4281 4097 
L 3078 897 
L 2444 897 
L 1241 4097 
L 1241 0 
L 628 0 
L 628 4666 
z
" transform="scale(0.015625)"/>
       <path id="DejaVuSans-46" d="M 628 4666 
L 3309 4666 
L 3309 4134 
L 1259 4134 
L 1259 2759 
L 3109 2759 
L 3109 2228 
L 1259 2228 
L 1259 0 
L 628 0 
L 628 4666 
z
" transform="scale(0.015625)"/>
      </defs>
      <use xlink:href="#DejaVuSans-50"/>
      <use xlink:href="#DejaVuSans-4d" x="60.302734"/>
      <use xlink:href="#DejaVuSans-46" x="146.582031"/>
     </g>
    </g>
   </g>
   <g id="line2d_14">
    <path d="M -1 179.702148 
L 57.328566 179.702148 
L 58.150882 179.027336 
L 59.795513 179.027336 
L 60.617829 178.352524 
L 61.440145 179.702148 
L 62.262461 178.352524 
L 63.084776 179.702148 
L 65.551724 177.677712 
L 67.196355 179.027336 
L 68.018671 178.352524 
L 68.840987 176.328089 
L 69.663303 178.352524 
L 70.485618 172.95403 
L 71.307934 178.352524 
L 72.13025 177.002901 
L 72.952566 172.95403 
L 73.774882 177.002901 
L 74.597197 173.628842 
L 75.419513 175.653277 
L 76.241829 172.279219 
L 77.886461 162.831855 
L 78.708776 172.279219 
L 79.531092 164.181478 
L 80.353408 160.132608 
L 81.175724 165.531102 
L 81.998039 158.782984 
L 82.820355 163.506666 
L 83.642671 154.059302 
L 84.464987 153.384491 
L 85.287303 151.360056 
L 86.109618 150.685244 
L 86.931934 141.23788 
L 87.75425 150.010432 
L 88.576566 131.790516 
L 89.398882 134.489763 
L 90.221197 133.814951 
L 91.043513 123.017964 
L 91.865829 127.741646 
L 92.688145 127.066834 
L 93.510461 121.66834 
L 94.332776 112.220976 
L 95.155092 100.074365 
L 95.977408 103.448424 
L 96.799724 102.0988 
L 97.622039 92.651436 
L 98.444355 89.952189 
L 99.266671 94.675871 
L 100.088987 64.984156 
L 100.911303 77.130767 
L 101.733618 67.683403 
L 102.555934 47.439051 
L 103.37825 60.935286 
L 104.200566 60.935286 
L 105.022882 48.788675 
L 105.845197 67.008591 
L 106.667513 56.886415 
L 107.489829 40.690934 
L 108.312145 48.788675 
L 109.134461 44.064993 
L 109.956776 49.463487 
L 110.779092 27.869512 
L 111.601408 43.390181 
L 112.423724 33.268005 
L 113.246039 41.365746 
L 114.068355 48.113863 
L 114.890671 34.617629 
L 115.712987 18.422148 
L 116.535303 33.268005 
L 117.357618 56.886415 
L 118.179934 44.739805 
L 119.00225 50.138298 
L 119.824566 78.48039 
L 120.646882 40.690934 
L 121.469197 62.959721 
L 122.291513 79.830014 
L 123.113829 66.333779 
L 123.936145 69.033026 
L 124.758461 73.081897 
L 125.580776 81.179637 
L 126.403092 80.504825 
L 127.225408 94.00106 
L 128.047724 83.204072 
L 128.870039 103.448424 
L 129.692355 101.423989 
L 130.514671 100.749177 
L 131.336987 120.993528 
L 132.159303 113.5706 
L 132.981618 127.066834 
L 133.803934 116.269846 
L 134.62625 133.140139 
L 135.448566 125.71721 
L 136.270882 129.091269 
L 137.093197 126.392022 
L 137.915513 143.937127 
L 138.737829 145.961562 
L 139.560145 143.937127 
L 140.382461 139.888256 
L 141.204776 145.961562 
L 142.027092 153.384491 
L 142.849408 152.709679 
L 143.671724 150.685244 
L 144.494039 155.408926 
L 145.316355 156.758549 
L 146.138671 163.506666 
L 146.960987 166.205913 
L 147.783303 164.181478 
L 148.605618 161.482231 
L 149.427934 168.230348 
L 150.25025 167.555537 
L 151.072566 171.604407 
L 151.894882 168.90516 
L 152.717197 168.90516 
L 153.539513 174.978466 
L 154.361829 172.279219 
L 155.184145 176.328089 
L 156.006461 177.002901 
L 156.828776 174.303654 
L 157.651092 176.328089 
L 158.473408 173.628842 
L 159.295724 177.002901 
L 160.118039 179.027336 
L 160.940355 174.303654 
L 162.584987 178.352524 
L 163.407303 177.677712 
L 165.051934 179.027336 
L 165.87425 179.027336 
L 166.696566 177.002901 
L 167.518882 179.702148 
L 172.452776 179.702148 
L 173.275092 179.027336 
L 173.275092 179.027336 
" clip-path="url(#p39fd76ac29)" style="fill: none; stroke: #ff7f0e; stroke-opacity: 0.5; stroke-width: 1.5; stroke-linecap: square"/>
   </g>
   <g id="line2d_15">
    <path d="M 55.683934 179.57003 
L 59.795513 179.333591 
L 63.084776 178.919753 
L 65.551724 178.378027 
L 67.196355 177.855026 
L 68.840987 177.16142 
L 70.485618 176.255427 
L 72.13025 175.08974 
L 73.774882 173.612264 
L 75.419513 171.767381 
L 77.064145 169.497798 
L 78.708776 166.746984 
L 80.353408 163.462177 
L 81.998039 159.597842 
L 83.642671 155.119458 
L 85.287303 150.007407 
L 86.931934 144.260722 
L 88.576566 137.900394 
L 91.043513 127.316044 
L 93.510461 115.723724 
L 101.733618 75.647827 
L 103.37825 68.649267 
L 105.022882 62.407968 
L 106.667513 57.083714 
L 108.312145 52.813616 
L 109.134461 51.109037 
L 109.956776 49.706184 
L 110.779092 48.613402 
L 111.601408 47.836768 
L 112.423724 47.380036 
L 113.246039 47.244616 
L 114.068355 47.429581 
L 114.890671 47.931701 
L 115.712987 48.745503 
L 116.535303 49.863359 
L 117.357618 51.275599 
L 118.179934 52.970638 
L 119.824566 57.154148 
L 121.469197 62.289155 
L 123.113829 68.231535 
L 125.580776 78.31344 
L 128.870039 93.079832 
L 134.62625 119.178948 
L 137.093197 129.411131 
L 139.560145 138.678829 
L 142.027092 146.841881 
L 143.671724 151.641086 
L 145.316355 155.927303 
L 146.960987 159.715155 
L 148.605618 163.028587 
L 150.25025 165.898469 
L 151.894882 168.360381 
L 153.539513 170.452626 
L 155.184145 172.214536 
L 156.828776 173.68508 
L 158.473408 174.901765 
L 160.118039 175.899839 
L 162.584987 177.057167 
L 165.051934 177.89102 
L 167.518882 178.481118 
L 170.808145 178.997297 
L 174.919724 179.360548 
L 180.675934 179.586418 
L 190.543724 179.687013 
L 231.659513 179.702147 
L 369.808566 179.702148 
L 369.808566 179.702148 
" clip-path="url(#p39fd76ac29)" style="fill: none; stroke-dasharray: 5.55,2.4; stroke-dashoffset: 0; stroke: #000000; stroke-width: 1.5"/>
   </g>
   <g id="line2d_16">
    <path d="M 55.683934 179.702148 
L 253.039724 179.600926 
L 257.973618 179.40523 
L 262.085197 178.993595 
L 264.552145 178.554968 
L 267.019092 177.886904 
L 269.486039 176.901679 
L 271.130671 176.010928 
L 272.775303 174.897488 
L 274.419934 173.500628 
L 276.064566 171.793354 
L 277.709197 169.714934 
L 279.353829 167.218131 
L 280.998461 164.262456 
L 282.643092 160.793923 
L 284.287724 156.79229 
L 285.932355 152.223815 
L 287.576987 147.081749 
L 289.221618 141.372842 
L 291.688566 131.783768 
L 294.155513 121.141987 
L 297.444776 105.823761 
L 302.378671 82.515764 
L 304.845618 71.873984 
L 306.49025 65.54425 
L 308.134882 60.010794 
L 309.779513 55.415326 
L 311.424145 51.879312 
L 312.246461 50.549933 
L 313.068776 49.517471 
L 313.891092 48.781927 
L 314.713408 48.363543 
L 315.535724 48.255574 
L 316.358039 48.464765 
L 317.180355 48.977622 
L 318.002671 49.800892 
L 318.824987 50.927828 
L 319.647303 52.344933 
L 320.469618 54.03871 
L 322.11425 58.229291 
L 323.758882 63.378104 
L 325.403513 69.34344 
L 327.870461 79.499356 
L 331.159724 94.405947 
L 336.915934 120.818077 
L 339.382882 131.154168 
L 341.849829 140.48479 
L 344.316776 148.658109 
L 345.961408 153.433752 
L 347.606039 157.672244 
L 349.250671 161.390457 
L 350.895303 164.616732 
L 352.539934 167.384135 
L 354.184566 169.73113 
L 355.829197 171.70266 
L 357.473829 173.34009 
L 359.118461 174.686407 
L 360.763092 175.782099 
L 362.407724 176.664955 
L 364.874671 177.664216 
L 367.341618 178.360959 
L 369.808566 178.836351 
L 369.808566 178.836351 
" clip-path="url(#p39fd76ac29)" style="fill: none; stroke-dasharray: 9.6,2.4,1.5,2.4; stroke-dashoffset: 0; stroke: #d62728; stroke-width: 1.5"/>
   </g>
   <g id="line2d_17">
    <path d="M 55.683934 178.372769 
L 57.328566 177.772186 
L 58.973197 176.948916 
L 60.617829 175.835476 
L 62.262461 174.371135 
L 63.907092 172.461418 
L 65.551724 170.032096 
L 67.196355 166.981947 
L 68.840987 163.223246 
L 70.485618 158.681763 
L 72.13025 153.290017 
L 73.774882 147.021016 
L 75.419513 139.84102 
L 77.064145 131.804012 
L 79.531092 118.274037 
L 82.820355 98.232129 
L 87.75425 67.460715 
L 90.221197 53.795778 
L 91.865829 45.981458 
L 93.510461 39.516762 
L 94.332776 36.851256 
L 95.155092 34.597384 
L 95.977408 32.782141 
L 96.799724 31.412273 
L 97.622039 30.487781 
L 98.444355 30.035657 
L 99.266671 30.042405 
L 100.088987 30.501277 
L 100.911303 31.432517 
L 101.733618 32.788889 
L 102.555934 34.583888 
L 103.37825 36.783774 
L 105.022882 42.330727 
L 106.667513 49.220554 
L 108.312145 57.217073 
L 110.779092 70.699811 
L 119.824566 122.540872 
L 122.291513 134.459396 
L 123.936145 141.505105 
L 125.580776 147.795025 
L 127.225408 153.327132 
L 128.870039 158.126393 
L 130.514671 162.233297 
L 132.159303 165.702504 
L 133.803934 168.595422 
L 135.448566 170.979329 
L 137.093197 172.91921 
L 138.737829 174.479442 
L 140.382461 175.719949 
L 142.027092 176.695119 
L 143.671724 177.45327 
L 146.138671 178.273369 
L 148.605618 178.813441 
L 151.894882 179.245381 
L 156.006461 179.513329 
L 162.584987 179.661245 
L 179.031303 179.701657 
L 369.808566 179.702148 
L 369.808566 179.702148 
" clip-path="url(#p39fd76ac29)" style="fill: none; stroke-dasharray: 7.5,1.5; stroke-dashoffset: 0; stroke: #9467bd; stroke-width: 1.5"/>
   </g>
   <g id="patch_3">
    <path d="M 56.50625 187.766148 
L 56.50625 10.358148 
" style="fill: none; stroke: #000000; stroke-width: 0.8; stroke-linejoin: miter; stroke-linecap: square"/>
   </g>
   <g id="patch_4">
    <path d="M 368.98625 187.766148 
L 368.98625 10.358148 
" style="fill: none; stroke: #000000; stroke-width: 0.8; stroke-linejoin: miter; stroke-linecap: square"/>
   </g>
   <g id="patch_5">
    <path d="M 56.50625 187.766148 
L 368.98625 187.766148 
" style="fill: none; stroke: #000000; stroke-width: 0.8; stroke-linejoin: miter; stroke-linecap: square"/>
   </g>
   <g id="patch_6">
    <path d="M 56.50625 10.358148 
L 368.98625 10.358148 
" style="fill: none; stroke: #000000; stroke-width: 0.8; stroke-linejoin: miter; stroke-linecap: square"/>
   </g>
   <g id="legend_1">
    <g id="patch_7">
     <path d="M 162.436094 77.070648 
L 263.056406 77.070648 
Q 265.056406 77.070648 265.056406 75.070648 
L 265.056406 17.358148 
Q 265.056406 15.358148 263.056406 15.358148 
L 162.436094 15.358148 
Q 160.436094 15.358148 160.436094 17.358148 
L 160.436094 75.070648 
Q 160.436094 77.070648 162.436094 77.070648 
z
" style="fill: #ffffff; opacity: 0.8; stroke: #cccccc; stroke-linejoin: miter"/>
    </g>
    <g id="line2d_18">
     <path d="M 164.436094 23.456585 
L 174.436094 23.456585 
L 184.436094 23.456585 
" style="fill: none; stroke: #ff7f0e; stroke-opacity: 0.5; stroke-width: 1.5; stroke-linecap: square"/>
    </g>
    <g id="text_16">
     <!-- Gold -->
     <g transform="translate(192.436094 26.956585)scale(0.1 -0.1)">
      <defs>
       <path id="DejaVuSans-47" d="M 3809 666 
L 3809 1919 
L 2778 1919 
L 2778 2438 
L 4434 2438 
L 4434 434 
Q 4069 175 3628 42 
Q 3188 -91 2688 -91 
Q 1594 -91 976 548 
Q 359 1188 359 2328 
Q 359 3472 976 4111 
Q 1594 4750 2688 4750 
Q 3144 4750 3555 4637 
Q 3966 4525 4313 4306 
L 4313 3634 
Q 3963 3931 3569 4081 
Q 3175 4231 2741 4231 
Q 1884 4231 1454 3753 
Q 1025 3275 1025 2328 
Q 1025 1384 1454 906 
Q 1884 428 2741 428 
Q 3075 428 3337 486 
Q 3600 544 3809 666 
z
" transform="scale(0.015625)"/>
       <path id="DejaVuSans-6f" d="M 1959 3097 
Q 1497 3097 1228 2736 
Q 959 2375 959 1747 
Q 959 1119 1226 758 
Q 1494 397 1959 397 
Q 2419 397 2687 759 
Q 2956 1122 2956 1747 
Q 2956 2369 2687 2733 
Q 2419 3097 1959 3097 
z
M 1959 3584 
Q 2709 3584 3137 3096 
Q 3566 2609 3566 1747 
Q 3566 888 3137 398 
Q 2709 -91 1959 -91 
Q 1206 -91 779 398 
Q 353 888 353 1747 
Q 353 2609 779 3096 
Q 1206 3584 1959 3584 
z
" transform="scale(0.015625)"/>
       <path id="DejaVuSans-6c" d="M 603 4863 
L 1178 4863 
L 1178 0 
L 603 0 
L 603 4863 
z
" transform="scale(0.015625)"/>
       <path id="DejaVuSans-64" d="M 2906 2969 
L 2906 4863 
L 3481 4863 
L 3481 0 
L 2906 0 
L 2906 525 
Q 2725 213 2448 61 
Q 2172 -91 1784 -91 
Q 1150 -91 751 415 
Q 353 922 353 1747 
Q 353 2572 751 3078 
Q 1150 3584 1784 3584 
Q 2172 3584 2448 3432 
Q 2725 3281 2906 2969 
z
M 947 1747 
Q 947 1113 1208 752 
Q 1469 391 1925 391 
Q 2381 391 2643 752 
Q 2906 1113 2906 1747 
Q 2906 2381 2643 2742 
Q 2381 3103 1925 3103 
Q 1469 3103 1208 2742 
Q 947 2381 947 1747 
z
" transform="scale(0.015625)"/>
      </defs>
      <use xlink:href="#DejaVuSans-47"/>
      <use xlink:href="#DejaVuSans-6f" x="77.490234"/>
      <use xlink:href="#DejaVuSans-6c" x="138.671875"/>
      <use xlink:href="#DejaVuSans-64" x="166.455078"/>
     </g>
    </g>
    <g id="line2d_19">
     <path d="M 164.436094 38.13471 
L 174.436094 38.13471 
L 184.436094 38.13471 
" style="fill: none; stroke-dasharray: 5.55,2.4; stroke-dashoffset: 0; stroke: #000000; stroke-width: 1.5"/>
    </g>
    <g id="text_17">
     <!-- MCDP -->
     <g transform="translate(192.436094 41.63471)scale(0.1 -0.1)">
      <defs>
       <path id="DejaVuSans-43" d="M 4122 4306 
L 4122 3641 
Q 3803 3938 3442 4084 
Q 3081 4231 2675 4231 
Q 1875 4231 1450 3742 
Q 1025 3253 1025 2328 
Q 1025 1406 1450 917 
Q 1875 428 2675 428 
Q 3081 428 3442 575 
Q 3803 722 4122 1019 
L 4122 359 
Q 3791 134 3420 21 
Q 3050 -91 2638 -91 
Q 1578 -91 968 557 
Q 359 1206 359 2328 
Q 359 3453 968 4101 
Q 1578 4750 2638 4750 
Q 3056 4750 3426 4639 
Q 3797 4528 4122 4306 
z
" transform="scale(0.015625)"/>
       <path id="DejaVuSans-44" d="M 1259 4147 
L 1259 519 
L 2022 519 
Q 2988 519 3436 956 
Q 3884 1394 3884 2338 
Q 3884 3275 3436 3711 
Q 2988 4147 2022 4147 
L 1259 4147 
z
M 628 4666 
L 1925 4666 
Q 3281 4666 3915 4102 
Q 4550 3538 4550 2338 
Q 4550 1131 3912 565 
Q 3275 0 1925 0 
L 628 0 
L 628 4666 
z
" transform="scale(0.015625)"/>
      </defs>
      <use xlink:href="#DejaVuSans-4d"/>
      <use xlink:href="#DejaVuSans-43" x="86.279297"/>
      <use xlink:href="#DejaVuSans-44" x="156.103516"/>
      <use xlink:href="#DejaVuSans-50" x="233.105469"/>
     </g>
    </g>
    <g id="line2d_20">
     <path d="M 164.436094 52.812835 
L 174.436094 52.812835 
L 184.436094 52.812835 
" style="fill: none; stroke-dasharray: 9.6,2.4,1.5,2.4; stroke-dashoffset: 0; stroke: #d62728; stroke-width: 1.5"/>
    </g>
    <g id="text_18">
     <!-- SBDP (ν=10⁴) -->
     <g transform="translate(192.436094 56.312835)scale(0.1 -0.1)">
      <defs>
       <path id="DejaVuSans-53" d="M 3425 4513 
L 3425 3897 
Q 3066 4069 2747 4153 
Q 2428 4238 2131 4238 
Q 1616 4238 1336 4038 
Q 1056 3838 1056 3469 
Q 1056 3159 1242 3001 
Q 1428 2844 1947 2747 
L 2328 2669 
Q 3034 2534 3370 2195 
Q 3706 1856 3706 1288 
Q 3706 609 3251 259 
Q 2797 -91 1919 -91 
Q 1588 -91 1214 -16 
Q 841 59 441 206 
L 441 856 
Q 825 641 1194 531 
Q 1563 422 1919 422 
Q 2459 422 2753 634 
Q 3047 847 3047 1241 
Q 3047 1584 2836 1778 
Q 2625 1972 2144 2069 
L 1759 2144 
Q 1053 2284 737 2584 
Q 422 2884 422 3419 
Q 422 4038 858 4394 
Q 1294 4750 2059 4750 
Q 2388 4750 2728 4690 
Q 3069 4631 3425 4513 
z
" transform="scale(0.015625)"/>
       <path id="DejaVuSans-42" d="M 1259 2228 
L 1259 519 
L 2272 519 
Q 2781 519 3026 730 
Q 3272 941 3272 1375 
Q 3272 1813 3026 2020 
Q 2781 2228 2272 2228 
L 1259 2228 
z
M 1259 4147 
L 1259 2741 
L 2194 2741 
Q 2656 2741 2882 2914 
Q 3109 3088 3109 3444 
Q 3109 3797 2882 3972 
Q 2656 4147 2194 4147 
L 1259 4147 
z
M 628 4666 
L 2241 4666 
Q 2963 4666 3353 4366 
Q 3744 4066 3744 3513 
Q 3744 3084 3544 2831 
Q 3344 2578 2956 2516 
Q 3422 2416 3680 2098 
Q 3938 1781 3938 1306 
Q 3938 681 3513 340 
Q 3088 0 2303 0 
L 628 0 
L 628 4666 
z
" transform="scale(0.015625)"/>
       <path id="DejaVuSans-20" transform="scale(0.015625)"/>
       <path id="DejaVuSans-28" d="M 1984 4856 
Q 1566 4138 1362 3434 
Q 1159 2731 1159 2009 
Q 1159 1288 1364 580 
Q 1569 -128 1984 -844 
L 1484 -844 
Q 1016 -109 783 600 
Q 550 1309 550 2009 
Q 550 2706 781 3412 
Q 1013 4119 1484 4856 
L 1984 4856 
z
" transform="scale(0.015625)"/>
       <path id="DejaVuSans-3bd" d="M 1300 0 
L 231 3500 
L 850 3500 
L 1753 563 
Q 2128 950 2441 1488 
Q 2678 1891 2691 2241 
Q 2697 2406 2622 2719 
Q 2534 3091 2203 3500 
L 2784 3500 
L 2784 3500 
Q 3000 3222 3144 2834 
Q 3275 2478 3275 2234 
Q 3275 1622 2850 1075 
Q 2297 363 1913 0 
L 1300 0 
z
" transform="scale(0.015625)"/>
       <path id="DejaVuSans-3d" d="M 678 2906 
L 4684 2906 
L 4684 2381 
L 678 2381 
L 678 2906 
z
M 678 1631 
L 4684 1631 
L 4684 1100 
L 678 1100 
L 678 1631 
z
" transform="scale(0.015625)"/>
       <path id="DejaVuSans-2074" d="M 1491 4319 
L 525 3009 
L 1491 3009 
L 1491 4319 
z
M 1422 4697 
L 1941 4697 
L 1941 3009 
L 2363 3009 
L 2363 2669 
L 1941 2669 
L 1941 2088 
L 1491 2088 
L 1491 2669 
L 197 2669 
L 197 3047 
L 1422 4697 
z
" transform="scale(0.015625)"/>
       <path id="DejaVuSans-29" d="M 513 4856 
L 1013 4856 
Q 1481 4119 1714 3412 
Q 1947 2706 1947 2009 
Q 1947 1309 1714 600 
Q 1481 -109 1013 -844 
L 513 -844 
Q 928 -128 1133 580 
Q 1338 1288 1338 2009 
Q 1338 2731 1133 3434 
Q 928 4138 513 4856 
z
" transform="scale(0.015625)"/>
      </defs>
      <use xlink:href="#DejaVuSans-53"/>
      <use xlink:href="#DejaVuSans-42" x="63.476562"/>
      <use xlink:href="#DejaVuSans-44" x="132.080078"/>
      <use xlink:href="#DejaVuSans-50" x="209.082031"/>
      <use xlink:href="#DejaVuSans-20" x="269.384766"/>
      <use xlink:href="#DejaVuSans-28" x="301.171875"/>
      <use xlink:href="#DejaVuSans-3bd" x="340.185547"/>
      <use xlink:href="#DejaVuSans-3d" x="396.044922"/>
      <use xlink:href="#DejaVuSans-31" x="479.833984"/>
      <use xlink:href="#DejaVuSans-30" x="543.457031"/>
      <use xlink:href="#DejaVuSans-2074" x="607.080078"/>
      <use xlink:href="#DejaVuSans-29" x="647.167969"/>
     </g>
    </g>
    <g id="line2d_21">
     <path d="M 164.436094 67.49096 
L 174.436094 67.49096 
L 184.436094 67.49096 
" style="fill: none; stroke-dasharray: 7.5,1.5; stroke-dashoffset: 0; stroke: #9467bd; stroke-width: 1.5"/>
    </g>
    <g id="text_19">
     <!-- SBDP (ν=10³) -->
     <g transform="translate(192.436094 70.99096)scale(0.1 -0.1)">
      <defs>
       <path id="DejaVuSans-b3" d="M 1638 3500 
Q 1925 3444 2083 3273 
Q 2241 3103 2241 2847 
Q 2241 2459 1944 2250 
Q 1647 2041 1094 2041 
Q 916 2041 720 2073 
Q 525 2106 306 2169 
L 306 2547 
Q 469 2463 655 2422 
Q 841 2381 1050 2381 
Q 1391 2381 1578 2504 
Q 1766 2628 1766 2847 
Q 1766 3078 1592 3197 
Q 1419 3316 1081 3316 
L 813 3316 
L 813 3653 
L 1106 3653 
Q 1400 3653 1551 3751 
Q 1703 3850 1703 4038 
Q 1703 4219 1547 4314 
Q 1391 4409 1094 4409 
Q 969 4409 809 4381 
Q 650 4353 397 4281 
L 397 4641 
Q 625 4694 825 4722 
Q 1025 4750 1197 4750 
Q 1647 4750 1911 4565 
Q 2175 4381 2175 4072 
Q 2175 3856 2034 3706 
Q 1894 3556 1638 3500 
z
" transform="scale(0.015625)"/>
      </defs>
      <use xlink:href="#DejaVuSans-53"/>
      <use xlink:href="#DejaVuSans-42" x="63.476562"/>
      <use xlink:href="#DejaVuSans-44" x="132.080078"/>
      <use xlink:href="#DejaVuSans-50" x="209.082031"/>
      <use xlink:href="#DejaVuSans-20" x="269.384766"/>
      <use xlink:href="#DejaVuSans-28" x="301.171875"/>
      <use xlink:href="#DejaVuSans-3bd" x="340.185547"/>
      <use xlink:href="#DejaVuSans-3d" x="396.044922"/>
      <use xlink:href="#DejaVuSans-31" x="479.833984"/>
      <use xlink:href="#DejaVuSans-30" x="543.457031"/>
      <use xlink:href="#DejaVuSans-b3" x="607.080078"/>
      <use xlink:href="#DejaVuSans-29" x="647.167969"/>
     </g>
    </g>
   </g>
  </g>
 </g>
 <defs>
  <clipPath id="p39fd76ac29">
   <rect x="56.50625" y="10.358148" width="312.48" height="177.408"/>
  </clipPath>
 </defs>
</svg>
