<?xml version="1.0" encoding="utf-8" standalone="no"?>
<!DOCTYPE svg PUBLIC "-//W3C//DTD SVG 1.1//EN"
  "http://www.w3.org/Graphics/SVG/1.1/DTD/svg11.dtd">
<svg xmlns:xlink="http://www.w3.org/1999/xlink" width="382.54875pt" height="222.16425pt" viewBox="0 0 382.54875 222.16425" xmlns="http://www.w3.org/2000/svg" version="1.1">
 <metadata>
  <rdf:RDF xmlns:dc="http://purl.org/dc/elements/1.1/" xmlns:cc="http://creativecommons.org/ns#" xmlns:rdf="http://www.w3.org/1999/02/22-rdf-syntax-ns#">
   <cc:Work>
    <dc:type rdf:resource="http://purl.org/dc/dcmitype/StillImage"/>
    <dc:date>2022-01-05T19:12:16.221552</dc:date>
    <dc:format>image/svg+xml</dc:format>
    <dc:creator>
     <cc:Agent>
      <dc:title>Matplotlib v3.5.0, https://matplotlib.org/</dc:title>
     </cc:Agent>
    </dc:creator>
   </cc:Work>
  </rdf:RDF>
 </metadata>
 <defs>
  <style type="text/css">*{stroke-linejoin: round; stroke-linecap: butt}</style>
 </defs>
 <g id="figure_1">
  <g id="patch_1">
   <path d="M 0 222.16425 
L 382.54875 222.16425 
L 382.54875 0 
L 0 0 
z
" style="fill: #ffffff"/>
  </g>
  <g id="axes_1">
   <g id="patch_2">
    <path d="M 62.86875 184.608 
L 375.34875 184.608 
L 375.34875 7.2 
L 62.86875 7.2 
z
" style="fill: #ffffff"/>
   </g>
   <g id="matplotlib.axis_1">
    <g id="xtick_1">
     <g id="line2d_1">
      <defs>
       <path id="m036fa45d85" d="M 0 0 
L 0 3.5 
" style="stroke: #000000; stroke-width: 0.8"/>
      </defs>
      <g>
       <use xlink:href="#m036fa45d85" x="102.246311" y="184.608" style="stroke: #000000; stroke-width: 0.8"/>
      </g>
     </g>
     <g id="text_1">
      <!-- 550 -->
      <g transform="translate(92.702561 199.206437)scale(0.1 -0.1)">
       <defs>
        <path id="DejaVuSans-35" d="M 691 4666 
L 3169 4666 
L 3169 4134 
L 1269 4134 
L 1269 2991 
Q 1406 3038 1543 3061 
Q 1681 3084 1819 3084 
Q 2600 3084 3056 2656 
Q 3513 2228 3513 1497 
Q 3513 744 3044 326 
Q 2575 -91 1722 -91 
Q 1428 -91 1123 -41 
Q 819 9 494 109 
L 494 744 
Q 775 591 1075 516 
Q 1375 441 1709 441 
Q 2250 441 2565 725 
Q 2881 1009 2881 1497 
Q 2881 1984 2565 2268 
Q 2250 2553 1709 2553 
Q 1456 2553 1204 2497 
Q 953 2441 691 2322 
L 691 4666 
z
" transform="scale(0.015625)"/>
        <path id="DejaVuSans-30" d="M 2034 4250 
Q 1547 4250 1301 3770 
Q 1056 3291 1056 2328 
Q 1056 1369 1301 889 
Q 1547 409 2034 409 
Q 2525 409 2770 889 
Q 3016 1369 3016 2328 
Q 3016 3291 2770 3770 
Q 2525 4250 2034 4250 
z
M 2034 4750 
Q 2819 4750 3233 4129 
Q 3647 3509 3647 2328 
Q 3647 1150 3233 529 
Q 2819 -91 2034 -91 
Q 1250 -91 836 529 
Q 422 1150 422 2328 
Q 422 3509 836 4129 
Q 1250 4750 2034 4750 
z
" transform="scale(0.015625)"/>
       </defs>
       <use xlink:href="#DejaVuSans-35"/>
       <use xlink:href="#DejaVuSans-35" x="63.623047"/>
       <use xlink:href="#DejaVuSans-30" x="127.246094"/>
      </g>
     </g>
    </g>
    <g id="xtick_2">
     <g id="line2d_2">
      <g>
       <use xlink:href="#m036fa45d85" x="165.758506" y="184.608" style="stroke: #000000; stroke-width: 0.8"/>
      </g>
     </g>
     <g id="text_2">
      <!-- 600 -->
      <g transform="translate(156.214756 199.206437)scale(0.1 -0.1)">
       <defs>
        <path id="DejaVuSans-36" d="M 2113 2584 
Q 1688 2584 1439 2293 
Q 1191 2003 1191 1497 
Q 1191 994 1439 701 
Q 1688 409 2113 409 
Q 2538 409 2786 701 
Q 3034 994 3034 1497 
Q 3034 2003 2786 2293 
Q 2538 2584 2113 2584 
z
M 3366 4563 
L 3366 3988 
Q 3128 4100 2886 4159 
Q 2644 4219 2406 4219 
Q 1781 4219 1451 3797 
Q 1122 3375 1075 2522 
Q 1259 2794 1537 2939 
Q 1816 3084 2150 3084 
Q 2853 3084 3261 2657 
Q 3669 2231 3669 1497 
Q 3669 778 3244 343 
Q 2819 -91 2113 -91 
Q 1303 -91 875 529 
Q 447 1150 447 2328 
Q 447 3434 972 4092 
Q 1497 4750 2381 4750 
Q 2619 4750 2861 4703 
Q 3103 4656 3366 4563 
z
" transform="scale(0.015625)"/>
       </defs>
       <use xlink:href="#DejaVuSans-36"/>
       <use xlink:href="#DejaVuSans-30" x="63.623047"/>
       <use xlink:href="#DejaVuSans-30" x="127.246094"/>
      </g>
     </g>
    </g>
    <g id="xtick_3">
     <g id="line2d_3">
      <g>
       <use xlink:href="#m036fa45d85" x="229.270701" y="184.608" style="stroke: #000000; stroke-width: 0.8"/>
      </g>
     </g>
     <g id="text_3">
      <!-- 650 -->
      <g transform="translate(219.726951 199.206437)scale(0.1 -0.1)">
       <use xlink:href="#DejaVuSans-36"/>
       <use xlink:href="#DejaVuSans-35" x="63.623047"/>
       <use xlink:href="#DejaVuSans-30" x="127.246094"/>
      </g>
     </g>
    </g>
    <g id="xtick_4">
     <g id="line2d_4">
      <g>
       <use xlink:href="#m036fa45d85" x="292.782896" y="184.608" style="stroke: #000000; stroke-width: 0.8"/>
      </g>
     </g>
     <g id="text_4">
      <!-- 700 -->
      <g transform="translate(283.239146 199.206437)scale(0.1 -0.1)">
       <defs>
        <path id="DejaVuSans-37" d="M 525 4666 
L 3525 4666 
L 3525 4397 
L 1831 0 
L 1172 0 
L 2766 4134 
L 525 4134 
L 525 4666 
z
" transform="scale(0.015625)"/>
       </defs>
       <use xlink:href="#DejaVuSans-37"/>
       <use xlink:href="#DejaVuSans-30" x="63.623047"/>
       <use xlink:href="#DejaVuSans-30" x="127.246094"/>
      </g>
     </g>
    </g>
    <g id="xtick_5">
     <g id="line2d_5">
      <g>
       <use xlink:href="#m036fa45d85" x="356.295091" y="184.608" style="stroke: #000000; stroke-width: 0.8"/>
      </g>
     </g>
     <g id="text_5">
      <!-- 750 -->
      <g transform="translate(346.751341 199.206437)scale(0.1 -0.1)">
       <use xlink:href="#DejaVuSans-37"/>
       <use xlink:href="#DejaVuSans-35" x="63.623047"/>
       <use xlink:href="#DejaVuSans-30" x="127.246094"/>
      </g>
     </g>
    </g>
    <g id="text_6">
     <!-- k -->
     <g transform="translate(216.213438 212.884562)scale(0.1 -0.1)">
      <defs>
       <path id="DejaVuSans-6b" d="M 581 4863 
L 1159 4863 
L 1159 1991 
L 2875 3500 
L 3609 3500 
L 1753 1863 
L 3688 0 
L 2938 0 
L 1159 1709 
L 1159 0 
L 581 0 
L 581 4863 
z
" transform="scale(0.015625)"/>
      </defs>
      <use xlink:href="#DejaVuSans-6b"/>
     </g>
    </g>
   </g>
   <g id="matplotlib.axis_2">
    <g id="ytick_1">
     <g id="line2d_6">
      <defs>
       <path id="m5b0227be69" d="M 0 0 
L -3.5 0 
" style="stroke: #000000; stroke-width: 0.8"/>
      </defs>
      <g>
       <use xlink:href="#m5b0227be69" x="62.86875" y="176.544" style="stroke: #000000; stroke-width: 0.8"/>
      </g>
     </g>
     <g id="text_7">
      <!-- 0.0000 -->
      <g transform="translate(20.878125 180.343219)scale(0.1 -0.1)">
       <defs>
        <path id="DejaVuSans-2e" d="M 684 794 
L 1344 794 
L 1344 0 
L 684 0 
L 684 794 
z
" transform="scale(0.015625)"/>
       </defs>
       <use xlink:href="#DejaVuSans-30"/>
       <use xlink:href="#DejaVuSans-2e" x="63.623047"/>
       <use xlink:href="#DejaVuSans-30" x="95.410156"/>
       <use xlink:href="#DejaVuSans-30" x="159.033203"/>
       <use xlink:href="#DejaVuSans-30" x="222.65625"/>
       <use xlink:href="#DejaVuSans-30" x="286.279297"/>
      </g>
     </g>
    </g>
    <g id="ytick_2">
     <g id="line2d_7">
      <g>
       <use xlink:href="#m5b0227be69" x="62.86875" y="149.115429" style="stroke: #000000; stroke-width: 0.8"/>
      </g>
     </g>
     <g id="text_8">
      <!-- 0.0025 -->
      <g transform="translate(20.878125 152.914647)scale(0.1 -0.1)">
       <defs>
        <path id="DejaVuSans-32" d="M 1228 531 
L 3431 531 
L 3431 0 
L 469 0 
L 469 531 
Q 828 903 1448 1529 
Q 2069 2156 2228 2338 
Q 2531 2678 2651 2914 
Q 2772 3150 2772 3378 
Q 2772 3750 2511 3984 
Q 2250 4219 1831 4219 
Q 1534 4219 1204 4116 
Q 875 4013 500 3803 
L 500 4441 
Q 881 4594 1212 4672 
Q 1544 4750 1819 4750 
Q 2544 4750 2975 4387 
Q 3406 4025 3406 3419 
Q 3406 3131 3298 2873 
Q 3191 2616 2906 2266 
Q 2828 2175 2409 1742 
Q 1991 1309 1228 531 
z
" transform="scale(0.015625)"/>
       </defs>
       <use xlink:href="#DejaVuSans-30"/>
       <use xlink:href="#DejaVuSans-2e" x="63.623047"/>
       <use xlink:href="#DejaVuSans-30" x="95.410156"/>
       <use xlink:href="#DejaVuSans-30" x="159.033203"/>
       <use xlink:href="#DejaVuSans-32" x="222.65625"/>
       <use xlink:href="#DejaVuSans-35" x="286.279297"/>
      </g>
     </g>
    </g>
    <g id="ytick_3">
     <g id="line2d_8">
      <g>
       <use xlink:href="#m5b0227be69" x="62.86875" y="121.686857" style="stroke: #000000; stroke-width: 0.8"/>
      </g>
     </g>
     <g id="text_9">
      <!-- 0.0050 -->
      <g transform="translate(20.878125 125.486076)scale(0.1 -0.1)">
       <use xlink:href="#DejaVuSans-30"/>
       <use xlink:href="#DejaVuSans-2e" x="63.623047"/>
       <use xlink:href="#DejaVuSans-30" x="95.410156"/>
       <use xlink:href="#DejaVuSans-30" x="159.033203"/>
       <use xlink:href="#DejaVuSans-35" x="222.65625"/>
       <use xlink:href="#DejaVuSans-30" x="286.279297"/>
      </g>
     </g>
    </g>
    <g id="ytick_4">
     <g id="line2d_9">
      <g>
       <use xlink:href="#m5b0227be69" x="62.86875" y="94.258286" style="stroke: #000000; stroke-width: 0.8"/>
      </g>
     </g>
     <g id="text_10">
      <!-- 0.0075 -->
      <g transform="translate(20.878125 98.057504)scale(0.1 -0.1)">
       <use xlink:href="#DejaVuSans-30"/>
       <use xlink:href="#DejaVuSans-2e" x="63.623047"/>
       <use xlink:href="#DejaVuSans-30" x="95.410156"/>
       <use xlink:href="#DejaVuSans-30" x="159.033203"/>
       <use xlink:href="#DejaVuSans-37" x="222.65625"/>
       <use xlink:href="#DejaVuSans-35" x="286.279297"/>
      </g>
     </g>
    </g>
    <g id="ytick_5">
     <g id="line2d_10">
      <g>
       <use xlink:href="#m5b0227be69" x="62.86875" y="66.829714" style="stroke: #000000; stroke-width: 0.8"/>
      </g>
     </g>
     <g id="text_11">
      <!-- 0.0100 -->
      <g transform="translate(20.878125 70.628933)scale(0.1 -0.1)">
       <defs>
        <path id="DejaVuSans-31" d="M 794 531 
L 1825 531 
L 1825 4091 
L 703 3866 
L 703 4441 
L 1819 4666 
L 2450 4666 
L 2450 531 
L 3481 531 
L 3481 0 
L 794 0 
L 794 531 
z
" transform="scale(0.015625)"/>
       </defs>
       <use xlink:href="#DejaVuSans-30"/>
       <use xlink:href="#DejaVuSans-2e" x="63.623047"/>
       <use xlink:href="#DejaVuSans-30" x="95.410156"/>
       <use xlink:href="#DejaVuSans-31" x="159.033203"/>
       <use xlink:href="#DejaVuSans-30" x="222.65625"/>
       <use xlink:href="#DejaVuSans-30" x="286.279297"/>
      </g>
     </g>
    </g>
    <g id="ytick_6">
     <g id="line2d_11">
      <g>
       <use xlink:href="#m5b0227be69" x="62.86875" y="39.401143" style="stroke: #000000; stroke-width: 0.8"/>
      </g>
     </g>
     <g id="text_12">
      <!-- 0.0125 -->
      <g transform="translate(20.878125 43.200362)scale(0.1 -0.1)">
       <use xlink:href="#DejaVuSans-30"/>
       <use xlink:href="#DejaVuSans-2e" x="63.623047"/>
       <use xlink:href="#DejaVuSans-30" x="95.410156"/>
       <use xlink:href="#DejaVuSans-31" x="159.033203"/>
       <use xlink:href="#DejaVuSans-32" x="222.65625"/>
       <use xlink:href="#DejaVuSans-35" x="286.279297"/>
      </g>
     </g>
    </g>
    <g id="ytick_7">
     <g id="line2d_12">
      <g>
       <use xlink:href="#m5b0227be69" x="62.86875" y="11.972571" style="stroke: #000000; stroke-width: 0.8"/>
      </g>
     </g>
     <g id="text_13">
      <!-- 0.0150 -->
      <g transform="translate(20.878125 15.77179)scale(0.1 -0.1)">
       <use xlink:href="#DejaVuSans-30"/>
       <use xlink:href="#DejaVuSans-2e" x="63.623047"/>
       <use xlink:href="#DejaVuSans-30" x="95.410156"/>
       <use xlink:href="#DejaVuSans-31" x="159.033203"/>
       <use xlink:href="#DejaVuSans-35" x="222.65625"/>
       <use xlink:href="#DejaVuSans-30" x="286.279297"/>
      </g>
     </g>
    </g>
    <g id="text_14">
     <!-- PMF -->
     <g transform="translate(14.798438 106.108687)rotate(-90)scale(0.1 -0.1)">
      <defs>
       <path id="DejaVuSans-50" d="M 1259 4147 
L 1259 2394 
L 2053 2394 
Q 2494 2394 2734 2622 
Q 2975 2850 2975 3272 
Q 2975 3691 2734 3919 
Q 2494 4147 2053 4147 
L 1259 4147 
z
M 628 4666 
L 2053 4666 
Q 2838 4666 3239 4311 
Q 3641 3956 3641 3272 
Q 3641 2581 3239 2228 
Q 2838 1875 2053 1875 
L 1259 1875 
L 1259 0 
L 628 0 
L 628 4666 
z
" transform="scale(0.015625)"/>
       <path id="DejaVuSans-4d" d="M 628 4666 
L 1569 4666 
L 2759 1491 
L 3956 4666 
L 4897 4666 
L 4897 0 
L 4281 0 
L 4281 4097 
L 3078 897 
L 2444 897 
L 1241 4097 
L 1241 0 
L 628 0 
L 628 4666 
z
" transform="scale(0.015625)"/>
       <path id="DejaVuSans-46" d="M 628 4666 
L 3309 4666 
L 3309 4134 
L 1259 4134 
L 1259 2759 
L 3109 2759 
L 3109 2228 
L 1259 2228 
L 1259 0 
L 628 0 
L 628 4666 
z
" transform="scale(0.015625)"/>
      </defs>
      <use xlink:href="#DejaVuSans-50"/>
      <use xlink:href="#DejaVuSans-4d" x="60.302734"/>
      <use xlink:href="#DejaVuSans-46" x="146.582031"/>
     </g>
    </g>
   </g>
   <g id="line2d_13">
    <path d="M -1 176.544 
L 36.193628 176.544 
L 37.463872 175.446857 
L 38.734116 175.446857 
L 40.00436 176.544 
L 43.815091 176.544 
L 45.085335 175.446857 
L 46.355579 176.544 
L 50.166311 176.544 
L 51.436555 175.446857 
L 52.706799 176.544 
L 53.977043 176.544 
L 55.247287 175.446857 
L 57.787774 175.446857 
L 59.058018 176.544 
L 60.328262 175.446857 
L 61.598506 175.446857 
L 62.86875 174.349714 
L 64.138994 175.446857 
L 65.409238 172.155429 
L 66.679482 175.446857 
L 69.21997 175.446857 
L 70.490213 172.155429 
L 71.760457 172.155429 
L 73.030701 169.961143 
L 75.571189 172.155429 
L 76.841433 166.669714 
L 78.111677 169.961143 
L 79.381921 166.669714 
L 80.652165 165.572571 
L 83.192652 167.766857 
L 84.462896 165.572571 
L 85.73314 165.572571 
L 87.003384 164.475429 
L 89.543872 157.892571 
L 90.814116 161.184 
L 92.08436 161.184 
L 93.354604 153.504 
L 94.624848 162.281143 
L 95.895091 152.406857 
L 97.165335 150.212571 
L 98.435579 152.406857 
L 99.705823 152.406857 
L 100.976067 155.698286 
L 102.246311 148.018286 
L 103.516555 144.726857 
L 104.786799 145.824 
L 106.057043 129.366857 
L 107.327287 133.755429 
L 108.59753 141.435429 
L 109.867774 138.144 
L 111.138018 131.561143 
L 112.408262 126.075429 
L 113.678506 121.686857 
L 114.94875 121.686857 
L 116.218994 124.978286 
L 117.489238 115.104 
L 118.759482 106.326857 
L 120.029726 108.521143 
L 121.29997 109.618286 
L 122.570213 121.686857 
L 123.840457 97.549714 
L 125.110701 101.938286 
L 126.380945 96.452571 
L 127.651189 87.675429 
L 128.921433 97.549714 
L 130.191677 85.481143 
L 131.461921 81.092571 
L 132.732165 78.898286 
L 134.002409 84.384 
L 135.272652 78.898286 
L 136.542896 85.481143 
L 137.81314 83.286857 
L 139.083384 60.246857 
L 140.353628 53.664 
L 141.623872 61.344 
L 142.894116 72.315429 
L 144.16436 82.189714 
L 145.434604 70.121143 
L 146.704848 61.344 
L 147.975091 51.469714 
L 149.245335 61.344 
L 150.515579 41.595429 
L 151.785823 66.829714 
L 153.056067 53.664 
L 154.326311 53.664 
L 155.596555 56.955429 
L 156.866799 30.624 
L 158.137043 61.344 
L 160.67753 19.652571 
L 161.947774 47.081143 
L 163.218018 41.595429 
L 164.488262 30.624 
L 165.758506 37.206857 
L 167.02875 40.498286 
L 168.298994 15.264 
L 169.569238 33.915429 
L 170.839482 60.246857 
L 172.109726 43.789714 
L 173.37997 65.732571 
L 174.650213 32.818286 
L 175.920457 52.566857 
L 177.190701 40.498286 
L 178.460945 69.024 
L 179.731189 30.624 
L 181.001433 56.955429 
L 182.271677 45.984 
L 183.541921 50.372571 
L 184.812165 47.081143 
L 186.082409 73.412571 
L 187.352652 67.926857 
L 188.622896 48.178286 
L 189.89314 45.984 
L 191.163384 64.635429 
L 192.433628 72.315429 
L 193.703872 42.692571 
L 194.974116 74.509714 
L 196.24436 72.315429 
L 197.514604 76.704 
L 198.784848 78.898286 
L 201.325335 92.064 
L 202.595579 78.898286 
L 203.865823 109.618286 
L 205.136067 86.578286 
L 206.406311 109.618286 
L 207.676555 85.481143 
L 208.946799 103.035429 
L 210.217043 104.132571 
L 211.487287 118.395429 
L 212.75753 106.326857 
L 214.027774 103.035429 
L 215.298018 119.492571 
L 216.568262 96.452571 
L 217.838506 101.938286 
L 219.10875 110.715429 
L 220.378994 126.075429 
L 221.649238 121.686857 
L 222.919482 114.006857 
L 224.189726 131.561143 
L 225.45997 129.366857 
L 226.730213 132.658286 
L 228.000457 132.658286 
L 229.270701 140.338286 
L 230.540945 138.144 
L 231.811189 120.589714 
L 233.081433 135.949714 
L 234.351677 133.755429 
L 235.621921 140.338286 
L 238.162409 138.144 
L 239.432652 146.921143 
L 240.702896 151.309714 
L 244.513628 151.309714 
L 245.783872 150.212571 
L 247.054116 153.504 
L 248.32436 150.212571 
L 249.594604 150.212571 
L 250.864848 153.504 
L 252.135091 160.086857 
L 253.405335 157.892571 
L 254.675579 148.018286 
L 255.945823 151.309714 
L 257.216067 160.086857 
L 258.486311 161.184 
L 259.756555 157.892571 
L 262.297043 157.892571 
L 263.567287 158.989714 
L 264.83753 155.698286 
L 266.107774 165.572571 
L 267.378018 157.892571 
L 268.648262 161.184 
L 269.918506 158.989714 
L 271.18875 161.184 
L 272.458994 162.281143 
L 273.729238 165.572571 
L 274.999482 164.475429 
L 276.269726 166.669714 
L 277.53997 165.572571 
L 278.810213 160.086857 
L 281.350701 164.475429 
L 282.620945 168.864 
L 283.891189 167.766857 
L 285.161433 162.281143 
L 286.431677 168.864 
L 288.972165 168.864 
L 290.242409 171.058286 
L 291.512652 167.766857 
L 292.782896 169.961143 
L 294.05314 169.961143 
L 295.323384 171.058286 
L 296.593628 173.252571 
L 297.863872 174.349714 
L 299.134116 168.864 
L 300.40436 166.669714 
L 301.674604 169.961143 
L 302.944848 169.961143 
L 304.215091 167.766857 
L 305.485335 171.058286 
L 306.755579 168.864 
L 308.025823 172.155429 
L 309.296067 167.766857 
L 310.566311 165.572571 
L 311.836555 174.349714 
L 313.106799 175.446857 
L 314.377043 173.252571 
L 315.647287 173.252571 
L 316.91753 169.961143 
L 318.187774 174.349714 
L 319.458018 168.864 
L 320.728262 171.058286 
L 321.998506 175.446857 
L 323.26875 173.252571 
L 324.538994 173.252571 
L 328.349726 176.544 
L 329.61997 174.349714 
L 330.890213 176.544 
L 332.160457 172.155429 
L 333.430701 174.349714 
L 334.700945 174.349714 
L 335.971189 175.446857 
L 337.241433 174.349714 
L 339.781921 174.349714 
L 341.052165 176.544 
L 342.322409 173.252571 
L 343.592652 172.155429 
L 344.862896 176.544 
L 346.13314 175.446857 
L 348.673628 175.446857 
L 349.943872 176.544 
L 351.214116 175.446857 
L 352.48436 176.544 
L 353.754604 175.446857 
L 355.024848 175.446857 
L 356.295091 174.349714 
L 357.565335 176.544 
L 360.105823 176.544 
L 361.376067 174.349714 
L 362.646311 175.446857 
L 363.916555 174.349714 
L 365.186799 175.446857 
L 366.457043 174.349714 
L 367.727287 176.544 
L 368.99753 175.446857 
L 370.267774 176.544 
L 372.808262 174.349714 
L 374.078506 176.544 
L 377.889238 176.544 
L 379.159482 175.446857 
L 380.429726 176.544 
L 381.69997 175.446857 
L 382.970213 176.544 
L 383.54875 176.544 
L 383.54875 176.544 
" clip-path="url(#pe69de20af9)" style="fill: none; stroke: #ff7f0e; stroke-opacity: 0.5; stroke-width: 1.5; stroke-linecap: square"/>
   </g>
   <g id="line2d_14">
    <path d="M 61.598506 175.219856 
L 66.679482 174.467721 
L 70.490213 173.681611 
L 74.300945 172.651999 
L 78.111677 171.323961 
L 80.652165 170.243146 
L 83.192652 168.983955 
L 85.73314 167.52694 
L 88.273628 165.852524 
L 90.814116 163.941435 
L 93.354604 161.775194 
L 95.895091 159.336665 
L 98.435579 156.610648 
L 100.976067 153.584503 
L 103.516555 150.248788 
L 106.057043 146.5979 
L 108.59753 142.630675 
L 111.138018 138.350952 
L 114.94875 131.367424 
L 118.759482 123.759631 
L 122.570213 115.615372 
L 127.651189 104.132046 
L 141.623872 71.952929 
L 145.434604 63.949239 
L 147.975091 59.001811 
L 150.515579 54.432446 
L 153.056067 50.294349 
L 155.596555 46.635458 
L 158.137043 43.497445 
L 160.67753 40.914884 
L 161.947774 39.840591 
L 163.218018 38.914575 
L 164.488262 38.138894 
L 165.758506 37.515071 
L 167.02875 37.044093 
L 168.298994 36.726407 
L 169.569238 36.561927 
L 170.839482 36.550037 
L 172.109726 36.689602 
L 173.37997 36.978978 
L 174.650213 37.416031 
L 175.920457 37.998149 
L 177.190701 38.722269 
L 178.460945 39.584891 
L 181.001433 41.709643 
L 183.541921 44.336753 
L 186.082409 47.425389 
L 188.622896 50.930531 
L 191.163384 54.803988 
L 193.703872 58.995442 
L 197.514604 65.766294 
L 202.595579 75.428344 
L 219.10875 107.639237 
L 222.919482 114.527114 
L 226.730213 121.034657 
L 230.540945 127.115504 
L 234.351677 132.741153 
L 238.162409 137.898733 
L 241.97314 142.588521 
L 245.783872 146.821415 
L 249.594604 150.616463 
L 253.405335 153.998606 
L 257.216067 156.996659 
L 261.026799 159.641612 
L 264.83753 161.965228 
L 268.648262 163.998956 
L 272.458994 165.773119 
L 276.269726 167.316345 
L 280.080457 168.655211 
L 285.161433 170.164199 
L 290.242409 171.404209 
L 295.323384 172.419527 
L 301.674604 173.429677 
L 308.025823 174.208509 
L 315.647287 174.906366 
L 324.538994 175.476678 
L 334.700945 175.90195 
L 348.673628 176.235052 
L 367.727287 176.436234 
L 376.618994 176.47934 
L 376.618994 176.47934 
" clip-path="url(#pe69de20af9)" style="fill: none; stroke-dasharray: 5.55,2.4; stroke-dashoffset: 0; stroke: #000000; stroke-width: 1.5"/>
   </g>
   <g id="line2d_15">
    <path d="M 61.598506 176.533029 
L 84.462896 176.423314 
L 92.08436 176.258743 
L 99.705823 175.896686 
L 104.786799 175.4688 
L 109.867774 174.788571 
L 113.678506 174.075429 
L 117.489238 173.109943 
L 121.29997 171.848229 
L 125.110701 170.224457 
L 127.651189 168.885943 
L 130.191677 167.338971 
L 132.732165 165.550629 
L 135.272652 163.488 
L 137.81314 161.162057 
L 140.353628 158.528914 
L 142.894116 155.555657 
L 145.434604 152.2752 
L 147.975091 148.632686 
L 150.515579 144.661029 
L 153.056067 140.327314 
L 155.596555 135.675429 
L 159.407287 128.094171 
L 163.218018 119.854629 
L 167.02875 111.1104 
L 173.37997 95.794286 
L 181.001433 77.362286 
L 184.812165 68.64 
L 188.622896 60.586971 
L 191.163384 55.671771 
L 193.703872 51.217371 
L 196.24436 47.267657 
L 198.784848 43.866514 
L 201.325335 41.046857 
L 203.865823 38.852571 
L 205.136067 37.9968 
L 206.406311 37.294629 
L 207.676555 36.768 
L 208.946799 36.384 
L 210.217043 36.164571 
L 211.487287 36.120686 
L 212.75753 36.2304 
L 214.027774 36.482743 
L 215.298018 36.910629 
L 216.568262 37.481143 
L 217.838506 38.194286 
L 220.378994 40.059429 
L 222.919482 42.4512 
L 225.45997 45.336686 
L 228.000457 48.661029 
L 230.540945 52.380343 
L 233.081433 56.4288 
L 236.892165 62.989714 
L 241.97314 72.414171 
L 250.864848 89.540571 
L 257.216067 101.477486 
L 262.297043 110.463086 
L 266.107774 116.7936 
L 269.918506 122.718171 
L 273.729238 128.214857 
L 277.53997 133.296823 
L 281.350701 137.955291 
L 285.161433 142.205623 
L 288.972165 146.071954 
L 292.782896 149.576229 
L 296.593628 152.744777 
L 300.40436 155.60064 
L 304.215091 158.170149 
L 308.025823 160.474149 
L 311.836555 162.537874 
L 315.647287 164.37888 
L 319.458018 166.016914 
L 324.538994 167.916069 
L 329.61997 169.521189 
L 334.700945 170.869358 
L 339.781921 171.992283 
L 344.862896 172.919698 
L 351.214116 173.845797 
L 357.565335 174.557623 
L 365.186799 175.18837 
L 374.078506 175.692946 
L 376.618994 175.801947 
L 376.618994 175.801947 
" clip-path="url(#pe69de20af9)" style="fill: none; stroke-dasharray: 9.6,2.4,1.5,2.4; stroke-dashoffset: 0; stroke: #d62728; stroke-width: 1.5"/>
   </g>
   <g id="line2d_16">
    <path d="M 61.598506 176.050286 
L 67.949726 175.578514 
L 73.030701 174.953143 
L 76.841433 174.283886 
L 80.652165 173.373257 
L 84.462896 172.1664 
L 88.273628 170.586514 
L 90.814116 169.302857 
L 93.354604 167.799771 
L 95.895091 166.044343 
L 98.435579 164.036571 
L 100.976067 161.743543 
L 103.516555 159.154286 
L 106.057043 156.235886 
L 108.59753 152.977371 
L 111.138018 149.378743 
L 113.678506 145.429029 
L 116.218994 141.1392 
L 118.759482 136.5312 
L 122.570213 129.015771 
L 126.380945 120.874971 
L 131.461921 109.289143 
L 145.434604 76.671086 
L 149.245335 68.650971 
L 151.785823 63.768686 
L 154.326311 59.303314 
L 156.866799 55.342629 
L 159.407287 51.919543 
L 161.947774 49.077943 
L 164.488262 46.861714 
L 165.758506 45.994971 
L 167.02875 45.2928 
L 168.298994 44.733257 
L 169.569238 44.349257 
L 170.839482 44.129829 
L 172.109726 44.064 
L 173.37997 44.162743 
L 174.650213 44.404114 
L 175.920457 44.810057 
L 177.190701 45.358629 
L 178.460945 46.0608 
L 181.001433 47.860114 
L 183.541921 50.175086 
L 186.082409 52.950857 
L 188.622896 56.132571 
L 191.163384 59.6544 
L 194.974116 65.458286 
L 200.055091 73.829486 
L 212.75753 95.2128 
L 216.568262 101.192229 
L 220.378994 106.798629 
L 224.189726 111.999086 
L 228.000457 116.782629 
L 231.811189 121.138286 
L 235.621921 125.131886 
L 239.432652 128.763429 
L 243.243384 132.098743 
L 247.054116 135.181714 
L 252.135091 138.977829 
L 258.486311 143.334583 
L 264.83753 147.39072 
L 271.18875 151.208777 
L 277.53997 154.803017 
L 283.891189 158.147109 
L 290.242409 161.198263 
L 295.323384 163.402423 
L 300.40436 165.380571 
L 305.485335 167.127223 
L 310.566311 168.646766 
L 315.647287 169.950171 
L 320.728262 171.054336 
L 327.079482 172.188343 
L 333.430701 173.091182 
L 341.052165 173.932471 
L 349.943872 174.663058 
L 360.105823 175.264622 
L 372.808262 175.778743 
L 376.618994 175.894502 
L 376.618994 175.894502 
" clip-path="url(#pe69de20af9)" style="fill: none; stroke-dasharray: 7.5,1.5; stroke-dashoffset: 0; stroke: #9467bd; stroke-width: 1.5"/>
   </g>
   <g id="patch_3">
    <path d="M 62.86875 184.608 
L 62.86875 7.2 
" style="fill: none; stroke: #000000; stroke-width: 0.8; stroke-linejoin: miter; stroke-linecap: square"/>
   </g>
   <g id="patch_4">
    <path d="M 375.34875 184.608 
L 375.34875 7.2 
" style="fill: none; stroke: #000000; stroke-width: 0.8; stroke-linejoin: miter; stroke-linecap: square"/>
   </g>
   <g id="patch_5">
    <path d="M 62.86875 184.608 
L 375.34875 184.608 
" style="fill: none; stroke: #000000; stroke-width: 0.8; stroke-linejoin: miter; stroke-linecap: square"/>
   </g>
   <g id="patch_6">
    <path d="M 62.86875 7.2 
L 375.34875 7.2 
" style="fill: none; stroke: #000000; stroke-width: 0.8; stroke-linejoin: miter; stroke-linecap: square"/>
   </g>
   <g id="legend_1">
    <g id="patch_7">
     <path d="M 267.728438 73.9125 
L 368.34875 73.9125 
Q 370.34875 73.9125 370.34875 71.9125 
L 370.34875 14.2 
Q 370.34875 12.2 368.34875 12.2 
L 267.728438 12.2 
Q 265.728438 12.2 265.728438 14.2 
L 265.728438 71.9125 
Q 265.728438 73.9125 267.728438 73.9125 
z
" style="fill: #ffffff; opacity: 0.8; stroke: #cccccc; stroke-linejoin: miter"/>
    </g>
    <g id="line2d_17">
     <path d="M 269.728438 20.298437 
L 279.728438 20.298437 
L 289.728438 20.298437 
" style="fill: none; stroke: #ff7f0e; stroke-opacity: 0.5; stroke-width: 1.5; stroke-linecap: square"/>
    </g>
    <g id="text_15">
     <!-- Gold -->
     <g transform="translate(297.728438 23.798437)scale(0.1 -0.1)">
      <defs>
       <path id="DejaVuSans-47" d="M 3809 666 
L 3809 1919 
L 2778 1919 
L 2778 2438 
L 4434 2438 
L 4434 434 
Q 4069 175 3628 42 
Q 3188 -91 2688 -91 
Q 1594 -91 976 548 
Q 359 1188 359 2328 
Q 359 3472 976 4111 
Q 1594 4750 2688 4750 
Q 3144 4750 3555 4637 
Q 3966 4525 4313 4306 
L 4313 3634 
Q 3963 3931 3569 4081 
Q 3175 4231 2741 4231 
Q 1884 4231 1454 3753 
Q 1025 3275 1025 2328 
Q 1025 1384 1454 906 
Q 1884 428 2741 428 
Q 3075 428 3337 486 
Q 3600 544 3809 666 
z
" transform="scale(0.015625)"/>
       <path id="DejaVuSans-6f" d="M 1959 3097 
Q 1497 3097 1228 2736 
Q 959 2375 959 1747 
Q 959 1119 1226 758 
Q 1494 397 1959 397 
Q 2419 397 2687 759 
Q 2956 1122 2956 1747 
Q 2956 2369 2687 2733 
Q 2419 3097 1959 3097 
z
M 1959 3584 
Q 2709 3584 3137 3096 
Q 3566 2609 3566 1747 
Q 3566 888 3137 398 
Q 2709 -91 1959 -91 
Q 1206 -91 779 398 
Q 353 888 353 1747 
Q 353 2609 779 3096 
Q 1206 3584 1959 3584 
z
" transform="scale(0.015625)"/>
       <path id="DejaVuSans-6c" d="M 603 4863 
L 1178 4863 
L 1178 0 
L 603 0 
L 603 4863 
z
" transform="scale(0.015625)"/>
       <path id="DejaVuSans-64" d="M 2906 2969 
L 2906 4863 
L 3481 4863 
L 3481 0 
L 2906 0 
L 2906 525 
Q 2725 213 2448 61 
Q 2172 -91 1784 -91 
Q 1150 -91 751 415 
Q 353 922 353 1747 
Q 353 2572 751 3078 
Q 1150 3584 1784 3584 
Q 2172 3584 2448 3432 
Q 2725 3281 2906 2969 
z
M 947 1747 
Q 947 1113 1208 752 
Q 1469 391 1925 391 
Q 2381 391 2643 752 
Q 2906 1113 2906 1747 
Q 2906 2381 2643 2742 
Q 2381 3103 1925 3103 
Q 1469 3103 1208 2742 
Q 947 2381 947 1747 
z
" transform="scale(0.015625)"/>
      </defs>
      <use xlink:href="#DejaVuSans-47"/>
      <use xlink:href="#DejaVuSans-6f" x="77.490234"/>
      <use xlink:href="#DejaVuSans-6c" x="138.671875"/>
      <use xlink:href="#DejaVuSans-64" x="166.455078"/>
     </g>
    </g>
    <g id="line2d_18">
     <path d="M 269.728438 34.976562 
L 279.728438 34.976562 
L 289.728438 34.976562 
" style="fill: none; stroke-dasharray: 5.55,2.4; stroke-dashoffset: 0; stroke: #000000; stroke-width: 1.5"/>
    </g>
    <g id="text_16">
     <!-- MCDP -->
     <g transform="translate(297.728438 38.476562)scale(0.1 -0.1)">
      <defs>
       <path id="DejaVuSans-43" d="M 4122 4306 
L 4122 3641 
Q 3803 3938 3442 4084 
Q 3081 4231 2675 4231 
Q 1875 4231 1450 3742 
Q 1025 3253 1025 2328 
Q 1025 1406 1450 917 
Q 1875 428 2675 428 
Q 3081 428 3442 575 
Q 3803 722 4122 1019 
L 4122 359 
Q 3791 134 3420 21 
Q 3050 -91 2638 -91 
Q 1578 -91 968 557 
Q 359 1206 359 2328 
Q 359 3453 968 4101 
Q 1578 4750 2638 4750 
Q 3056 4750 3426 4639 
Q 3797 4528 4122 4306 
z
" transform="scale(0.015625)"/>
       <path id="DejaVuSans-44" d="M 1259 4147 
L 1259 519 
L 2022 519 
Q 2988 519 3436 956 
Q 3884 1394 3884 2338 
Q 3884 3275 3436 3711 
Q 2988 4147 2022 4147 
L 1259 4147 
z
M 628 4666 
L 1925 4666 
Q 3281 4666 3915 4102 
Q 4550 3538 4550 2338 
Q 4550 1131 3912 565 
Q 3275 0 1925 0 
L 628 0 
L 628 4666 
z
" transform="scale(0.015625)"/>
      </defs>
      <use xlink:href="#DejaVuSans-4d"/>
      <use xlink:href="#DejaVuSans-43" x="86.279297"/>
      <use xlink:href="#DejaVuSans-44" x="156.103516"/>
      <use xlink:href="#DejaVuSans-50" x="233.105469"/>
     </g>
    </g>
    <g id="line2d_19">
     <path d="M 269.728438 49.654687 
L 279.728438 49.654687 
L 289.728438 49.654687 
" style="fill: none; stroke-dasharray: 9.6,2.4,1.5,2.4; stroke-dashoffset: 0; stroke: #d62728; stroke-width: 1.5"/>
    </g>
    <g id="text_17">
     <!-- SBDP (ν=10⁴) -->
     <g transform="translate(297.728438 53.154687)scale(0.1 -0.1)">
      <defs>
       <path id="DejaVuSans-53" d="M 3425 4513 
L 3425 3897 
Q 3066 4069 2747 4153 
Q 2428 4238 2131 4238 
Q 1616 4238 1336 4038 
Q 1056 3838 1056 3469 
Q 1056 3159 1242 3001 
Q 1428 2844 1947 2747 
L 2328 2669 
Q 3034 2534 3370 2195 
Q 3706 1856 3706 1288 
Q 3706 609 3251 259 
Q 2797 -91 1919 -91 
Q 1588 -91 1214 -16 
Q 841 59 441 206 
L 441 856 
Q 825 641 1194 531 
Q 1563 422 1919 422 
Q 2459 422 2753 634 
Q 3047 847 3047 1241 
Q 3047 1584 2836 1778 
Q 2625 1972 2144 2069 
L 1759 2144 
Q 1053 2284 737 2584 
Q 422 2884 422 3419 
Q 422 4038 858 4394 
Q 1294 4750 2059 4750 
Q 2388 4750 2728 4690 
Q 3069 4631 3425 4513 
z
" transform="scale(0.015625)"/>
       <path id="DejaVuSans-42" d="M 1259 2228 
L 1259 519 
L 2272 519 
Q 2781 519 3026 730 
Q 3272 941 3272 1375 
Q 3272 1813 3026 2020 
Q 2781 2228 2272 2228 
L 1259 2228 
z
M 1259 4147 
L 1259 2741 
L 2194 2741 
Q 2656 2741 2882 2914 
Q 3109 3088 3109 3444 
Q 3109 3797 2882 3972 
Q 2656 4147 2194 4147 
L 1259 4147 
z
M 628 4666 
L 2241 4666 
Q 2963 4666 3353 4366 
Q 3744 4066 3744 3513 
Q 3744 3084 3544 2831 
Q 3344 2578 2956 2516 
Q 3422 2416 3680 2098 
Q 3938 1781 3938 1306 
Q 3938 681 3513 340 
Q 3088 0 2303 0 
L 628 0 
L 628 4666 
z
" transform="scale(0.015625)"/>
       <path id="DejaVuSans-20" transform="scale(0.015625)"/>
       <path id="DejaVuSans-28" d="M 1984 4856 
Q 1566 4138 1362 3434 
Q 1159 2731 1159 2009 
Q 1159 1288 1364 580 
Q 1569 -128 1984 -844 
L 1484 -844 
Q 1016 -109 783 600 
Q 550 1309 550 2009 
Q 550 2706 781 3412 
Q 1013 4119 1484 4856 
L 1984 4856 
z
" transform="scale(0.015625)"/>
       <path id="DejaVuSans-3bd" d="M 1300 0 
L 231 3500 
L 850 3500 
L 1753 563 
Q 2128 950 2441 1488 
Q 2678 1891 2691 2241 
Q 2697 2406 2622 2719 
Q 2534 3091 2203 3500 
L 2784 3500 
L 2784 3500 
Q 3000 3222 3144 2834 
Q 3275 2478 3275 2234 
Q 3275 1622 2850 1075 
Q 2297 363 1913 0 
L 1300 0 
z
" transform="scale(0.015625)"/>
       <path id="DejaVuSans-3d" d="M 678 2906 
L 4684 2906 
L 4684 2381 
L 678 2381 
L 678 2906 
z
M 678 1631 
L 4684 1631 
L 4684 1100 
L 678 1100 
L 678 1631 
z
" transform="scale(0.015625)"/>
       <path id="DejaVuSans-2074" d="M 1491 4319 
L 525 3009 
L 1491 3009 
L 1491 4319 
z
M 1422 4697 
L 1941 4697 
L 1941 3009 
L 2363 3009 
L 2363 2669 
L 1941 2669 
L 1941 2088 
L 1491 2088 
L 1491 2669 
L 197 2669 
L 197 3047 
L 1422 4697 
z
" transform="scale(0.015625)"/>
       <path id="DejaVuSans-29" d="M 513 4856 
L 1013 4856 
Q 1481 4119 1714 3412 
Q 1947 2706 1947 2009 
Q 1947 1309 1714 600 
Q 1481 -109 1013 -844 
L 513 -844 
Q 928 -128 1133 580 
Q 1338 1288 1338 2009 
Q 1338 2731 1133 3434 
Q 928 4138 513 4856 
z
" transform="scale(0.015625)"/>
      </defs>
      <use xlink:href="#DejaVuSans-53"/>
      <use xlink:href="#DejaVuSans-42" x="63.476562"/>
      <use xlink:href="#DejaVuSans-44" x="132.080078"/>
      <use xlink:href="#DejaVuSans-50" x="209.082031"/>
      <use xlink:href="#DejaVuSans-20" x="269.384766"/>
      <use xlink:href="#DejaVuSans-28" x="301.171875"/>
      <use xlink:href="#DejaVuSans-3bd" x="340.185547"/>
      <use xlink:href="#DejaVuSans-3d" x="396.044922"/>
      <use xlink:href="#DejaVuSans-31" x="479.833984"/>
      <use xlink:href="#DejaVuSans-30" x="543.457031"/>
      <use xlink:href="#DejaVuSans-2074" x="607.080078"/>
      <use xlink:href="#DejaVuSans-29" x="647.167969"/>
     </g>
    </g>
    <g id="line2d_20">
     <path d="M 269.728438 64.332812 
L 279.728438 64.332812 
L 289.728438 64.332812 
" style="fill: none; stroke-dasharray: 7.5,1.5; stroke-dashoffset: 0; stroke: #9467bd; stroke-width: 1.5"/>
    </g>
    <g id="text_18">
     <!-- SBDP (ν=10³) -->
     <g transform="translate(297.728438 67.832812)scale(0.1 -0.1)">
      <defs>
       <path id="DejaVuSans-b3" d="M 1638 3500 
Q 1925 3444 2083 3273 
Q 2241 3103 2241 2847 
Q 2241 2459 1944 2250 
Q 1647 2041 1094 2041 
Q 916 2041 720 2073 
Q 525 2106 306 2169 
L 306 2547 
Q 469 2463 655 2422 
Q 841 2381 1050 2381 
Q 1391 2381 1578 2504 
Q 1766 2628 1766 2847 
Q 1766 3078 1592 3197 
Q 1419 3316 1081 3316 
L 813 3316 
L 813 3653 
L 1106 3653 
Q 1400 3653 1551 3751 
Q 1703 3850 1703 4038 
Q 1703 4219 1547 4314 
Q 1391 4409 1094 4409 
Q 969 4409 809 4381 
Q 650 4353 397 4281 
L 397 4641 
Q 625 4694 825 4722 
Q 1025 4750 1197 4750 
Q 1647 4750 1911 4565 
Q 2175 4381 2175 4072 
Q 2175 3856 2034 3706 
Q 1894 3556 1638 3500 
z
" transform="scale(0.015625)"/>
      </defs>
      <use xlink:href="#DejaVuSans-53"/>
      <use xlink:href="#DejaVuSans-42" x="63.476562"/>
      <use xlink:href="#DejaVuSans-44" x="132.080078"/>
      <use xlink:href="#DejaVuSans-50" x="209.082031"/>
      <use xlink:href="#DejaVuSans-20" x="269.384766"/>
      <use xlink:href="#DejaVuSans-28" x="301.171875"/>
      <use xlink:href="#DejaVuSans-3bd" x="340.185547"/>
      <use xlink:href="#DejaVuSans-3d" x="396.044922"/>
      <use xlink:href="#DejaVuSans-31" x="479.833984"/>
      <use xlink:href="#DejaVuSans-30" x="543.457031"/>
      <use xlink:href="#DejaVuSans-b3" x="607.080078"/>
      <use xlink:href="#DejaVuSans-29" x="647.167969"/>
     </g>
    </g>
   </g>
  </g>
 </g>
 <defs>
  <clipPath id="pe69de20af9">
   <rect x="62.86875" y="7.2" width="312.48" height="177.408"/>
  </clipPath>
 </defs>
</svg>
