<?xml version="1.0" encoding="utf-8" standalone="no"?>
<!DOCTYPE svg PUBLIC "-//W3C//DTD SVG 1.1//EN"
  "http://www.w3.org/Graphics/SVG/1.1/DTD/svg11.dtd">
<svg xmlns:xlink="http://www.w3.org/1999/xlink" width="383.740186pt" height="222.16425pt" viewBox="0 0 383.740186 222.16425" xmlns="http://www.w3.org/2000/svg" version="1.1">
 <metadata>
  <rdf:RDF xmlns:dc="http://purl.org/dc/elements/1.1/" xmlns:cc="http://creativecommons.org/ns#" xmlns:rdf="http://www.w3.org/1999/02/22-rdf-syntax-ns#">
   <cc:Work>
    <dc:type rdf:resource="http://purl.org/dc/dcmitype/StillImage"/>
    <dc:date>2022-01-05T19:12:16.623353</dc:date>
    <dc:format>image/svg+xml</dc:format>
    <dc:creator>
     <cc:Agent>
      <dc:title>Matplotlib v3.5.0, https://matplotlib.org/</dc:title>
     </cc:Agent>
    </dc:creator>
   </cc:Work>
  </rdf:RDF>
 </metadata>
 <defs>
  <style type="text/css">*{stroke-linejoin: round; stroke-linecap: butt}</style>
 </defs>
 <g id="figure_1">
  <g id="patch_1">
   <path d="M 0 222.16425 
L 383.740186 222.16425 
L 383.740186 0 
L 0 0 
z
" style="fill: #ffffff"/>
  </g>
  <g id="axes_1">
   <g id="patch_2">
    <path d="M 56.50625 184.608 
L 368.98625 184.608 
L 368.98625 7.2 
L 56.50625 7.2 
z
" style="fill: #ffffff"/>
   </g>
   <g id="matplotlib.axis_1">
    <g id="xtick_1">
     <g id="line2d_1">
      <defs>
       <path id="mfd8e66e3c7" d="M 0 0 
L 0 3.5 
" style="stroke: #000000; stroke-width: 0.8"/>
      </defs>
      <g>
       <use xlink:href="#mfd8e66e3c7" x="68.325824" y="184.608" style="stroke: #000000; stroke-width: 0.8"/>
      </g>
     </g>
     <g id="text_1">
      <!-- 1700 -->
      <g transform="translate(55.600824 199.206437)scale(0.1 -0.1)">
       <defs>
        <path id="DejaVuSans-31" d="M 794 531 
L 1825 531 
L 1825 4091 
L 703 3866 
L 703 4441 
L 1819 4666 
L 2450 4666 
L 2450 531 
L 3481 531 
L 3481 0 
L 794 0 
L 794 531 
z
" transform="scale(0.015625)"/>
        <path id="DejaVuSans-37" d="M 525 4666 
L 3525 4666 
L 3525 4397 
L 1831 0 
L 1172 0 
L 2766 4134 
L 525 4134 
L 525 4666 
z
" transform="scale(0.015625)"/>
        <path id="DejaVuSans-30" d="M 2034 4250 
Q 1547 4250 1301 3770 
Q 1056 3291 1056 2328 
Q 1056 1369 1301 889 
Q 1547 409 2034 409 
Q 2525 409 2770 889 
Q 3016 1369 3016 2328 
Q 3016 3291 2770 3770 
Q 2525 4250 2034 4250 
z
M 2034 4750 
Q 2819 4750 3233 4129 
Q 3647 3509 3647 2328 
Q 3647 1150 3233 529 
Q 2819 -91 2034 -91 
Q 1250 -91 836 529 
Q 422 1150 422 2328 
Q 422 3509 836 4129 
Q 1250 4750 2034 4750 
z
" transform="scale(0.015625)"/>
       </defs>
       <use xlink:href="#DejaVuSans-31"/>
       <use xlink:href="#DejaVuSans-37" x="63.623047"/>
       <use xlink:href="#DejaVuSans-30" x="127.246094"/>
       <use xlink:href="#DejaVuSans-30" x="190.869141"/>
      </g>
     </g>
    </g>
    <g id="xtick_2">
     <g id="line2d_2">
      <g>
       <use xlink:href="#mfd8e66e3c7" x="105.261995" y="184.608" style="stroke: #000000; stroke-width: 0.8"/>
      </g>
     </g>
     <g id="text_2">
      <!-- 1750 -->
      <g transform="translate(92.536995 199.206437)scale(0.1 -0.1)">
       <defs>
        <path id="DejaVuSans-35" d="M 691 4666 
L 3169 4666 
L 3169 4134 
L 1269 4134 
L 1269 2991 
Q 1406 3038 1543 3061 
Q 1681 3084 1819 3084 
Q 2600 3084 3056 2656 
Q 3513 2228 3513 1497 
Q 3513 744 3044 326 
Q 2575 -91 1722 -91 
Q 1428 -91 1123 -41 
Q 819 9 494 109 
L 494 744 
Q 775 591 1075 516 
Q 1375 441 1709 441 
Q 2250 441 2565 725 
Q 2881 1009 2881 1497 
Q 2881 1984 2565 2268 
Q 2250 2553 1709 2553 
Q 1456 2553 1204 2497 
Q 953 2441 691 2322 
L 691 4666 
z
" transform="scale(0.015625)"/>
       </defs>
       <use xlink:href="#DejaVuSans-31"/>
       <use xlink:href="#DejaVuSans-37" x="63.623047"/>
       <use xlink:href="#DejaVuSans-35" x="127.246094"/>
       <use xlink:href="#DejaVuSans-30" x="190.869141"/>
      </g>
     </g>
    </g>
    <g id="xtick_3">
     <g id="line2d_3">
      <g>
       <use xlink:href="#mfd8e66e3c7" x="142.198165" y="184.608" style="stroke: #000000; stroke-width: 0.8"/>
      </g>
     </g>
     <g id="text_3">
      <!-- 1800 -->
      <g transform="translate(129.473165 199.206437)scale(0.1 -0.1)">
       <defs>
        <path id="DejaVuSans-38" d="M 2034 2216 
Q 1584 2216 1326 1975 
Q 1069 1734 1069 1313 
Q 1069 891 1326 650 
Q 1584 409 2034 409 
Q 2484 409 2743 651 
Q 3003 894 3003 1313 
Q 3003 1734 2745 1975 
Q 2488 2216 2034 2216 
z
M 1403 2484 
Q 997 2584 770 2862 
Q 544 3141 544 3541 
Q 544 4100 942 4425 
Q 1341 4750 2034 4750 
Q 2731 4750 3128 4425 
Q 3525 4100 3525 3541 
Q 3525 3141 3298 2862 
Q 3072 2584 2669 2484 
Q 3125 2378 3379 2068 
Q 3634 1759 3634 1313 
Q 3634 634 3220 271 
Q 2806 -91 2034 -91 
Q 1263 -91 848 271 
Q 434 634 434 1313 
Q 434 1759 690 2068 
Q 947 2378 1403 2484 
z
M 1172 3481 
Q 1172 3119 1398 2916 
Q 1625 2713 2034 2713 
Q 2441 2713 2670 2916 
Q 2900 3119 2900 3481 
Q 2900 3844 2670 4047 
Q 2441 4250 2034 4250 
Q 1625 4250 1398 4047 
Q 1172 3844 1172 3481 
z
" transform="scale(0.015625)"/>
       </defs>
       <use xlink:href="#DejaVuSans-31"/>
       <use xlink:href="#DejaVuSans-38" x="63.623047"/>
       <use xlink:href="#DejaVuSans-30" x="127.246094"/>
       <use xlink:href="#DejaVuSans-30" x="190.869141"/>
      </g>
     </g>
    </g>
    <g id="xtick_4">
     <g id="line2d_4">
      <g>
       <use xlink:href="#mfd8e66e3c7" x="179.134335" y="184.608" style="stroke: #000000; stroke-width: 0.8"/>
      </g>
     </g>
     <g id="text_4">
      <!-- 1850 -->
      <g transform="translate(166.409335 199.206437)scale(0.1 -0.1)">
       <use xlink:href="#DejaVuSans-31"/>
       <use xlink:href="#DejaVuSans-38" x="63.623047"/>
       <use xlink:href="#DejaVuSans-35" x="127.246094"/>
       <use xlink:href="#DejaVuSans-30" x="190.869141"/>
      </g>
     </g>
    </g>
    <g id="xtick_5">
     <g id="line2d_5">
      <g>
       <use xlink:href="#mfd8e66e3c7" x="216.070505" y="184.608" style="stroke: #000000; stroke-width: 0.8"/>
      </g>
     </g>
     <g id="text_5">
      <!-- 1900 -->
      <g transform="translate(203.345505 199.206437)scale(0.1 -0.1)">
       <defs>
        <path id="DejaVuSans-39" d="M 703 97 
L 703 672 
Q 941 559 1184 500 
Q 1428 441 1663 441 
Q 2288 441 2617 861 
Q 2947 1281 2994 2138 
Q 2813 1869 2534 1725 
Q 2256 1581 1919 1581 
Q 1219 1581 811 2004 
Q 403 2428 403 3163 
Q 403 3881 828 4315 
Q 1253 4750 1959 4750 
Q 2769 4750 3195 4129 
Q 3622 3509 3622 2328 
Q 3622 1225 3098 567 
Q 2575 -91 1691 -91 
Q 1453 -91 1209 -44 
Q 966 3 703 97 
z
M 1959 2075 
Q 2384 2075 2632 2365 
Q 2881 2656 2881 3163 
Q 2881 3666 2632 3958 
Q 2384 4250 1959 4250 
Q 1534 4250 1286 3958 
Q 1038 3666 1038 3163 
Q 1038 2656 1286 2365 
Q 1534 2075 1959 2075 
z
" transform="scale(0.015625)"/>
       </defs>
       <use xlink:href="#DejaVuSans-31"/>
       <use xlink:href="#DejaVuSans-39" x="63.623047"/>
       <use xlink:href="#DejaVuSans-30" x="127.246094"/>
       <use xlink:href="#DejaVuSans-30" x="190.869141"/>
      </g>
     </g>
    </g>
    <g id="xtick_6">
     <g id="line2d_6">
      <g>
       <use xlink:href="#mfd8e66e3c7" x="253.006676" y="184.608" style="stroke: #000000; stroke-width: 0.8"/>
      </g>
     </g>
     <g id="text_6">
      <!-- 1950 -->
      <g transform="translate(240.281676 199.206437)scale(0.1 -0.1)">
       <use xlink:href="#DejaVuSans-31"/>
       <use xlink:href="#DejaVuSans-39" x="63.623047"/>
       <use xlink:href="#DejaVuSans-35" x="127.246094"/>
       <use xlink:href="#DejaVuSans-30" x="190.869141"/>
      </g>
     </g>
    </g>
    <g id="xtick_7">
     <g id="line2d_7">
      <g>
       <use xlink:href="#mfd8e66e3c7" x="289.942846" y="184.608" style="stroke: #000000; stroke-width: 0.8"/>
      </g>
     </g>
     <g id="text_7">
      <!-- 2000 -->
      <g transform="translate(277.217846 199.206437)scale(0.1 -0.1)">
       <defs>
        <path id="DejaVuSans-32" d="M 1228 531 
L 3431 531 
L 3431 0 
L 469 0 
L 469 531 
Q 828 903 1448 1529 
Q 2069 2156 2228 2338 
Q 2531 2678 2651 2914 
Q 2772 3150 2772 3378 
Q 2772 3750 2511 3984 
Q 2250 4219 1831 4219 
Q 1534 4219 1204 4116 
Q 875 4013 500 3803 
L 500 4441 
Q 881 4594 1212 4672 
Q 1544 4750 1819 4750 
Q 2544 4750 2975 4387 
Q 3406 4025 3406 3419 
Q 3406 3131 3298 2873 
Q 3191 2616 2906 2266 
Q 2828 2175 2409 1742 
Q 1991 1309 1228 531 
z
" transform="scale(0.015625)"/>
       </defs>
       <use xlink:href="#DejaVuSans-32"/>
       <use xlink:href="#DejaVuSans-30" x="63.623047"/>
       <use xlink:href="#DejaVuSans-30" x="127.246094"/>
       <use xlink:href="#DejaVuSans-30" x="190.869141"/>
      </g>
     </g>
    </g>
    <g id="xtick_8">
     <g id="line2d_8">
      <g>
       <use xlink:href="#mfd8e66e3c7" x="326.879016" y="184.608" style="stroke: #000000; stroke-width: 0.8"/>
      </g>
     </g>
     <g id="text_8">
      <!-- 2050 -->
      <g transform="translate(314.154016 199.206437)scale(0.1 -0.1)">
       <use xlink:href="#DejaVuSans-32"/>
       <use xlink:href="#DejaVuSans-30" x="63.623047"/>
       <use xlink:href="#DejaVuSans-35" x="127.246094"/>
       <use xlink:href="#DejaVuSans-30" x="190.869141"/>
      </g>
     </g>
    </g>
    <g id="xtick_9">
     <g id="line2d_9">
      <g>
       <use xlink:href="#mfd8e66e3c7" x="363.815186" y="184.608" style="stroke: #000000; stroke-width: 0.8"/>
      </g>
     </g>
     <g id="text_9">
      <!-- 2100 -->
      <g transform="translate(351.090186 199.206437)scale(0.1 -0.1)">
       <use xlink:href="#DejaVuSans-32"/>
       <use xlink:href="#DejaVuSans-31" x="63.623047"/>
       <use xlink:href="#DejaVuSans-30" x="127.246094"/>
       <use xlink:href="#DejaVuSans-30" x="190.869141"/>
      </g>
     </g>
    </g>
    <g id="text_10">
     <!-- k -->
     <g transform="translate(209.850938 212.884562)scale(0.1 -0.1)">
      <defs>
       <path id="DejaVuSans-6b" d="M 581 4863 
L 1159 4863 
L 1159 1991 
L 2875 3500 
L 3609 3500 
L 1753 1863 
L 3688 0 
L 2938 0 
L 1159 1709 
L 1159 0 
L 581 0 
L 581 4863 
z
" transform="scale(0.015625)"/>
      </defs>
      <use xlink:href="#DejaVuSans-6b"/>
     </g>
    </g>
   </g>
   <g id="matplotlib.axis_2">
    <g id="ytick_1">
     <g id="line2d_10">
      <defs>
       <path id="ma83ea37c90" d="M 0 0 
L -3.5 0 
" style="stroke: #000000; stroke-width: 0.8"/>
      </defs>
      <g>
       <use xlink:href="#ma83ea37c90" x="56.50625" y="176.544" style="stroke: #000000; stroke-width: 0.8"/>
      </g>
     </g>
     <g id="text_11">
      <!-- 0.000 -->
      <g transform="translate(20.878125 180.343219)scale(0.1 -0.1)">
       <defs>
        <path id="DejaVuSans-2e" d="M 684 794 
L 1344 794 
L 1344 0 
L 684 0 
L 684 794 
z
" transform="scale(0.015625)"/>
       </defs>
       <use xlink:href="#DejaVuSans-30"/>
       <use xlink:href="#DejaVuSans-2e" x="63.623047"/>
       <use xlink:href="#DejaVuSans-30" x="95.410156"/>
       <use xlink:href="#DejaVuSans-30" x="159.033203"/>
       <use xlink:href="#DejaVuSans-30" x="222.65625"/>
      </g>
     </g>
    </g>
    <g id="ytick_2">
     <g id="line2d_11">
      <g>
       <use xlink:href="#ma83ea37c90" x="56.50625" y="149.664" style="stroke: #000000; stroke-width: 0.8"/>
      </g>
     </g>
     <g id="text_12">
      <!-- 0.002 -->
      <g transform="translate(20.878125 153.463219)scale(0.1 -0.1)">
       <use xlink:href="#DejaVuSans-30"/>
       <use xlink:href="#DejaVuSans-2e" x="63.623047"/>
       <use xlink:href="#DejaVuSans-30" x="95.410156"/>
       <use xlink:href="#DejaVuSans-30" x="159.033203"/>
       <use xlink:href="#DejaVuSans-32" x="222.65625"/>
      </g>
     </g>
    </g>
    <g id="ytick_3">
     <g id="line2d_12">
      <g>
       <use xlink:href="#ma83ea37c90" x="56.50625" y="122.784" style="stroke: #000000; stroke-width: 0.8"/>
      </g>
     </g>
     <g id="text_13">
      <!-- 0.004 -->
      <g transform="translate(20.878125 126.583219)scale(0.1 -0.1)">
       <defs>
        <path id="DejaVuSans-34" d="M 2419 4116 
L 825 1625 
L 2419 1625 
L 2419 4116 
z
M 2253 4666 
L 3047 4666 
L 3047 1625 
L 3713 1625 
L 3713 1100 
L 3047 1100 
L 3047 0 
L 2419 0 
L 2419 1100 
L 313 1100 
L 313 1709 
L 2253 4666 
z
" transform="scale(0.015625)"/>
       </defs>
       <use xlink:href="#DejaVuSans-30"/>
       <use xlink:href="#DejaVuSans-2e" x="63.623047"/>
       <use xlink:href="#DejaVuSans-30" x="95.410156"/>
       <use xlink:href="#DejaVuSans-30" x="159.033203"/>
       <use xlink:href="#DejaVuSans-34" x="222.65625"/>
      </g>
     </g>
    </g>
    <g id="ytick_4">
     <g id="line2d_13">
      <g>
       <use xlink:href="#ma83ea37c90" x="56.50625" y="95.904" style="stroke: #000000; stroke-width: 0.8"/>
      </g>
     </g>
     <g id="text_14">
      <!-- 0.006 -->
      <g transform="translate(20.878125 99.703219)scale(0.1 -0.1)">
       <defs>
        <path id="DejaVuSans-36" d="M 2113 2584 
Q 1688 2584 1439 2293 
Q 1191 2003 1191 1497 
Q 1191 994 1439 701 
Q 1688 409 2113 409 
Q 2538 409 2786 701 
Q 3034 994 3034 1497 
Q 3034 2003 2786 2293 
Q 2538 2584 2113 2584 
z
M 3366 4563 
L 3366 3988 
Q 3128 4100 2886 4159 
Q 2644 4219 2406 4219 
Q 1781 4219 1451 3797 
Q 1122 3375 1075 2522 
Q 1259 2794 1537 2939 
Q 1816 3084 2150 3084 
Q 2853 3084 3261 2657 
Q 3669 2231 3669 1497 
Q 3669 778 3244 343 
Q 2819 -91 2113 -91 
Q 1303 -91 875 529 
Q 447 1150 447 2328 
Q 447 3434 972 4092 
Q 1497 4750 2381 4750 
Q 2619 4750 2861 4703 
Q 3103 4656 3366 4563 
z
" transform="scale(0.015625)"/>
       </defs>
       <use xlink:href="#DejaVuSans-30"/>
       <use xlink:href="#DejaVuSans-2e" x="63.623047"/>
       <use xlink:href="#DejaVuSans-30" x="95.410156"/>
       <use xlink:href="#DejaVuSans-30" x="159.033203"/>
       <use xlink:href="#DejaVuSans-36" x="222.65625"/>
      </g>
     </g>
    </g>
    <g id="ytick_5">
     <g id="line2d_14">
      <g>
       <use xlink:href="#ma83ea37c90" x="56.50625" y="69.024" style="stroke: #000000; stroke-width: 0.8"/>
      </g>
     </g>
     <g id="text_15">
      <!-- 0.008 -->
      <g transform="translate(20.878125 72.823219)scale(0.1 -0.1)">
       <use xlink:href="#DejaVuSans-30"/>
       <use xlink:href="#DejaVuSans-2e" x="63.623047"/>
       <use xlink:href="#DejaVuSans-30" x="95.410156"/>
       <use xlink:href="#DejaVuSans-30" x="159.033203"/>
       <use xlink:href="#DejaVuSans-38" x="222.65625"/>
      </g>
     </g>
    </g>
    <g id="ytick_6">
     <g id="line2d_15">
      <g>
       <use xlink:href="#ma83ea37c90" x="56.50625" y="42.144" style="stroke: #000000; stroke-width: 0.8"/>
      </g>
     </g>
     <g id="text_16">
      <!-- 0.010 -->
      <g transform="translate(20.878125 45.943219)scale(0.1 -0.1)">
       <use xlink:href="#DejaVuSans-30"/>
       <use xlink:href="#DejaVuSans-2e" x="63.623047"/>
       <use xlink:href="#DejaVuSans-30" x="95.410156"/>
       <use xlink:href="#DejaVuSans-31" x="159.033203"/>
       <use xlink:href="#DejaVuSans-30" x="222.65625"/>
      </g>
     </g>
    </g>
    <g id="ytick_7">
     <g id="line2d_16">
      <g>
       <use xlink:href="#ma83ea37c90" x="56.50625" y="15.264" style="stroke: #000000; stroke-width: 0.8"/>
      </g>
     </g>
     <g id="text_17">
      <!-- 0.012 -->
      <g transform="translate(20.878125 19.063219)scale(0.1 -0.1)">
       <use xlink:href="#DejaVuSans-30"/>
       <use xlink:href="#DejaVuSans-2e" x="63.623047"/>
       <use xlink:href="#DejaVuSans-30" x="95.410156"/>
       <use xlink:href="#DejaVuSans-31" x="159.033203"/>
       <use xlink:href="#DejaVuSans-32" x="222.65625"/>
      </g>
     </g>
    </g>
    <g id="text_18">
     <!-- PMF -->
     <g transform="translate(14.798438 106.108687)rotate(-90)scale(0.1 -0.1)">
      <defs>
       <path id="DejaVuSans-50" d="M 1259 4147 
L 1259 2394 
L 2053 2394 
Q 2494 2394 2734 2622 
Q 2975 2850 2975 3272 
Q 2975 3691 2734 3919 
Q 2494 4147 2053 4147 
L 1259 4147 
z
M 628 4666 
L 2053 4666 
Q 2838 4666 3239 4311 
Q 3641 3956 3641 3272 
Q 3641 2581 3239 2228 
Q 2838 1875 2053 1875 
L 1259 1875 
L 1259 0 
L 628 0 
L 628 4666 
z
" transform="scale(0.015625)"/>
       <path id="DejaVuSans-4d" d="M 628 4666 
L 1569 4666 
L 2759 1491 
L 3956 4666 
L 4897 4666 
L 4897 0 
L 4281 0 
L 4281 4097 
L 3078 897 
L 2444 897 
L 1241 4097 
L 1241 0 
L 628 0 
L 628 4666 
z
" transform="scale(0.015625)"/>
       <path id="DejaVuSans-46" d="M 628 4666 
L 3309 4666 
L 3309 4134 
L 1259 4134 
L 1259 2759 
L 3109 2759 
L 3109 2228 
L 1259 2228 
L 1259 0 
L 628 0 
L 628 4666 
z
" transform="scale(0.015625)"/>
      </defs>
      <use xlink:href="#DejaVuSans-50"/>
      <use xlink:href="#DejaVuSans-4d" x="60.302734"/>
      <use xlink:href="#DejaVuSans-46" x="146.582031"/>
     </g>
    </g>
   </g>
   <g id="line2d_17">
    <path d="M 55.767527 176.544 
L 106.000718 176.544 
L 106.739441 175.2 
L 107.478165 176.544 
L 108.216888 175.2 
L 108.955612 176.544 
L 111.171782 176.544 
L 111.910505 173.856 
L 113.387952 176.544 
L 114.865399 176.544 
L 115.604122 175.2 
L 117.081569 175.2 
L 117.820293 176.544 
L 119.297739 176.544 
L 120.036463 175.2 
L 120.775186 172.512 
L 121.51391 175.2 
L 122.252633 175.2 
L 122.991356 173.856 
L 123.73008 173.856 
L 124.468803 176.544 
L 125.207527 175.2 
L 128.16242 175.2 
L 128.901144 172.512 
L 130.37859 175.2 
L 131.117314 172.512 
L 132.594761 175.2 
L 133.333484 171.168 
L 134.072207 171.168 
L 134.810931 173.856 
L 136.288378 171.168 
L 137.027101 172.512 
L 137.765824 164.448 
L 138.504548 172.512 
L 139.243271 164.448 
L 139.981995 169.824 
L 140.720718 160.416 
L 141.459441 173.856 
L 142.198165 167.136 
L 142.936888 168.48 
L 144.414335 165.792 
L 145.153059 159.072 
L 145.891782 163.104 
L 146.630505 164.448 
L 147.369229 159.072 
L 148.107952 163.104 
L 148.846676 160.416 
L 149.585399 161.76 
L 150.324122 153.696 
L 151.062846 151.008 
L 151.801569 159.072 
L 152.540293 160.416 
L 153.279016 155.04 
L 154.017739 164.448 
L 154.756463 155.04 
L 155.495186 153.696 
L 156.23391 142.944 
L 156.972633 148.32 
L 157.711356 149.664 
L 158.45008 157.728 
L 159.188803 152.352 
L 159.927527 145.632 
L 160.66625 146.976 
L 161.404973 136.224 
L 162.143697 129.504 
L 162.88242 133.536 
L 163.621144 148.32 
L 164.359867 140.256 
L 165.09859 134.88 
L 165.837314 140.256 
L 166.576037 133.536 
L 167.314761 142.944 
L 168.792207 122.784 
L 169.530931 126.816 
L 170.269654 113.376 
L 171.008378 113.376 
L 171.747101 102.624 
L 172.485824 118.752 
L 173.224548 122.784 
L 173.963271 110.688 
L 174.701995 105.312 
L 175.440718 95.904 
L 176.179441 120.096 
L 176.918165 108 
L 177.656888 102.624 
L 178.395612 105.312 
L 179.134335 64.992 
L 179.873059 83.808 
L 180.611782 110.688 
L 181.350505 83.808 
L 182.089229 102.624 
L 182.827952 93.216 
L 183.566676 94.56 
L 184.305399 86.496 
L 185.044122 85.152 
L 185.782846 75.744 
L 186.521569 63.648 
L 187.260293 62.304 
L 187.999016 77.088 
L 188.737739 79.776 
L 189.476463 89.184 
L 190.215186 44.832 
L 191.692633 62.304 
L 192.431356 83.808 
L 193.17008 67.68 
L 193.908803 60.96 
L 194.647527 60.96 
L 195.38625 55.584 
L 196.124973 58.272 
L 196.863697 54.24 
L 197.60242 54.24 
L 198.341144 40.8 
L 199.079867 46.176 
L 199.81859 55.584 
L 200.557314 62.304 
L 201.296037 40.8 
L 202.034761 40.8 
L 202.773484 52.896 
L 203.512207 47.52 
L 204.250931 32.736 
L 204.989654 54.24 
L 205.728378 24.672 
L 206.467101 28.704 
L 207.205824 30.048 
L 207.944548 17.952 
L 208.683271 32.736 
L 210.160718 50.208 
L 210.899441 30.048 
L 211.638165 40.8 
L 212.376888 64.992 
L 213.115612 15.264 
L 213.854335 24.672 
L 215.331782 67.68 
L 216.070505 35.424 
L 216.809229 52.896 
L 217.547952 47.52 
L 218.286676 32.736 
L 219.025399 26.016 
L 219.764122 48.864 
L 220.502846 58.272 
L 221.241569 24.672 
L 221.980293 66.336 
L 222.719016 54.24 
L 223.457739 69.024 
L 224.196463 34.08 
L 224.935186 64.992 
L 225.67391 63.648 
L 226.412633 63.648 
L 227.151356 78.432 
L 227.89008 52.896 
L 228.628803 74.4 
L 229.367527 60.96 
L 230.10625 74.4 
L 230.844973 73.056 
L 231.583697 87.84 
L 232.32242 56.928 
L 233.061144 85.152 
L 233.799867 106.656 
L 234.53859 70.368 
L 235.277314 73.056 
L 236.016037 87.84 
L 236.754761 78.432 
L 237.493484 97.248 
L 238.232207 105.312 
L 239.709654 87.84 
L 240.448378 117.408 
L 241.187101 87.84 
L 241.925824 90.528 
L 242.664548 102.624 
L 243.403271 94.56 
L 244.880718 125.472 
L 245.619441 108 
L 247.096888 126.816 
L 247.835612 130.848 
L 248.574335 125.472 
L 249.313059 121.44 
L 250.051782 122.784 
L 250.790505 122.784 
L 251.529229 117.408 
L 252.267952 133.536 
L 253.006676 136.224 
L 253.745399 129.504 
L 254.484122 129.504 
L 255.222846 145.632 
L 255.961569 126.816 
L 256.700293 137.568 
L 257.439016 142.944 
L 258.177739 146.976 
L 258.916463 142.944 
L 259.655186 152.352 
L 261.132633 149.664 
L 261.871356 144.288 
L 262.61008 148.32 
L 263.348803 164.448 
L 264.087527 157.728 
L 264.82625 160.416 
L 265.564973 156.384 
L 266.303697 159.072 
L 267.04242 159.072 
L 267.781144 156.384 
L 268.519867 167.136 
L 269.25859 153.696 
L 269.997314 164.448 
L 270.736037 155.04 
L 271.474761 156.384 
L 272.213484 161.76 
L 272.952207 169.824 
L 273.690931 163.104 
L 274.429654 167.136 
L 275.168378 168.48 
L 275.907101 167.136 
L 276.645824 172.512 
L 277.384548 165.792 
L 278.123271 171.168 
L 278.861995 175.2 
L 279.600718 169.824 
L 280.339441 168.48 
L 281.078165 164.448 
L 281.816888 171.168 
L 282.555612 171.168 
L 284.033059 173.856 
L 284.771782 165.792 
L 285.510505 175.2 
L 286.249229 171.168 
L 286.987952 171.168 
L 287.726676 175.2 
L 288.465399 171.168 
L 289.204122 169.824 
L 289.942846 172.512 
L 290.681569 172.512 
L 291.420293 169.824 
L 292.159016 171.168 
L 292.897739 176.544 
L 294.375186 173.856 
L 295.11391 176.544 
L 295.852633 172.512 
L 296.591356 176.544 
L 297.33008 172.512 
L 298.068803 176.544 
L 298.807527 172.512 
L 299.54625 176.544 
L 300.284973 173.856 
L 301.023697 172.512 
L 301.76242 176.544 
L 302.501144 176.544 
L 303.239867 175.2 
L 303.97859 176.544 
L 305.456037 176.544 
L 306.194761 175.2 
L 306.933484 176.544 
L 307.672207 175.2 
L 308.410931 176.544 
L 312.843271 176.544 
L 313.581995 175.2 
L 314.320718 176.544 
L 322.446676 176.544 
L 323.185399 175.2 
L 323.185399 175.2 
" clip-path="url(#pc076502bd6)" style="fill: none; stroke: #ff7f0e; stroke-opacity: 0.5; stroke-width: 1.5; stroke-linecap: square"/>
   </g>
   <g id="line2d_18">
    <path d="M 55.767527 176.543718 
L 95.65859 176.434874 
L 105.261995 176.196529 
L 111.910505 175.81581 
L 117.081569 175.293662 
L 121.51391 174.604154 
L 125.207527 173.79399 
L 128.16242 172.948426 
L 131.117314 171.888919 
L 134.072207 170.576118 
L 137.027101 168.967722 
L 139.243271 167.540859 
L 141.459441 165.903895 
L 143.675612 164.038092 
L 145.891782 161.925408 
L 148.107952 159.549025 
L 150.324122 156.893945 
L 152.540293 153.947623 
L 154.756463 150.700624 
L 157.711356 145.89443 
L 160.66625 140.543334 
L 163.621144 134.663095 
L 166.576037 128.288226 
L 170.269654 119.709612 
L 174.701995 108.729911 
L 187.260293 76.968982 
L 190.215186 70.227404 
L 193.17008 64.095711 
L 195.38625 59.988814 
L 197.60242 56.36943 
L 199.81859 53.290541 
L 201.296037 51.561146 
L 202.773484 50.104003 
L 204.250931 48.928855 
L 205.728378 48.043552 
L 207.205824 47.453963 
L 208.683271 47.163911 
L 210.160718 47.175132 
L 211.638165 47.487259 
L 213.115612 48.097828 
L 214.593059 49.002313 
L 216.070505 50.194177 
L 217.547952 51.664953 
L 219.025399 53.404347 
L 220.502846 55.400351 
L 222.719016 58.845403 
L 224.935186 62.785292 
L 227.151356 67.16248 
L 230.10625 73.571266 
L 233.799867 82.283552 
L 238.970931 95.237825 
L 247.096888 115.636539 
L 250.790505 124.333296 
L 254.484122 132.418517 
L 257.439016 138.366416 
L 260.39391 143.80978 
L 263.348803 148.729106 
L 266.303697 153.121035 
L 268.519867 156.074699 
L 270.736037 158.745995 
L 272.952207 161.146514 
L 275.168378 163.290167 
L 277.384548 165.192601 
L 279.600718 166.87066 
L 282.555612 168.789414 
L 285.510505 170.382646 
L 288.465399 171.691831 
L 291.420293 172.756566 
L 294.375186 173.613711 
L 298.068803 174.443985 
L 301.76242 175.059593 
L 306.194761 175.58267 
L 311.365824 175.979175 
L 318.014335 176.269916 
L 327.617739 176.454772 
L 346.085824 176.536024 
L 369.724973 176.543777 
L 369.724973 176.543777 
" clip-path="url(#pc076502bd6)" style="fill: none; stroke-dasharray: 5.55,2.4; stroke-dashoffset: 0; stroke: #000000; stroke-width: 1.5"/>
   </g>
   <g id="line2d_19">
    <path d="M 55.767527 176.544 
L 168.792207 176.43648 
L 179.873059 176.12736 
L 188.737739 175.38816 
L 192.431356 174.83712 
L 196.124973 174.0576 
L 198.341144 173.47968 
L 202.034761 172.18944 
L 204.250931 171.2352 
L 206.467101 170.10624 
L 209.421995 168.29184 
L 212.376888 166.07424 
L 214.593059 164.112 
L 217.547952 161.06112 
L 219.764122 158.42688 
L 222.719016 154.39488 
L 224.935186 150.96768 
L 227.151356 147.20448 
L 230.10625 141.62688 
L 233.061144 135.43104 
L 236.016037 128.61696 
L 238.970931 121.29216 
L 242.664548 111.4944 
L 247.835612 97.00608 
L 255.961569 74.30592 
L 259.655186 64.89792 
L 262.61008 58.1376 
L 264.82625 53.64864 
L 267.04242 49.72416 
L 268.519867 47.46624 
L 269.997314 45.49056 
L 271.474761 43.83744 
L 272.952207 42.50688 
L 274.429654 41.52576 
L 275.907101 40.8672 
L 277.384548 40.55808 
L 278.861995 40.61184 
L 280.339441 41.0016 
L 281.816888 41.75424 
L 283.294335 42.84288 
L 284.771782 44.24064 
L 286.249229 45.9744 
L 287.726676 48.01728 
L 289.942846 51.6192 
L 292.159016 55.81248 
L 294.375186 60.54336 
L 297.33008 67.53216 
L 300.284973 75.1392 
L 305.456037 89.35872 
L 313.581995 111.95136 
L 317.275612 121.602624 
L 320.230505 128.813184 
L 323.185399 135.49152 
L 326.140293 141.587904 
L 329.095186 147.078144 
L 331.311356 150.790272 
L 333.527527 154.162368 
L 335.743697 157.201152 
L 337.959867 159.921408 
L 340.176037 162.33792 
L 342.392207 164.472192 
L 344.608378 166.341696 
L 346.824548 167.971162 
L 349.040718 169.379942 
L 351.995612 170.953632 
L 354.950505 172.224518 
L 357.905399 173.239373 
L 360.860293 174.040666 
L 364.55391 174.799085 
L 368.98625 175.435173 
L 369.724973 175.518125 
L 369.724973 175.518125 
" clip-path="url(#pc076502bd6)" style="fill: none; stroke-dasharray: 9.6,2.4,1.5,2.4; stroke-dashoffset: 0; stroke: #d62728; stroke-width: 1.5"/>
   </g>
   <g id="line2d_20">
    <path d="M 55.767527 175.34784 
L 59.461144 174.76992 
L 63.893484 173.7216 
L 66.848378 172.76736 
L 69.064548 171.88032 
L 72.019441 170.4288 
L 74.974335 168.60096 
L 77.190505 166.97472 
L 79.406676 165.06624 
L 81.622846 162.88896 
L 83.839016 160.38912 
L 86.055186 157.53984 
L 88.271356 154.35456 
L 90.487527 150.79296 
L 93.44242 145.4304 
L 96.397314 139.3824 
L 99.352207 132.64896 
L 102.307101 125.2704 
L 105.261995 117.3408 
L 109.694335 104.59968 
L 122.252633 67.45152 
L 125.207527 59.66976 
L 128.16242 52.72128 
L 130.37859 48.17856 
L 132.594761 44.28096 
L 134.072207 42.09024 
L 135.549654 40.23552 
L 137.027101 38.73024 
L 138.504548 37.58784 
L 139.981995 36.82176 
L 140.720718 36.5664 
L 142.198165 36.3648 
L 143.675612 36.55296 
L 145.153059 37.13088 
L 146.630505 38.07168 
L 148.107952 39.37536 
L 149.585399 41.04192 
L 151.062846 43.05792 
L 152.540293 45.40992 
L 154.017739 48.04416 
L 156.23391 52.54656 
L 158.45008 57.62688 
L 160.66625 63.1776 
L 163.621144 71.18784 
L 168.053484 84.04992 
L 178.395612 114.401472 
L 182.089229 124.314816 
L 185.044122 131.638272 
L 187.999016 138.343488 
L 190.95391 144.392832 
L 193.17008 148.486656 
L 195.38625 152.205504 
L 197.60242 155.55744 
L 199.81859 158.55456 
L 202.034761 161.214336 
L 204.250931 163.558272 
L 206.467101 165.609216 
L 208.683271 167.390822 
L 210.899441 168.92688 
L 213.115612 170.242522 
L 216.070505 171.694848 
L 219.025399 172.85136 
L 221.980293 173.761248 
L 225.67391 174.618317 
L 229.367527 175.233062 
L 233.799867 175.7351 
L 238.970931 176.096811 
L 246.358165 176.362466 
L 257.439016 176.502371 
L 284.771782 176.543403 
L 369.724973 176.544 
L 369.724973 176.544 
" clip-path="url(#pc076502bd6)" style="fill: none; stroke-dasharray: 7.5,1.5; stroke-dashoffset: 0; stroke: #9467bd; stroke-width: 1.5"/>
   </g>
   <g id="patch_3">
    <path d="M 56.50625 184.608 
L 56.50625 7.2 
" style="fill: none; stroke: #000000; stroke-width: 0.8; stroke-linejoin: miter; stroke-linecap: square"/>
   </g>
   <g id="patch_4">
    <path d="M 368.98625 184.608 
L 368.98625 7.2 
" style="fill: none; stroke: #000000; stroke-width: 0.8; stroke-linejoin: miter; stroke-linecap: square"/>
   </g>
   <g id="patch_5">
    <path d="M 56.50625 184.608 
L 368.98625 184.608 
" style="fill: none; stroke: #000000; stroke-width: 0.8; stroke-linejoin: miter; stroke-linecap: square"/>
   </g>
   <g id="patch_6">
    <path d="M 56.50625 7.2 
L 368.98625 7.2 
" style="fill: none; stroke: #000000; stroke-width: 0.8; stroke-linejoin: miter; stroke-linecap: square"/>
   </g>
   <g id="legend_1">
    <g id="patch_7">
     <path d="M 261.365938 126.76025 
L 361.98625 126.76025 
Q 363.98625 126.76025 363.98625 124.76025 
L 363.98625 67.04775 
Q 363.98625 65.04775 361.98625 65.04775 
L 261.365938 65.04775 
Q 259.365938 65.04775 259.365938 67.04775 
L 259.365938 124.76025 
Q 259.365938 126.76025 261.365938 126.76025 
z
" style="fill: #ffffff; opacity: 0.8; stroke: #cccccc; stroke-linejoin: miter"/>
    </g>
    <g id="line2d_21">
     <path d="M 263.365938 73.146187 
L 273.365938 73.146187 
L 283.365938 73.146187 
" style="fill: none; stroke: #ff7f0e; stroke-opacity: 0.5; stroke-width: 1.5; stroke-linecap: square"/>
    </g>
    <g id="text_19">
     <!-- Gold -->
     <g transform="translate(291.365938 76.646187)scale(0.1 -0.1)">
      <defs>
       <path id="DejaVuSans-47" d="M 3809 666 
L 3809 1919 
L 2778 1919 
L 2778 2438 
L 4434 2438 
L 4434 434 
Q 4069 175 3628 42 
Q 3188 -91 2688 -91 
Q 1594 -91 976 548 
Q 359 1188 359 2328 
Q 359 3472 976 4111 
Q 1594 4750 2688 4750 
Q 3144 4750 3555 4637 
Q 3966 4525 4313 4306 
L 4313 3634 
Q 3963 3931 3569 4081 
Q 3175 4231 2741 4231 
Q 1884 4231 1454 3753 
Q 1025 3275 1025 2328 
Q 1025 1384 1454 906 
Q 1884 428 2741 428 
Q 3075 428 3337 486 
Q 3600 544 3809 666 
z
" transform="scale(0.015625)"/>
       <path id="DejaVuSans-6f" d="M 1959 3097 
Q 1497 3097 1228 2736 
Q 959 2375 959 1747 
Q 959 1119 1226 758 
Q 1494 397 1959 397 
Q 2419 397 2687 759 
Q 2956 1122 2956 1747 
Q 2956 2369 2687 2733 
Q 2419 3097 1959 3097 
z
M 1959 3584 
Q 2709 3584 3137 3096 
Q 3566 2609 3566 1747 
Q 3566 888 3137 398 
Q 2709 -91 1959 -91 
Q 1206 -91 779 398 
Q 353 888 353 1747 
Q 353 2609 779 3096 
Q 1206 3584 1959 3584 
z
" transform="scale(0.015625)"/>
       <path id="DejaVuSans-6c" d="M 603 4863 
L 1178 4863 
L 1178 0 
L 603 0 
L 603 4863 
z
" transform="scale(0.015625)"/>
       <path id="DejaVuSans-64" d="M 2906 2969 
L 2906 4863 
L 3481 4863 
L 3481 0 
L 2906 0 
L 2906 525 
Q 2725 213 2448 61 
Q 2172 -91 1784 -91 
Q 1150 -91 751 415 
Q 353 922 353 1747 
Q 353 2572 751 3078 
Q 1150 3584 1784 3584 
Q 2172 3584 2448 3432 
Q 2725 3281 2906 2969 
z
M 947 1747 
Q 947 1113 1208 752 
Q 1469 391 1925 391 
Q 2381 391 2643 752 
Q 2906 1113 2906 1747 
Q 2906 2381 2643 2742 
Q 2381 3103 1925 3103 
Q 1469 3103 1208 2742 
Q 947 2381 947 1747 
z
" transform="scale(0.015625)"/>
      </defs>
      <use xlink:href="#DejaVuSans-47"/>
      <use xlink:href="#DejaVuSans-6f" x="77.490234"/>
      <use xlink:href="#DejaVuSans-6c" x="138.671875"/>
      <use xlink:href="#DejaVuSans-64" x="166.455078"/>
     </g>
    </g>
    <g id="line2d_22">
     <path d="M 263.365938 87.824312 
L 273.365938 87.824312 
L 283.365938 87.824312 
" style="fill: none; stroke-dasharray: 5.55,2.4; stroke-dashoffset: 0; stroke: #000000; stroke-width: 1.5"/>
    </g>
    <g id="text_20">
     <!-- MCDP -->
     <g transform="translate(291.365938 91.324312)scale(0.1 -0.1)">
      <defs>
       <path id="DejaVuSans-43" d="M 4122 4306 
L 4122 3641 
Q 3803 3938 3442 4084 
Q 3081 4231 2675 4231 
Q 1875 4231 1450 3742 
Q 1025 3253 1025 2328 
Q 1025 1406 1450 917 
Q 1875 428 2675 428 
Q 3081 428 3442 575 
Q 3803 722 4122 1019 
L 4122 359 
Q 3791 134 3420 21 
Q 3050 -91 2638 -91 
Q 1578 -91 968 557 
Q 359 1206 359 2328 
Q 359 3453 968 4101 
Q 1578 4750 2638 4750 
Q 3056 4750 3426 4639 
Q 3797 4528 4122 4306 
z
" transform="scale(0.015625)"/>
       <path id="DejaVuSans-44" d="M 1259 4147 
L 1259 519 
L 2022 519 
Q 2988 519 3436 956 
Q 3884 1394 3884 2338 
Q 3884 3275 3436 3711 
Q 2988 4147 2022 4147 
L 1259 4147 
z
M 628 4666 
L 1925 4666 
Q 3281 4666 3915 4102 
Q 4550 3538 4550 2338 
Q 4550 1131 3912 565 
Q 3275 0 1925 0 
L 628 0 
L 628 4666 
z
" transform="scale(0.015625)"/>
      </defs>
      <use xlink:href="#DejaVuSans-4d"/>
      <use xlink:href="#DejaVuSans-43" x="86.279297"/>
      <use xlink:href="#DejaVuSans-44" x="156.103516"/>
      <use xlink:href="#DejaVuSans-50" x="233.105469"/>
     </g>
    </g>
    <g id="line2d_23">
     <path d="M 263.365938 102.502437 
L 273.365938 102.502437 
L 283.365938 102.502437 
" style="fill: none; stroke-dasharray: 9.6,2.4,1.5,2.4; stroke-dashoffset: 0; stroke: #d62728; stroke-width: 1.5"/>
    </g>
    <g id="text_21">
     <!-- SBDP (ν=10⁴) -->
     <g transform="translate(291.365938 106.002437)scale(0.1 -0.1)">
      <defs>
       <path id="DejaVuSans-53" d="M 3425 4513 
L 3425 3897 
Q 3066 4069 2747 4153 
Q 2428 4238 2131 4238 
Q 1616 4238 1336 4038 
Q 1056 3838 1056 3469 
Q 1056 3159 1242 3001 
Q 1428 2844 1947 2747 
L 2328 2669 
Q 3034 2534 3370 2195 
Q 3706 1856 3706 1288 
Q 3706 609 3251 259 
Q 2797 -91 1919 -91 
Q 1588 -91 1214 -16 
Q 841 59 441 206 
L 441 856 
Q 825 641 1194 531 
Q 1563 422 1919 422 
Q 2459 422 2753 634 
Q 3047 847 3047 1241 
Q 3047 1584 2836 1778 
Q 2625 1972 2144 2069 
L 1759 2144 
Q 1053 2284 737 2584 
Q 422 2884 422 3419 
Q 422 4038 858 4394 
Q 1294 4750 2059 4750 
Q 2388 4750 2728 4690 
Q 3069 4631 3425 4513 
z
" transform="scale(0.015625)"/>
       <path id="DejaVuSans-42" d="M 1259 2228 
L 1259 519 
L 2272 519 
Q 2781 519 3026 730 
Q 3272 941 3272 1375 
Q 3272 1813 3026 2020 
Q 2781 2228 2272 2228 
L 1259 2228 
z
M 1259 4147 
L 1259 2741 
L 2194 2741 
Q 2656 2741 2882 2914 
Q 3109 3088 3109 3444 
Q 3109 3797 2882 3972 
Q 2656 4147 2194 4147 
L 1259 4147 
z
M 628 4666 
L 2241 4666 
Q 2963 4666 3353 4366 
Q 3744 4066 3744 3513 
Q 3744 3084 3544 2831 
Q 3344 2578 2956 2516 
Q 3422 2416 3680 2098 
Q 3938 1781 3938 1306 
Q 3938 681 3513 340 
Q 3088 0 2303 0 
L 628 0 
L 628 4666 
z
" transform="scale(0.015625)"/>
       <path id="DejaVuSans-20" transform="scale(0.015625)"/>
       <path id="DejaVuSans-28" d="M 1984 4856 
Q 1566 4138 1362 3434 
Q 1159 2731 1159 2009 
Q 1159 1288 1364 580 
Q 1569 -128 1984 -844 
L 1484 -844 
Q 1016 -109 783 600 
Q 550 1309 550 2009 
Q 550 2706 781 3412 
Q 1013 4119 1484 4856 
L 1984 4856 
z
" transform="scale(0.015625)"/>
       <path id="DejaVuSans-3bd" d="M 1300 0 
L 231 3500 
L 850 3500 
L 1753 563 
Q 2128 950 2441 1488 
Q 2678 1891 2691 2241 
Q 2697 2406 2622 2719 
Q 2534 3091 2203 3500 
L 2784 3500 
L 2784 3500 
Q 3000 3222 3144 2834 
Q 3275 2478 3275 2234 
Q 3275 1622 2850 1075 
Q 2297 363 1913 0 
L 1300 0 
z
" transform="scale(0.015625)"/>
       <path id="DejaVuSans-3d" d="M 678 2906 
L 4684 2906 
L 4684 2381 
L 678 2381 
L 678 2906 
z
M 678 1631 
L 4684 1631 
L 4684 1100 
L 678 1100 
L 678 1631 
z
" transform="scale(0.015625)"/>
       <path id="DejaVuSans-2074" d="M 1491 4319 
L 525 3009 
L 1491 3009 
L 1491 4319 
z
M 1422 4697 
L 1941 4697 
L 1941 3009 
L 2363 3009 
L 2363 2669 
L 1941 2669 
L 1941 2088 
L 1491 2088 
L 1491 2669 
L 197 2669 
L 197 3047 
L 1422 4697 
z
" transform="scale(0.015625)"/>
       <path id="DejaVuSans-29" d="M 513 4856 
L 1013 4856 
Q 1481 4119 1714 3412 
Q 1947 2706 1947 2009 
Q 1947 1309 1714 600 
Q 1481 -109 1013 -844 
L 513 -844 
Q 928 -128 1133 580 
Q 1338 1288 1338 2009 
Q 1338 2731 1133 3434 
Q 928 4138 513 4856 
z
" transform="scale(0.015625)"/>
      </defs>
      <use xlink:href="#DejaVuSans-53"/>
      <use xlink:href="#DejaVuSans-42" x="63.476562"/>
      <use xlink:href="#DejaVuSans-44" x="132.080078"/>
      <use xlink:href="#DejaVuSans-50" x="209.082031"/>
      <use xlink:href="#DejaVuSans-20" x="269.384766"/>
      <use xlink:href="#DejaVuSans-28" x="301.171875"/>
      <use xlink:href="#DejaVuSans-3bd" x="340.185547"/>
      <use xlink:href="#DejaVuSans-3d" x="396.044922"/>
      <use xlink:href="#DejaVuSans-31" x="479.833984"/>
      <use xlink:href="#DejaVuSans-30" x="543.457031"/>
      <use xlink:href="#DejaVuSans-2074" x="607.080078"/>
      <use xlink:href="#DejaVuSans-29" x="647.167969"/>
     </g>
    </g>
    <g id="line2d_24">
     <path d="M 263.365938 117.180562 
L 273.365938 117.180562 
L 283.365938 117.180562 
" style="fill: none; stroke-dasharray: 7.5,1.5; stroke-dashoffset: 0; stroke: #9467bd; stroke-width: 1.5"/>
    </g>
    <g id="text_22">
     <!-- SBDP (ν=10³) -->
     <g transform="translate(291.365938 120.680562)scale(0.1 -0.1)">
      <defs>
       <path id="DejaVuSans-b3" d="M 1638 3500 
Q 1925 3444 2083 3273 
Q 2241 3103 2241 2847 
Q 2241 2459 1944 2250 
Q 1647 2041 1094 2041 
Q 916 2041 720 2073 
Q 525 2106 306 2169 
L 306 2547 
Q 469 2463 655 2422 
Q 841 2381 1050 2381 
Q 1391 2381 1578 2504 
Q 1766 2628 1766 2847 
Q 1766 3078 1592 3197 
Q 1419 3316 1081 3316 
L 813 3316 
L 813 3653 
L 1106 3653 
Q 1400 3653 1551 3751 
Q 1703 3850 1703 4038 
Q 1703 4219 1547 4314 
Q 1391 4409 1094 4409 
Q 969 4409 809 4381 
Q 650 4353 397 4281 
L 397 4641 
Q 625 4694 825 4722 
Q 1025 4750 1197 4750 
Q 1647 4750 1911 4565 
Q 2175 4381 2175 4072 
Q 2175 3856 2034 3706 
Q 1894 3556 1638 3500 
z
" transform="scale(0.015625)"/>
      </defs>
      <use xlink:href="#DejaVuSans-53"/>
      <use xlink:href="#DejaVuSans-42" x="63.476562"/>
      <use xlink:href="#DejaVuSans-44" x="132.080078"/>
      <use xlink:href="#DejaVuSans-50" x="209.082031"/>
      <use xlink:href="#DejaVuSans-20" x="269.384766"/>
      <use xlink:href="#DejaVuSans-28" x="301.171875"/>
      <use xlink:href="#DejaVuSans-3bd" x="340.185547"/>
      <use xlink:href="#DejaVuSans-3d" x="396.044922"/>
      <use xlink:href="#DejaVuSans-31" x="479.833984"/>
      <use xlink:href="#DejaVuSans-30" x="543.457031"/>
      <use xlink:href="#DejaVuSans-b3" x="607.080078"/>
      <use xlink:href="#DejaVuSans-29" x="647.167969"/>
     </g>
    </g>
   </g>
  </g>
 </g>
 <defs>
  <clipPath id="pc076502bd6">
   <rect x="56.50625" y="7.2" width="312.48" height="177.408"/>
  </clipPath>
 </defs>
</svg>
