<?xml version="1.0" encoding="utf-8" standalone="no"?>
<!DOCTYPE svg PUBLIC "-//W3C//DTD SVG 1.1//EN"
  "http://www.w3.org/Graphics/SVG/1.1/DTD/svg11.dtd">
<svg xmlns:xlink="http://www.w3.org/1999/xlink" width="337.578125pt" height="211.07625pt" viewBox="0 0 337.578125 211.07625" xmlns="http://www.w3.org/2000/svg" version="1.1">
 <metadata>
  <rdf:RDF xmlns:dc="http://purl.org/dc/elements/1.1/" xmlns:cc="http://creativecommons.org/ns#" xmlns:rdf="http://www.w3.org/1999/02/22-rdf-syntax-ns#">
   <cc:Work>
    <dc:type rdf:resource="http://purl.org/dc/dcmitype/StillImage"/>
    <dc:date>2022-01-06T15:51:02.403247</dc:date>
    <dc:format>image/svg+xml</dc:format>
    <dc:creator>
     <cc:Agent>
      <dc:title>Matplotlib v3.5.0, https://matplotlib.org/</dc:title>
     </cc:Agent>
    </dc:creator>
   </cc:Work>
  </rdf:RDF>
 </metadata>
 <defs>
  <style type="text/css">*{stroke-linejoin: round; stroke-linecap: butt}</style>
 </defs>
 <g id="figure_1">
  <g id="patch_1">
   <path d="M 0 211.07625 
L 337.578125 211.07625 
L 337.578125 0 
L 0 0 
z
" style="fill: #ffffff"/>
  </g>
  <g id="axes_1">
   <g id="patch_2">
    <path d="M 51.378125 173.52 
L 330.378125 173.52 
L 330.378125 7.2 
L 51.378125 7.2 
z
" style="fill: #ffffff"/>
   </g>
   <g id="matplotlib.axis_1">
    <g id="xtick_1">
     <g id="line2d_1">
      <defs>
       <path id="mf8d841b197" d="M 0 0 
L 0 3.5 
" style="stroke: #000000; stroke-width: 0.8"/>
      </defs>
      <g>
       <use xlink:href="#mf8d841b197" x="61.49796" y="173.52" style="stroke: #000000; stroke-width: 0.8"/>
      </g>
     </g>
     <g id="text_1">
      <!-- 0.0 -->
      <g transform="translate(53.546397 188.118438)scale(0.1 -0.1)">
       <defs>
        <path id="DejaVuSans-30" d="M 2034 4250 
Q 1547 4250 1301 3770 
Q 1056 3291 1056 2328 
Q 1056 1369 1301 889 
Q 1547 409 2034 409 
Q 2525 409 2770 889 
Q 3016 1369 3016 2328 
Q 3016 3291 2770 3770 
Q 2525 4250 2034 4250 
z
M 2034 4750 
Q 2819 4750 3233 4129 
Q 3647 3509 3647 2328 
Q 3647 1150 3233 529 
Q 2819 -91 2034 -91 
Q 1250 -91 836 529 
Q 422 1150 422 2328 
Q 422 3509 836 4129 
Q 1250 4750 2034 4750 
z
" transform="scale(0.015625)"/>
        <path id="DejaVuSans-2e" d="M 684 794 
L 1344 794 
L 1344 0 
L 684 0 
L 684 794 
z
" transform="scale(0.015625)"/>
       </defs>
       <use xlink:href="#DejaVuSans-30"/>
       <use xlink:href="#DejaVuSans-2e" x="63.623047"/>
       <use xlink:href="#DejaVuSans-30" x="95.410156"/>
      </g>
     </g>
    </g>
    <g id="xtick_2">
     <g id="line2d_2">
      <g>
       <use xlink:href="#mf8d841b197" x="112.737629" y="173.52" style="stroke: #000000; stroke-width: 0.8"/>
      </g>
     </g>
     <g id="text_2">
      <!-- 0.1 -->
      <g transform="translate(104.786067 188.118438)scale(0.1 -0.1)">
       <defs>
        <path id="DejaVuSans-31" d="M 794 531 
L 1825 531 
L 1825 4091 
L 703 3866 
L 703 4441 
L 1819 4666 
L 2450 4666 
L 2450 531 
L 3481 531 
L 3481 0 
L 794 0 
L 794 531 
z
" transform="scale(0.015625)"/>
       </defs>
       <use xlink:href="#DejaVuSans-30"/>
       <use xlink:href="#DejaVuSans-2e" x="63.623047"/>
       <use xlink:href="#DejaVuSans-31" x="95.410156"/>
      </g>
     </g>
    </g>
    <g id="xtick_3">
     <g id="line2d_3">
      <g>
       <use xlink:href="#mf8d841b197" x="163.977299" y="173.52" style="stroke: #000000; stroke-width: 0.8"/>
      </g>
     </g>
     <g id="text_3">
      <!-- 0.2 -->
      <g transform="translate(156.025736 188.118438)scale(0.1 -0.1)">
       <defs>
        <path id="DejaVuSans-32" d="M 1228 531 
L 3431 531 
L 3431 0 
L 469 0 
L 469 531 
Q 828 903 1448 1529 
Q 2069 2156 2228 2338 
Q 2531 2678 2651 2914 
Q 2772 3150 2772 3378 
Q 2772 3750 2511 3984 
Q 2250 4219 1831 4219 
Q 1534 4219 1204 4116 
Q 875 4013 500 3803 
L 500 4441 
Q 881 4594 1212 4672 
Q 1544 4750 1819 4750 
Q 2544 4750 2975 4387 
Q 3406 4025 3406 3419 
Q 3406 3131 3298 2873 
Q 3191 2616 2906 2266 
Q 2828 2175 2409 1742 
Q 1991 1309 1228 531 
z
" transform="scale(0.015625)"/>
       </defs>
       <use xlink:href="#DejaVuSans-30"/>
       <use xlink:href="#DejaVuSans-2e" x="63.623047"/>
       <use xlink:href="#DejaVuSans-32" x="95.410156"/>
      </g>
     </g>
    </g>
    <g id="xtick_4">
     <g id="line2d_4">
      <g>
       <use xlink:href="#mf8d841b197" x="215.216968" y="173.52" style="stroke: #000000; stroke-width: 0.8"/>
      </g>
     </g>
     <g id="text_4">
      <!-- 0.3 -->
      <g transform="translate(207.265405 188.118438)scale(0.1 -0.1)">
       <defs>
        <path id="DejaVuSans-33" d="M 2597 2516 
Q 3050 2419 3304 2112 
Q 3559 1806 3559 1356 
Q 3559 666 3084 287 
Q 2609 -91 1734 -91 
Q 1441 -91 1130 -33 
Q 819 25 488 141 
L 488 750 
Q 750 597 1062 519 
Q 1375 441 1716 441 
Q 2309 441 2620 675 
Q 2931 909 2931 1356 
Q 2931 1769 2642 2001 
Q 2353 2234 1838 2234 
L 1294 2234 
L 1294 2753 
L 1863 2753 
Q 2328 2753 2575 2939 
Q 2822 3125 2822 3475 
Q 2822 3834 2567 4026 
Q 2313 4219 1838 4219 
Q 1578 4219 1281 4162 
Q 984 4106 628 3988 
L 628 4550 
Q 988 4650 1302 4700 
Q 1616 4750 1894 4750 
Q 2613 4750 3031 4423 
Q 3450 4097 3450 3541 
Q 3450 3153 3228 2886 
Q 3006 2619 2597 2516 
z
" transform="scale(0.015625)"/>
       </defs>
       <use xlink:href="#DejaVuSans-30"/>
       <use xlink:href="#DejaVuSans-2e" x="63.623047"/>
       <use xlink:href="#DejaVuSans-33" x="95.410156"/>
      </g>
     </g>
    </g>
    <g id="xtick_5">
     <g id="line2d_5">
      <g>
       <use xlink:href="#mf8d841b197" x="266.456637" y="173.52" style="stroke: #000000; stroke-width: 0.8"/>
      </g>
     </g>
     <g id="text_5">
      <!-- 0.4 -->
      <g transform="translate(258.505075 188.118438)scale(0.1 -0.1)">
       <defs>
        <path id="DejaVuSans-34" d="M 2419 4116 
L 825 1625 
L 2419 1625 
L 2419 4116 
z
M 2253 4666 
L 3047 4666 
L 3047 1625 
L 3713 1625 
L 3713 1100 
L 3047 1100 
L 3047 0 
L 2419 0 
L 2419 1100 
L 313 1100 
L 313 1709 
L 2253 4666 
z
" transform="scale(0.015625)"/>
       </defs>
       <use xlink:href="#DejaVuSans-30"/>
       <use xlink:href="#DejaVuSans-2e" x="63.623047"/>
       <use xlink:href="#DejaVuSans-34" x="95.410156"/>
      </g>
     </g>
    </g>
    <g id="xtick_6">
     <g id="line2d_6">
      <g>
       <use xlink:href="#mf8d841b197" x="317.696307" y="173.52" style="stroke: #000000; stroke-width: 0.8"/>
      </g>
     </g>
     <g id="text_6">
      <!-- 0.5 -->
      <g transform="translate(309.744744 188.118438)scale(0.1 -0.1)">
       <defs>
        <path id="DejaVuSans-35" d="M 691 4666 
L 3169 4666 
L 3169 4134 
L 1269 4134 
L 1269 2991 
Q 1406 3038 1543 3061 
Q 1681 3084 1819 3084 
Q 2600 3084 3056 2656 
Q 3513 2228 3513 1497 
Q 3513 744 3044 326 
Q 2575 -91 1722 -91 
Q 1428 -91 1123 -41 
Q 819 9 494 109 
L 494 744 
Q 775 591 1075 516 
Q 1375 441 1709 441 
Q 2250 441 2565 725 
Q 2881 1009 2881 1497 
Q 2881 1984 2565 2268 
Q 2250 2553 1709 2553 
Q 1456 2553 1204 2497 
Q 953 2441 691 2322 
L 691 4666 
z
" transform="scale(0.015625)"/>
       </defs>
       <use xlink:href="#DejaVuSans-30"/>
       <use xlink:href="#DejaVuSans-2e" x="63.623047"/>
       <use xlink:href="#DejaVuSans-35" x="95.410156"/>
      </g>
     </g>
    </g>
    <g id="text_7">
     <!-- Query density -->
     <g transform="translate(155.760156 201.796563)scale(0.1 -0.1)">
      <defs>
       <path id="DejaVuSans-51" d="M 2522 4238 
Q 1834 4238 1429 3725 
Q 1025 3213 1025 2328 
Q 1025 1447 1429 934 
Q 1834 422 2522 422 
Q 3209 422 3611 934 
Q 4013 1447 4013 2328 
Q 4013 3213 3611 3725 
Q 3209 4238 2522 4238 
z
M 3406 84 
L 4238 -825 
L 3475 -825 
L 2784 -78 
Q 2681 -84 2626 -87 
Q 2572 -91 2522 -91 
Q 1538 -91 948 567 
Q 359 1225 359 2328 
Q 359 3434 948 4092 
Q 1538 4750 2522 4750 
Q 3503 4750 4090 4092 
Q 4678 3434 4678 2328 
Q 4678 1516 4351 937 
Q 4025 359 3406 84 
z
" transform="scale(0.015625)"/>
       <path id="DejaVuSans-75" d="M 544 1381 
L 544 3500 
L 1119 3500 
L 1119 1403 
Q 1119 906 1312 657 
Q 1506 409 1894 409 
Q 2359 409 2629 706 
Q 2900 1003 2900 1516 
L 2900 3500 
L 3475 3500 
L 3475 0 
L 2900 0 
L 2900 538 
Q 2691 219 2414 64 
Q 2138 -91 1772 -91 
Q 1169 -91 856 284 
Q 544 659 544 1381 
z
M 1991 3584 
L 1991 3584 
z
" transform="scale(0.015625)"/>
       <path id="DejaVuSans-65" d="M 3597 1894 
L 3597 1613 
L 953 1613 
Q 991 1019 1311 708 
Q 1631 397 2203 397 
Q 2534 397 2845 478 
Q 3156 559 3463 722 
L 3463 178 
Q 3153 47 2828 -22 
Q 2503 -91 2169 -91 
Q 1331 -91 842 396 
Q 353 884 353 1716 
Q 353 2575 817 3079 
Q 1281 3584 2069 3584 
Q 2775 3584 3186 3129 
Q 3597 2675 3597 1894 
z
M 3022 2063 
Q 3016 2534 2758 2815 
Q 2500 3097 2075 3097 
Q 1594 3097 1305 2825 
Q 1016 2553 972 2059 
L 3022 2063 
z
" transform="scale(0.015625)"/>
       <path id="DejaVuSans-72" d="M 2631 2963 
Q 2534 3019 2420 3045 
Q 2306 3072 2169 3072 
Q 1681 3072 1420 2755 
Q 1159 2438 1159 1844 
L 1159 0 
L 581 0 
L 581 3500 
L 1159 3500 
L 1159 2956 
Q 1341 3275 1631 3429 
Q 1922 3584 2338 3584 
Q 2397 3584 2469 3576 
Q 2541 3569 2628 3553 
L 2631 2963 
z
" transform="scale(0.015625)"/>
       <path id="DejaVuSans-79" d="M 2059 -325 
Q 1816 -950 1584 -1140 
Q 1353 -1331 966 -1331 
L 506 -1331 
L 506 -850 
L 844 -850 
Q 1081 -850 1212 -737 
Q 1344 -625 1503 -206 
L 1606 56 
L 191 3500 
L 800 3500 
L 1894 763 
L 2988 3500 
L 3597 3500 
L 2059 -325 
z
" transform="scale(0.015625)"/>
       <path id="DejaVuSans-20" transform="scale(0.015625)"/>
       <path id="DejaVuSans-64" d="M 2906 2969 
L 2906 4863 
L 3481 4863 
L 3481 0 
L 2906 0 
L 2906 525 
Q 2725 213 2448 61 
Q 2172 -91 1784 -91 
Q 1150 -91 751 415 
Q 353 922 353 1747 
Q 353 2572 751 3078 
Q 1150 3584 1784 3584 
Q 2172 3584 2448 3432 
Q 2725 3281 2906 2969 
z
M 947 1747 
Q 947 1113 1208 752 
Q 1469 391 1925 391 
Q 2381 391 2643 752 
Q 2906 1113 2906 1747 
Q 2906 2381 2643 2742 
Q 2381 3103 1925 3103 
Q 1469 3103 1208 2742 
Q 947 2381 947 1747 
z
" transform="scale(0.015625)"/>
       <path id="DejaVuSans-6e" d="M 3513 2113 
L 3513 0 
L 2938 0 
L 2938 2094 
Q 2938 2591 2744 2837 
Q 2550 3084 2163 3084 
Q 1697 3084 1428 2787 
Q 1159 2491 1159 1978 
L 1159 0 
L 581 0 
L 581 3500 
L 1159 3500 
L 1159 2956 
Q 1366 3272 1645 3428 
Q 1925 3584 2291 3584 
Q 2894 3584 3203 3211 
Q 3513 2838 3513 2113 
z
" transform="scale(0.015625)"/>
       <path id="DejaVuSans-73" d="M 2834 3397 
L 2834 2853 
Q 2591 2978 2328 3040 
Q 2066 3103 1784 3103 
Q 1356 3103 1142 2972 
Q 928 2841 928 2578 
Q 928 2378 1081 2264 
Q 1234 2150 1697 2047 
L 1894 2003 
Q 2506 1872 2764 1633 
Q 3022 1394 3022 966 
Q 3022 478 2636 193 
Q 2250 -91 1575 -91 
Q 1294 -91 989 -36 
Q 684 19 347 128 
L 347 722 
Q 666 556 975 473 
Q 1284 391 1588 391 
Q 1994 391 2212 530 
Q 2431 669 2431 922 
Q 2431 1156 2273 1281 
Q 2116 1406 1581 1522 
L 1381 1569 
Q 847 1681 609 1914 
Q 372 2147 372 2553 
Q 372 3047 722 3315 
Q 1072 3584 1716 3584 
Q 2034 3584 2315 3537 
Q 2597 3491 2834 3397 
z
" transform="scale(0.015625)"/>
       <path id="DejaVuSans-69" d="M 603 3500 
L 1178 3500 
L 1178 0 
L 603 0 
L 603 3500 
z
M 603 4863 
L 1178 4863 
L 1178 4134 
L 603 4134 
L 603 4863 
z
" transform="scale(0.015625)"/>
       <path id="DejaVuSans-74" d="M 1172 4494 
L 1172 3500 
L 2356 3500 
L 2356 3053 
L 1172 3053 
L 1172 1153 
Q 1172 725 1289 603 
Q 1406 481 1766 481 
L 2356 481 
L 2356 0 
L 1766 0 
Q 1100 0 847 248 
Q 594 497 594 1153 
L 594 3053 
L 172 3053 
L 172 3500 
L 594 3500 
L 594 4494 
L 1172 4494 
z
" transform="scale(0.015625)"/>
      </defs>
      <use xlink:href="#DejaVuSans-51"/>
      <use xlink:href="#DejaVuSans-75" x="78.710938"/>
      <use xlink:href="#DejaVuSans-65" x="142.089844"/>
      <use xlink:href="#DejaVuSans-72" x="203.613281"/>
      <use xlink:href="#DejaVuSans-79" x="244.726562"/>
      <use xlink:href="#DejaVuSans-20" x="303.90625"/>
      <use xlink:href="#DejaVuSans-64" x="335.693359"/>
      <use xlink:href="#DejaVuSans-65" x="399.169922"/>
      <use xlink:href="#DejaVuSans-6e" x="460.693359"/>
      <use xlink:href="#DejaVuSans-73" x="524.072266"/>
      <use xlink:href="#DejaVuSans-69" x="576.171875"/>
      <use xlink:href="#DejaVuSans-74" x="603.955078"/>
      <use xlink:href="#DejaVuSans-79" x="643.164062"/>
     </g>
    </g>
   </g>
   <g id="matplotlib.axis_2">
    <g id="ytick_1">
     <g id="line2d_7">
      <defs>
       <path id="mcad466c905" d="M 0 0 
L -3.5 0 
" style="stroke: #000000; stroke-width: 0.8"/>
      </defs>
      <g>
       <use xlink:href="#mcad466c905" x="51.378125" y="153.355934" style="stroke: #000000; stroke-width: 0.8"/>
      </g>
     </g>
     <g id="text_8">
      <!-- $\mathdefault{10^{-6}}$ -->
      <g transform="translate(20.878125 157.155153)scale(0.1 -0.1)">
       <defs>
        <path id="DejaVuSans-2212" d="M 678 2272 
L 4684 2272 
L 4684 1741 
L 678 1741 
L 678 2272 
z
" transform="scale(0.015625)"/>
        <path id="DejaVuSans-36" d="M 2113 2584 
Q 1688 2584 1439 2293 
Q 1191 2003 1191 1497 
Q 1191 994 1439 701 
Q 1688 409 2113 409 
Q 2538 409 2786 701 
Q 3034 994 3034 1497 
Q 3034 2003 2786 2293 
Q 2538 2584 2113 2584 
z
M 3366 4563 
L 3366 3988 
Q 3128 4100 2886 4159 
Q 2644 4219 2406 4219 
Q 1781 4219 1451 3797 
Q 1122 3375 1075 2522 
Q 1259 2794 1537 2939 
Q 1816 3084 2150 3084 
Q 2853 3084 3261 2657 
Q 3669 2231 3669 1497 
Q 3669 778 3244 343 
Q 2819 -91 2113 -91 
Q 1303 -91 875 529 
Q 447 1150 447 2328 
Q 447 3434 972 4092 
Q 1497 4750 2381 4750 
Q 2619 4750 2861 4703 
Q 3103 4656 3366 4563 
z
" transform="scale(0.015625)"/>
       </defs>
       <use xlink:href="#DejaVuSans-31" transform="translate(0 0.765625)"/>
       <use xlink:href="#DejaVuSans-30" transform="translate(63.623047 0.765625)"/>
       <use xlink:href="#DejaVuSans-2212" transform="translate(128.203125 39.046875)scale(0.7)"/>
       <use xlink:href="#DejaVuSans-36" transform="translate(186.855469 39.046875)scale(0.7)"/>
      </g>
     </g>
    </g>
    <g id="ytick_2">
     <g id="line2d_8">
      <g>
       <use xlink:href="#mcad466c905" x="51.378125" y="131.693325" style="stroke: #000000; stroke-width: 0.8"/>
      </g>
     </g>
     <g id="text_9">
      <!-- $\mathdefault{10^{-4}}$ -->
      <g transform="translate(20.878125 135.492544)scale(0.1 -0.1)">
       <use xlink:href="#DejaVuSans-31" transform="translate(0 0.684375)"/>
       <use xlink:href="#DejaVuSans-30" transform="translate(63.623047 0.684375)"/>
       <use xlink:href="#DejaVuSans-2212" transform="translate(128.203125 38.965625)scale(0.7)"/>
       <use xlink:href="#DejaVuSans-34" transform="translate(186.855469 38.965625)scale(0.7)"/>
      </g>
     </g>
    </g>
    <g id="ytick_3">
     <g id="line2d_9">
      <g>
       <use xlink:href="#mcad466c905" x="51.378125" y="110.030716" style="stroke: #000000; stroke-width: 0.8"/>
      </g>
     </g>
     <g id="text_10">
      <!-- $\mathdefault{10^{-2}}$ -->
      <g transform="translate(20.878125 113.829935)scale(0.1 -0.1)">
       <use xlink:href="#DejaVuSans-31" transform="translate(0 0.765625)"/>
       <use xlink:href="#DejaVuSans-30" transform="translate(63.623047 0.765625)"/>
       <use xlink:href="#DejaVuSans-2212" transform="translate(128.203125 39.046875)scale(0.7)"/>
       <use xlink:href="#DejaVuSans-32" transform="translate(186.855469 39.046875)scale(0.7)"/>
      </g>
     </g>
    </g>
    <g id="ytick_4">
     <g id="line2d_10">
      <g>
       <use xlink:href="#mcad466c905" x="51.378125" y="88.368107" style="stroke: #000000; stroke-width: 0.8"/>
      </g>
     </g>
     <g id="text_11">
      <!-- $\mathdefault{10^{0}}$ -->
      <g transform="translate(26.778125 92.167326)scale(0.1 -0.1)">
       <use xlink:href="#DejaVuSans-31" transform="translate(0 0.765625)"/>
       <use xlink:href="#DejaVuSans-30" transform="translate(63.623047 0.765625)"/>
       <use xlink:href="#DejaVuSans-30" transform="translate(128.203125 39.046875)scale(0.7)"/>
      </g>
     </g>
    </g>
    <g id="ytick_5">
     <g id="line2d_11">
      <g>
       <use xlink:href="#mcad466c905" x="51.378125" y="66.705499" style="stroke: #000000; stroke-width: 0.8"/>
      </g>
     </g>
     <g id="text_12">
      <!-- $\mathdefault{10^{2}}$ -->
      <g transform="translate(26.778125 70.504717)scale(0.1 -0.1)">
       <use xlink:href="#DejaVuSans-31" transform="translate(0 0.765625)"/>
       <use xlink:href="#DejaVuSans-30" transform="translate(63.623047 0.765625)"/>
       <use xlink:href="#DejaVuSans-32" transform="translate(128.203125 39.046875)scale(0.7)"/>
      </g>
     </g>
    </g>
    <g id="ytick_6">
     <g id="line2d_12">
      <g>
       <use xlink:href="#mcad466c905" x="51.378125" y="45.04289" style="stroke: #000000; stroke-width: 0.8"/>
      </g>
     </g>
     <g id="text_13">
      <!-- $\mathdefault{10^{4}}$ -->
      <g transform="translate(26.778125 48.842108)scale(0.1 -0.1)">
       <use xlink:href="#DejaVuSans-31" transform="translate(0 0.684375)"/>
       <use xlink:href="#DejaVuSans-30" transform="translate(63.623047 0.684375)"/>
       <use xlink:href="#DejaVuSans-34" transform="translate(128.203125 38.965625)scale(0.7)"/>
      </g>
     </g>
    </g>
    <g id="ytick_7">
     <g id="line2d_13">
      <g>
       <use xlink:href="#mcad466c905" x="51.378125" y="23.380281" style="stroke: #000000; stroke-width: 0.8"/>
      </g>
     </g>
     <g id="text_14">
      <!-- $\mathdefault{10^{6}}$ -->
      <g transform="translate(26.778125 27.1795)scale(0.1 -0.1)">
       <use xlink:href="#DejaVuSans-31" transform="translate(0 0.765625)"/>
       <use xlink:href="#DejaVuSans-30" transform="translate(63.623047 0.765625)"/>
       <use xlink:href="#DejaVuSans-36" transform="translate(128.203125 39.046875)scale(0.7)"/>
      </g>
     </g>
    </g>
    <g id="text_15">
     <!-- MSE of mean -->
     <g transform="translate(14.798438 123.185)rotate(-90)scale(0.1 -0.1)">
      <defs>
       <path id="DejaVuSans-4d" d="M 628 4666 
L 1569 4666 
L 2759 1491 
L 3956 4666 
L 4897 4666 
L 4897 0 
L 4281 0 
L 4281 4097 
L 3078 897 
L 2444 897 
L 1241 4097 
L 1241 0 
L 628 0 
L 628 4666 
z
" transform="scale(0.015625)"/>
       <path id="DejaVuSans-53" d="M 3425 4513 
L 3425 3897 
Q 3066 4069 2747 4153 
Q 2428 4238 2131 4238 
Q 1616 4238 1336 4038 
Q 1056 3838 1056 3469 
Q 1056 3159 1242 3001 
Q 1428 2844 1947 2747 
L 2328 2669 
Q 3034 2534 3370 2195 
Q 3706 1856 3706 1288 
Q 3706 609 3251 259 
Q 2797 -91 1919 -91 
Q 1588 -91 1214 -16 
Q 841 59 441 206 
L 441 856 
Q 825 641 1194 531 
Q 1563 422 1919 422 
Q 2459 422 2753 634 
Q 3047 847 3047 1241 
Q 3047 1584 2836 1778 
Q 2625 1972 2144 2069 
L 1759 2144 
Q 1053 2284 737 2584 
Q 422 2884 422 3419 
Q 422 4038 858 4394 
Q 1294 4750 2059 4750 
Q 2388 4750 2728 4690 
Q 3069 4631 3425 4513 
z
" transform="scale(0.015625)"/>
       <path id="DejaVuSans-45" d="M 628 4666 
L 3578 4666 
L 3578 4134 
L 1259 4134 
L 1259 2753 
L 3481 2753 
L 3481 2222 
L 1259 2222 
L 1259 531 
L 3634 531 
L 3634 0 
L 628 0 
L 628 4666 
z
" transform="scale(0.015625)"/>
       <path id="DejaVuSans-6f" d="M 1959 3097 
Q 1497 3097 1228 2736 
Q 959 2375 959 1747 
Q 959 1119 1226 758 
Q 1494 397 1959 397 
Q 2419 397 2687 759 
Q 2956 1122 2956 1747 
Q 2956 2369 2687 2733 
Q 2419 3097 1959 3097 
z
M 1959 3584 
Q 2709 3584 3137 3096 
Q 3566 2609 3566 1747 
Q 3566 888 3137 398 
Q 2709 -91 1959 -91 
Q 1206 -91 779 398 
Q 353 888 353 1747 
Q 353 2609 779 3096 
Q 1206 3584 1959 3584 
z
" transform="scale(0.015625)"/>
       <path id="DejaVuSans-66" d="M 2375 4863 
L 2375 4384 
L 1825 4384 
Q 1516 4384 1395 4259 
Q 1275 4134 1275 3809 
L 1275 3500 
L 2222 3500 
L 2222 3053 
L 1275 3053 
L 1275 0 
L 697 0 
L 697 3053 
L 147 3053 
L 147 3500 
L 697 3500 
L 697 3744 
Q 697 4328 969 4595 
Q 1241 4863 1831 4863 
L 2375 4863 
z
" transform="scale(0.015625)"/>
       <path id="DejaVuSans-6d" d="M 3328 2828 
Q 3544 3216 3844 3400 
Q 4144 3584 4550 3584 
Q 5097 3584 5394 3201 
Q 5691 2819 5691 2113 
L 5691 0 
L 5113 0 
L 5113 2094 
Q 5113 2597 4934 2840 
Q 4756 3084 4391 3084 
Q 3944 3084 3684 2787 
Q 3425 2491 3425 1978 
L 3425 0 
L 2847 0 
L 2847 2094 
Q 2847 2600 2669 2842 
Q 2491 3084 2119 3084 
Q 1678 3084 1418 2786 
Q 1159 2488 1159 1978 
L 1159 0 
L 581 0 
L 581 3500 
L 1159 3500 
L 1159 2956 
Q 1356 3278 1631 3431 
Q 1906 3584 2284 3584 
Q 2666 3584 2933 3390 
Q 3200 3197 3328 2828 
z
" transform="scale(0.015625)"/>
       <path id="DejaVuSans-61" d="M 2194 1759 
Q 1497 1759 1228 1600 
Q 959 1441 959 1056 
Q 959 750 1161 570 
Q 1363 391 1709 391 
Q 2188 391 2477 730 
Q 2766 1069 2766 1631 
L 2766 1759 
L 2194 1759 
z
M 3341 1997 
L 3341 0 
L 2766 0 
L 2766 531 
Q 2569 213 2275 61 
Q 1981 -91 1556 -91 
Q 1019 -91 701 211 
Q 384 513 384 1019 
Q 384 1609 779 1909 
Q 1175 2209 1959 2209 
L 2766 2209 
L 2766 2266 
Q 2766 2663 2505 2880 
Q 2244 3097 1772 3097 
Q 1472 3097 1187 3025 
Q 903 2953 641 2809 
L 641 3341 
Q 956 3463 1253 3523 
Q 1550 3584 1831 3584 
Q 2591 3584 2966 3190 
Q 3341 2797 3341 1997 
z
" transform="scale(0.015625)"/>
      </defs>
      <use xlink:href="#DejaVuSans-4d"/>
      <use xlink:href="#DejaVuSans-53" x="86.279297"/>
      <use xlink:href="#DejaVuSans-45" x="149.755859"/>
      <use xlink:href="#DejaVuSans-20" x="212.939453"/>
      <use xlink:href="#DejaVuSans-6f" x="244.726562"/>
      <use xlink:href="#DejaVuSans-66" x="305.908203"/>
      <use xlink:href="#DejaVuSans-20" x="341.113281"/>
      <use xlink:href="#DejaVuSans-6d" x="372.900391"/>
      <use xlink:href="#DejaVuSans-65" x="470.3125"/>
      <use xlink:href="#DejaVuSans-61" x="531.835938"/>
      <use xlink:href="#DejaVuSans-6e" x="593.115234"/>
     </g>
    </g>
   </g>
   <g id="line2d_14">
    <path d="M 64.059943 138.549302 
L 64.059943 135.702273 
L 64.059943 128.890881 
L 64.059943 124.457341 
L 64.059943 123.911799 
L 64.059943 122.472299 
L 64.059943 119.210089 
L 64.059943 117.711496 
L 64.059943 109.319914 
L 87.117794 124.895433 
L 87.117794 124.670135 
L 87.117794 121.749863 
L 87.117794 120.153466 
L 87.117794 115.941681 
L 87.117794 109.572845 
L 87.117794 108.939297 
L 87.117794 105.39586 
L 87.117794 101.498498 
L 317.696307 165.96 
L 317.696307 159.437524 
L 317.696307 145.953822 
L 317.696307 121.469584 
L 317.696307 108.763552 
L 317.696307 107.849871 
L 317.696307 106.016626 
L 317.696307 103.624513 
L 317.696307 88.033149 
" clip-path="url(#p3635913bd3)" style="fill: none; stroke: #1f77b4; stroke-width: 1.5; stroke-linecap: square"/>
    <defs>
     <path id="md45d953cd4" d="M 0 3 
C 0.795609 3 1.55874 2.683901 2.12132 2.12132 
C 2.683901 1.55874 3 0.795609 3 0 
C 3 -0.795609 2.683901 -1.55874 2.12132 -2.12132 
C 1.55874 -2.683901 0.795609 -3 0 -3 
C -0.795609 -3 -1.55874 -2.683901 -2.12132 -2.12132 
C -2.683901 -1.55874 -3 -0.795609 -3 0 
C -3 0.795609 -2.683901 1.55874 -2.12132 2.12132 
C -1.55874 2.683901 -0.795609 3 0 3 
z
" style="stroke: #1f77b4"/>
    </defs>
    <g clip-path="url(#p3635913bd3)">
     <use xlink:href="#md45d953cd4" x="64.059943" y="138.549302" style="fill: #1f77b4; stroke: #1f77b4"/>
     <use xlink:href="#md45d953cd4" x="64.059943" y="135.702273" style="fill: #1f77b4; stroke: #1f77b4"/>
     <use xlink:href="#md45d953cd4" x="64.059943" y="128.890881" style="fill: #1f77b4; stroke: #1f77b4"/>
     <use xlink:href="#md45d953cd4" x="64.059943" y="124.457341" style="fill: #1f77b4; stroke: #1f77b4"/>
     <use xlink:href="#md45d953cd4" x="64.059943" y="123.911799" style="fill: #1f77b4; stroke: #1f77b4"/>
     <use xlink:href="#md45d953cd4" x="64.059943" y="122.472299" style="fill: #1f77b4; stroke: #1f77b4"/>
     <use xlink:href="#md45d953cd4" x="64.059943" y="119.210089" style="fill: #1f77b4; stroke: #1f77b4"/>
     <use xlink:href="#md45d953cd4" x="64.059943" y="117.711496" style="fill: #1f77b4; stroke: #1f77b4"/>
     <use xlink:href="#md45d953cd4" x="64.059943" y="109.319914" style="fill: #1f77b4; stroke: #1f77b4"/>
     <use xlink:href="#md45d953cd4" x="87.117794" y="124.895433" style="fill: #1f77b4; stroke: #1f77b4"/>
     <use xlink:href="#md45d953cd4" x="87.117794" y="124.670135" style="fill: #1f77b4; stroke: #1f77b4"/>
     <use xlink:href="#md45d953cd4" x="87.117794" y="121.749863" style="fill: #1f77b4; stroke: #1f77b4"/>
     <use xlink:href="#md45d953cd4" x="87.117794" y="120.153466" style="fill: #1f77b4; stroke: #1f77b4"/>
     <use xlink:href="#md45d953cd4" x="87.117794" y="115.941681" style="fill: #1f77b4; stroke: #1f77b4"/>
     <use xlink:href="#md45d953cd4" x="87.117794" y="109.572845" style="fill: #1f77b4; stroke: #1f77b4"/>
     <use xlink:href="#md45d953cd4" x="87.117794" y="108.939297" style="fill: #1f77b4; stroke: #1f77b4"/>
     <use xlink:href="#md45d953cd4" x="87.117794" y="105.39586" style="fill: #1f77b4; stroke: #1f77b4"/>
     <use xlink:href="#md45d953cd4" x="87.117794" y="101.498498" style="fill: #1f77b4; stroke: #1f77b4"/>
     <use xlink:href="#md45d953cd4" x="317.696307" y="165.96" style="fill: #1f77b4; stroke: #1f77b4"/>
     <use xlink:href="#md45d953cd4" x="317.696307" y="159.437524" style="fill: #1f77b4; stroke: #1f77b4"/>
     <use xlink:href="#md45d953cd4" x="317.696307" y="145.953822" style="fill: #1f77b4; stroke: #1f77b4"/>
     <use xlink:href="#md45d953cd4" x="317.696307" y="121.469584" style="fill: #1f77b4; stroke: #1f77b4"/>
     <use xlink:href="#md45d953cd4" x="317.696307" y="108.763552" style="fill: #1f77b4; stroke: #1f77b4"/>
     <use xlink:href="#md45d953cd4" x="317.696307" y="107.849871" style="fill: #1f77b4; stroke: #1f77b4"/>
     <use xlink:href="#md45d953cd4" x="317.696307" y="106.016626" style="fill: #1f77b4; stroke: #1f77b4"/>
     <use xlink:href="#md45d953cd4" x="317.696307" y="103.624513" style="fill: #1f77b4; stroke: #1f77b4"/>
     <use xlink:href="#md45d953cd4" x="317.696307" y="88.033149" style="fill: #1f77b4; stroke: #1f77b4"/>
    </g>
   </g>
   <g id="line2d_15">
    <path d="M 64.059943 135.314981 
L 64.059943 124.255216 
L 64.059943 122.543613 
L 64.059943 108.272067 
L 64.059943 102.575417 
L 64.059943 102.359546 
L 64.059943 87.174703 
L 64.059943 80.928219 
L 64.059943 42.343646 
L 87.117794 119.44691 
L 87.117794 102.830038 
L 87.117794 102.505963 
L 87.117794 87.791346 
L 87.117794 83.07323 
L 87.117794 81.076585 
L 87.117794 37.700428 
L 87.117794 36.586324 
L 87.117794 22.55693 
L 317.696307 102.632172 
L 317.696307 85.483312 
L 317.696307 81.73417 
L 317.696307 51.564141 
L 317.696307 31.823338 
L 317.696307 29.901515 
L 317.696307 20.431816 
L 317.696307 16.68329 
L 317.696307 14.76 
" clip-path="url(#p3635913bd3)" style="fill: none; stroke: #ff7f0e; stroke-width: 1.5; stroke-linecap: square"/>
    <defs>
     <path id="m954695784b" d="M 0 3 
C 0.795609 3 1.55874 2.683901 2.12132 2.12132 
C 2.683901 1.55874 3 0.795609 3 0 
C 3 -0.795609 2.683901 -1.55874 2.12132 -2.12132 
C 1.55874 -2.683901 0.795609 -3 0 -3 
C -0.795609 -3 -1.55874 -2.683901 -2.12132 -2.12132 
C -2.683901 -1.55874 -3 -0.795609 -3 0 
C -3 0.795609 -2.683901 1.55874 -2.12132 2.12132 
C -1.55874 2.683901 -0.795609 3 0 3 
z
" style="stroke: #ff7f0e"/>
    </defs>
    <g clip-path="url(#p3635913bd3)">
     <use xlink:href="#m954695784b" x="64.059943" y="135.314981" style="fill: #ff7f0e; stroke: #ff7f0e"/>
     <use xlink:href="#m954695784b" x="64.059943" y="124.255216" style="fill: #ff7f0e; stroke: #ff7f0e"/>
     <use xlink:href="#m954695784b" x="64.059943" y="122.543613" style="fill: #ff7f0e; stroke: #ff7f0e"/>
     <use xlink:href="#m954695784b" x="64.059943" y="108.272067" style="fill: #ff7f0e; stroke: #ff7f0e"/>
     <use xlink:href="#m954695784b" x="64.059943" y="102.575417" style="fill: #ff7f0e; stroke: #ff7f0e"/>
     <use xlink:href="#m954695784b" x="64.059943" y="102.359546" style="fill: #ff7f0e; stroke: #ff7f0e"/>
     <use xlink:href="#m954695784b" x="64.059943" y="87.174703" style="fill: #ff7f0e; stroke: #ff7f0e"/>
     <use xlink:href="#m954695784b" x="64.059943" y="80.928219" style="fill: #ff7f0e; stroke: #ff7f0e"/>
     <use xlink:href="#m954695784b" x="64.059943" y="42.343646" style="fill: #ff7f0e; stroke: #ff7f0e"/>
     <use xlink:href="#m954695784b" x="87.117794" y="119.44691" style="fill: #ff7f0e; stroke: #ff7f0e"/>
     <use xlink:href="#m954695784b" x="87.117794" y="102.830038" style="fill: #ff7f0e; stroke: #ff7f0e"/>
     <use xlink:href="#m954695784b" x="87.117794" y="102.505963" style="fill: #ff7f0e; stroke: #ff7f0e"/>
     <use xlink:href="#m954695784b" x="87.117794" y="87.791346" style="fill: #ff7f0e; stroke: #ff7f0e"/>
     <use xlink:href="#m954695784b" x="87.117794" y="83.07323" style="fill: #ff7f0e; stroke: #ff7f0e"/>
     <use xlink:href="#m954695784b" x="87.117794" y="81.076585" style="fill: #ff7f0e; stroke: #ff7f0e"/>
     <use xlink:href="#m954695784b" x="87.117794" y="37.700428" style="fill: #ff7f0e; stroke: #ff7f0e"/>
     <use xlink:href="#m954695784b" x="87.117794" y="36.586324" style="fill: #ff7f0e; stroke: #ff7f0e"/>
     <use xlink:href="#m954695784b" x="87.117794" y="22.55693" style="fill: #ff7f0e; stroke: #ff7f0e"/>
     <use xlink:href="#m954695784b" x="317.696307" y="102.632172" style="fill: #ff7f0e; stroke: #ff7f0e"/>
     <use xlink:href="#m954695784b" x="317.696307" y="85.483312" style="fill: #ff7f0e; stroke: #ff7f0e"/>
     <use xlink:href="#m954695784b" x="317.696307" y="81.73417" style="fill: #ff7f0e; stroke: #ff7f0e"/>
     <use xlink:href="#m954695784b" x="317.696307" y="51.564141" style="fill: #ff7f0e; stroke: #ff7f0e"/>
     <use xlink:href="#m954695784b" x="317.696307" y="31.823338" style="fill: #ff7f0e; stroke: #ff7f0e"/>
     <use xlink:href="#m954695784b" x="317.696307" y="29.901515" style="fill: #ff7f0e; stroke: #ff7f0e"/>
     <use xlink:href="#m954695784b" x="317.696307" y="20.431816" style="fill: #ff7f0e; stroke: #ff7f0e"/>
     <use xlink:href="#m954695784b" x="317.696307" y="16.68329" style="fill: #ff7f0e; stroke: #ff7f0e"/>
     <use xlink:href="#m954695784b" x="317.696307" y="14.76" style="fill: #ff7f0e; stroke: #ff7f0e"/>
    </g>
   </g>
   <g id="line2d_16">
    <path d="M 64.059943 122.774501 
L 64.059943 103.127824 
L 64.059943 101.770157 
L 64.059943 101.559527 
L 64.059943 86.312936 
L 64.059943 81.238572 
L 64.059943 79.861401 
L 64.059943 66.348989 
L 64.059943 64.713111 
L 87.117794 101.103407 
L 87.117794 85.440859 
L 87.117794 80.076716 
L 87.117794 79.891763 
L 87.117794 64.759074 
L 87.117794 63.614229 
L 87.117794 58.432171 
L 87.117794 43.274175 
L 87.117794 22.55693 
L 317.696307 147.930293 
L 317.696307 80.420162 
L 317.696307 62.427027 
L 317.696307 58.685134 
L 317.696307 43.487789 
L 317.696307 40.762563 
L 317.696307 29.901515 
L 317.696307 16.68329 
L 317.696307 14.76 
" clip-path="url(#p3635913bd3)" style="fill: none; stroke: #2ca02c; stroke-width: 1.5; stroke-linecap: square"/>
    <defs>
     <path id="m072cb76907" d="M 0 3 
C 0.795609 3 1.55874 2.683901 2.12132 2.12132 
C 2.683901 1.55874 3 0.795609 3 0 
C 3 -0.795609 2.683901 -1.55874 2.12132 -2.12132 
C 1.55874 -2.683901 0.795609 -3 0 -3 
C -0.795609 -3 -1.55874 -2.683901 -2.12132 -2.12132 
C -2.683901 -1.55874 -3 -0.795609 -3 0 
C -3 0.795609 -2.683901 1.55874 -2.12132 2.12132 
C -1.55874 2.683901 -0.795609 3 0 3 
z
" style="stroke: #2ca02c"/>
    </defs>
    <g clip-path="url(#p3635913bd3)">
     <use xlink:href="#m072cb76907" x="64.059943" y="122.774501" style="fill: #2ca02c; stroke: #2ca02c"/>
     <use xlink:href="#m072cb76907" x="64.059943" y="103.127824" style="fill: #2ca02c; stroke: #2ca02c"/>
     <use xlink:href="#m072cb76907" x="64.059943" y="101.770157" style="fill: #2ca02c; stroke: #2ca02c"/>
     <use xlink:href="#m072cb76907" x="64.059943" y="101.559527" style="fill: #2ca02c; stroke: #2ca02c"/>
     <use xlink:href="#m072cb76907" x="64.059943" y="86.312936" style="fill: #2ca02c; stroke: #2ca02c"/>
     <use xlink:href="#m072cb76907" x="64.059943" y="81.238572" style="fill: #2ca02c; stroke: #2ca02c"/>
     <use xlink:href="#m072cb76907" x="64.059943" y="79.861401" style="fill: #2ca02c; stroke: #2ca02c"/>
     <use xlink:href="#m072cb76907" x="64.059943" y="66.348989" style="fill: #2ca02c; stroke: #2ca02c"/>
     <use xlink:href="#m072cb76907" x="64.059943" y="64.713111" style="fill: #2ca02c; stroke: #2ca02c"/>
     <use xlink:href="#m072cb76907" x="87.117794" y="101.103407" style="fill: #2ca02c; stroke: #2ca02c"/>
     <use xlink:href="#m072cb76907" x="87.117794" y="85.440859" style="fill: #2ca02c; stroke: #2ca02c"/>
     <use xlink:href="#m072cb76907" x="87.117794" y="80.076716" style="fill: #2ca02c; stroke: #2ca02c"/>
     <use xlink:href="#m072cb76907" x="87.117794" y="79.891763" style="fill: #2ca02c; stroke: #2ca02c"/>
     <use xlink:href="#m072cb76907" x="87.117794" y="64.759074" style="fill: #2ca02c; stroke: #2ca02c"/>
     <use xlink:href="#m072cb76907" x="87.117794" y="63.614229" style="fill: #2ca02c; stroke: #2ca02c"/>
     <use xlink:href="#m072cb76907" x="87.117794" y="58.432171" style="fill: #2ca02c; stroke: #2ca02c"/>
     <use xlink:href="#m072cb76907" x="87.117794" y="43.274175" style="fill: #2ca02c; stroke: #2ca02c"/>
     <use xlink:href="#m072cb76907" x="87.117794" y="22.55693" style="fill: #2ca02c; stroke: #2ca02c"/>
     <use xlink:href="#m072cb76907" x="317.696307" y="147.930293" style="fill: #2ca02c; stroke: #2ca02c"/>
     <use xlink:href="#m072cb76907" x="317.696307" y="80.420162" style="fill: #2ca02c; stroke: #2ca02c"/>
     <use xlink:href="#m072cb76907" x="317.696307" y="62.427027" style="fill: #2ca02c; stroke: #2ca02c"/>
     <use xlink:href="#m072cb76907" x="317.696307" y="58.685134" style="fill: #2ca02c; stroke: #2ca02c"/>
     <use xlink:href="#m072cb76907" x="317.696307" y="43.487789" style="fill: #2ca02c; stroke: #2ca02c"/>
     <use xlink:href="#m072cb76907" x="317.696307" y="40.762563" style="fill: #2ca02c; stroke: #2ca02c"/>
     <use xlink:href="#m072cb76907" x="317.696307" y="29.901515" style="fill: #2ca02c; stroke: #2ca02c"/>
     <use xlink:href="#m072cb76907" x="317.696307" y="16.68329" style="fill: #2ca02c; stroke: #2ca02c"/>
     <use xlink:href="#m072cb76907" x="317.696307" y="14.76" style="fill: #2ca02c; stroke: #2ca02c"/>
    </g>
   </g>
   <g id="line2d_17">
    <path d="M 64.059943 122.16628 
L 64.059943 91.816553 
L 64.059943 81.946458 
L 64.059943 67.779063 
L 64.059943 62.556599 
L 64.059943 61.619305 
L 64.059943 58.735905 
L 64.059943 39.963798 
L 64.059943 33.287505 
L 87.117794 100.850486 
L 87.117794 70.07455 
L 87.117794 62.555181 
L 87.117794 57.047747 
L 87.117794 46.123972 
L 87.117794 40.891954 
L 87.117794 36.949879 
L 87.117794 35.394275 
L 87.117794 20.24532 
L 317.696307 154.71546 
L 317.696307 134.502629 
L 317.696307 79.782164 
L 317.696307 67.449201 
L 317.696307 48.568356 
L 317.696307 45.788802 
L 317.696307 30.642865 
L 317.696307 24.51701 
L 317.696307 14.76 
" clip-path="url(#p3635913bd3)" style="fill: none; stroke: #d62728; stroke-width: 1.5; stroke-linecap: square"/>
    <defs>
     <path id="ma880d055bd" d="M 0 3 
C 0.795609 3 1.55874 2.683901 2.12132 2.12132 
C 2.683901 1.55874 3 0.795609 3 0 
C 3 -0.795609 2.683901 -1.55874 2.12132 -2.12132 
C 1.55874 -2.683901 0.795609 -3 0 -3 
C -0.795609 -3 -1.55874 -2.683901 -2.12132 -2.12132 
C -2.683901 -1.55874 -3 -0.795609 -3 0 
C -3 0.795609 -2.683901 1.55874 -2.12132 2.12132 
C -1.55874 2.683901 -0.795609 3 0 3 
z
" style="stroke: #d62728"/>
    </defs>
    <g clip-path="url(#p3635913bd3)">
     <use xlink:href="#ma880d055bd" x="64.059943" y="122.16628" style="fill: #d62728; stroke: #d62728"/>
     <use xlink:href="#ma880d055bd" x="64.059943" y="91.816553" style="fill: #d62728; stroke: #d62728"/>
     <use xlink:href="#ma880d055bd" x="64.059943" y="81.946458" style="fill: #d62728; stroke: #d62728"/>
     <use xlink:href="#ma880d055bd" x="64.059943" y="67.779063" style="fill: #d62728; stroke: #d62728"/>
     <use xlink:href="#ma880d055bd" x="64.059943" y="62.556599" style="fill: #d62728; stroke: #d62728"/>
     <use xlink:href="#ma880d055bd" x="64.059943" y="61.619305" style="fill: #d62728; stroke: #d62728"/>
     <use xlink:href="#ma880d055bd" x="64.059943" y="58.735905" style="fill: #d62728; stroke: #d62728"/>
     <use xlink:href="#ma880d055bd" x="64.059943" y="39.963798" style="fill: #d62728; stroke: #d62728"/>
     <use xlink:href="#ma880d055bd" x="64.059943" y="33.287505" style="fill: #d62728; stroke: #d62728"/>
     <use xlink:href="#ma880d055bd" x="87.117794" y="100.850486" style="fill: #d62728; stroke: #d62728"/>
     <use xlink:href="#ma880d055bd" x="87.117794" y="70.07455" style="fill: #d62728; stroke: #d62728"/>
     <use xlink:href="#ma880d055bd" x="87.117794" y="62.555181" style="fill: #d62728; stroke: #d62728"/>
     <use xlink:href="#ma880d055bd" x="87.117794" y="57.047747" style="fill: #d62728; stroke: #d62728"/>
     <use xlink:href="#ma880d055bd" x="87.117794" y="46.123972" style="fill: #d62728; stroke: #d62728"/>
     <use xlink:href="#ma880d055bd" x="87.117794" y="40.891954" style="fill: #d62728; stroke: #d62728"/>
     <use xlink:href="#ma880d055bd" x="87.117794" y="36.949879" style="fill: #d62728; stroke: #d62728"/>
     <use xlink:href="#ma880d055bd" x="87.117794" y="35.394275" style="fill: #d62728; stroke: #d62728"/>
     <use xlink:href="#ma880d055bd" x="87.117794" y="20.24532" style="fill: #d62728; stroke: #d62728"/>
     <use xlink:href="#ma880d055bd" x="317.696307" y="154.71546" style="fill: #d62728; stroke: #d62728"/>
     <use xlink:href="#ma880d055bd" x="317.696307" y="134.502629" style="fill: #d62728; stroke: #d62728"/>
     <use xlink:href="#ma880d055bd" x="317.696307" y="79.782164" style="fill: #d62728; stroke: #d62728"/>
     <use xlink:href="#ma880d055bd" x="317.696307" y="67.449201" style="fill: #d62728; stroke: #d62728"/>
     <use xlink:href="#ma880d055bd" x="317.696307" y="48.568356" style="fill: #d62728; stroke: #d62728"/>
     <use xlink:href="#ma880d055bd" x="317.696307" y="45.788802" style="fill: #d62728; stroke: #d62728"/>
     <use xlink:href="#ma880d055bd" x="317.696307" y="30.642865" style="fill: #d62728; stroke: #d62728"/>
     <use xlink:href="#ma880d055bd" x="317.696307" y="24.51701" style="fill: #d62728; stroke: #d62728"/>
     <use xlink:href="#ma880d055bd" x="317.696307" y="14.76" style="fill: #d62728; stroke: #d62728"/>
    </g>
   </g>
   <g id="patch_3">
    <path d="M 51.378125 173.52 
L 51.378125 7.2 
" style="fill: none; stroke: #000000; stroke-width: 0.8; stroke-linejoin: miter; stroke-linecap: square"/>
   </g>
   <g id="patch_4">
    <path d="M 330.378125 173.52 
L 330.378125 7.2 
" style="fill: none; stroke: #000000; stroke-width: 0.8; stroke-linejoin: miter; stroke-linecap: square"/>
   </g>
   <g id="patch_5">
    <path d="M 51.378125 173.52 
L 330.378125 173.52 
" style="fill: none; stroke: #000000; stroke-width: 0.8; stroke-linejoin: miter; stroke-linecap: square"/>
   </g>
   <g id="patch_6">
    <path d="M 51.378125 7.2 
L 330.378125 7.2 
" style="fill: none; stroke: #000000; stroke-width: 0.8; stroke-linejoin: miter; stroke-linecap: square"/>
   </g>
   <g id="legend_1">
    <g id="patch_7">
     <path d="M 144.200781 168.52 
L 237.555469 168.52 
Q 239.555469 168.52 239.555469 166.52 
L 239.555469 108.529375 
Q 239.555469 106.529375 237.555469 106.529375 
L 144.200781 106.529375 
Q 142.200781 106.529375 142.200781 108.529375 
L 142.200781 166.52 
Q 142.200781 168.52 144.200781 168.52 
z
" style="fill: #ffffff; opacity: 0.8; stroke: #cccccc; stroke-linejoin: miter"/>
    </g>
    <g id="line2d_18">
     <path d="M 146.200781 114.627813 
L 156.200781 114.627813 
L 166.200781 114.627813 
" style="fill: none; stroke: #1f77b4; stroke-width: 1.5; stroke-linecap: square"/>
     <g>
      <use xlink:href="#md45d953cd4" x="156.200781" y="114.627813" style="fill: #1f77b4; stroke: #1f77b4"/>
     </g>
    </g>
    <g id="text_16">
     <!-- direct_eigen -->
     <g transform="translate(174.200781 118.127813)scale(0.1 -0.1)">
      <defs>
       <path id="DejaVuSans-63" d="M 3122 3366 
L 3122 2828 
Q 2878 2963 2633 3030 
Q 2388 3097 2138 3097 
Q 1578 3097 1268 2742 
Q 959 2388 959 1747 
Q 959 1106 1268 751 
Q 1578 397 2138 397 
Q 2388 397 2633 464 
Q 2878 531 3122 666 
L 3122 134 
Q 2881 22 2623 -34 
Q 2366 -91 2075 -91 
Q 1284 -91 818 406 
Q 353 903 353 1747 
Q 353 2603 823 3093 
Q 1294 3584 2113 3584 
Q 2378 3584 2631 3529 
Q 2884 3475 3122 3366 
z
" transform="scale(0.015625)"/>
       <path id="DejaVuSans-5f" d="M 3263 -1063 
L 3263 -1509 
L -63 -1509 
L -63 -1063 
L 3263 -1063 
z
" transform="scale(0.015625)"/>
       <path id="DejaVuSans-67" d="M 2906 1791 
Q 2906 2416 2648 2759 
Q 2391 3103 1925 3103 
Q 1463 3103 1205 2759 
Q 947 2416 947 1791 
Q 947 1169 1205 825 
Q 1463 481 1925 481 
Q 2391 481 2648 825 
Q 2906 1169 2906 1791 
z
M 3481 434 
Q 3481 -459 3084 -895 
Q 2688 -1331 1869 -1331 
Q 1566 -1331 1297 -1286 
Q 1028 -1241 775 -1147 
L 775 -588 
Q 1028 -725 1275 -790 
Q 1522 -856 1778 -856 
Q 2344 -856 2625 -561 
Q 2906 -266 2906 331 
L 2906 616 
Q 2728 306 2450 153 
Q 2172 0 1784 0 
Q 1141 0 747 490 
Q 353 981 353 1791 
Q 353 2603 747 3093 
Q 1141 3584 1784 3584 
Q 2172 3584 2450 3431 
Q 2728 3278 2906 2969 
L 2906 3500 
L 3481 3500 
L 3481 434 
z
" transform="scale(0.015625)"/>
      </defs>
      <use xlink:href="#DejaVuSans-64"/>
      <use xlink:href="#DejaVuSans-69" x="63.476562"/>
      <use xlink:href="#DejaVuSans-72" x="91.259766"/>
      <use xlink:href="#DejaVuSans-65" x="130.123047"/>
      <use xlink:href="#DejaVuSans-63" x="191.646484"/>
      <use xlink:href="#DejaVuSans-74" x="246.626953"/>
      <use xlink:href="#DejaVuSans-5f" x="285.835938"/>
      <use xlink:href="#DejaVuSans-65" x="335.835938"/>
      <use xlink:href="#DejaVuSans-69" x="397.359375"/>
      <use xlink:href="#DejaVuSans-67" x="425.142578"/>
      <use xlink:href="#DejaVuSans-65" x="488.619141"/>
      <use xlink:href="#DejaVuSans-6e" x="550.142578"/>
     </g>
    </g>
    <g id="line2d_19">
     <path d="M 146.200781 129.584063 
L 156.200781 129.584063 
L 166.200781 129.584063 
" style="fill: none; stroke: #ff7f0e; stroke-width: 1.5; stroke-linecap: square"/>
     <g>
      <use xlink:href="#m954695784b" x="156.200781" y="129.584063" style="fill: #ff7f0e; stroke: #ff7f0e"/>
     </g>
    </g>
    <g id="text_17">
     <!-- dp/10 -->
     <g transform="translate(174.200781 133.084063)scale(0.1 -0.1)">
      <defs>
       <path id="DejaVuSans-70" d="M 1159 525 
L 1159 -1331 
L 581 -1331 
L 581 3500 
L 1159 3500 
L 1159 2969 
Q 1341 3281 1617 3432 
Q 1894 3584 2278 3584 
Q 2916 3584 3314 3078 
Q 3713 2572 3713 1747 
Q 3713 922 3314 415 
Q 2916 -91 2278 -91 
Q 1894 -91 1617 61 
Q 1341 213 1159 525 
z
M 3116 1747 
Q 3116 2381 2855 2742 
Q 2594 3103 2138 3103 
Q 1681 3103 1420 2742 
Q 1159 2381 1159 1747 
Q 1159 1113 1420 752 
Q 1681 391 2138 391 
Q 2594 391 2855 752 
Q 3116 1113 3116 1747 
z
" transform="scale(0.015625)"/>
       <path id="DejaVuSans-2f" d="M 1625 4666 
L 2156 4666 
L 531 -594 
L 0 -594 
L 1625 4666 
z
" transform="scale(0.015625)"/>
      </defs>
      <use xlink:href="#DejaVuSans-64"/>
      <use xlink:href="#DejaVuSans-70" x="63.476562"/>
      <use xlink:href="#DejaVuSans-2f" x="126.953125"/>
      <use xlink:href="#DejaVuSans-31" x="160.644531"/>
      <use xlink:href="#DejaVuSans-30" x="224.267578"/>
     </g>
    </g>
    <g id="line2d_20">
     <path d="M 146.200781 144.262188 
L 156.200781 144.262188 
L 166.200781 144.262188 
" style="fill: none; stroke: #2ca02c; stroke-width: 1.5; stroke-linecap: square"/>
     <g>
      <use xlink:href="#m072cb76907" x="156.200781" y="144.262188" style="fill: #2ca02c; stroke: #2ca02c"/>
     </g>
    </g>
    <g id="text_18">
     <!-- dp/100 -->
     <g transform="translate(174.200781 147.762188)scale(0.1 -0.1)">
      <use xlink:href="#DejaVuSans-64"/>
      <use xlink:href="#DejaVuSans-70" x="63.476562"/>
      <use xlink:href="#DejaVuSans-2f" x="126.953125"/>
      <use xlink:href="#DejaVuSans-31" x="160.644531"/>
      <use xlink:href="#DejaVuSans-30" x="224.267578"/>
      <use xlink:href="#DejaVuSans-30" x="287.890625"/>
     </g>
    </g>
    <g id="line2d_21">
     <path d="M 146.200781 158.940313 
L 156.200781 158.940313 
L 166.200781 158.940313 
" style="fill: none; stroke: #d62728; stroke-width: 1.5; stroke-linecap: square"/>
     <g>
      <use xlink:href="#ma880d055bd" x="156.200781" y="158.940313" style="fill: #d62728; stroke: #d62728"/>
     </g>
    </g>
    <g id="text_19">
     <!-- dp/1000 -->
     <g transform="translate(174.200781 162.440313)scale(0.1 -0.1)">
      <use xlink:href="#DejaVuSans-64"/>
      <use xlink:href="#DejaVuSans-70" x="63.476562"/>
      <use xlink:href="#DejaVuSans-2f" x="126.953125"/>
      <use xlink:href="#DejaVuSans-31" x="160.644531"/>
      <use xlink:href="#DejaVuSans-30" x="224.267578"/>
      <use xlink:href="#DejaVuSans-30" x="287.890625"/>
      <use xlink:href="#DejaVuSans-30" x="351.513672"/>
     </g>
    </g>
   </g>
  </g>
 </g>
 <defs>
  <clipPath id="p3635913bd3">
   <rect x="51.378125" y="7.2" width="279" height="166.32"/>
  </clipPath>
 </defs>
</svg>
